<svg width="900" height="362" viewBox="0 0 900 362" fill="none" xmlns="http://www.w3.org/2000/svg">
<rect width="900" height="362" rx="16" fill="#F4FEF6"/>
<path d="M772 181C772 250.035 716.035 306 647 306C577.964 306 522 250.035 522 181C522 111.964 577.964 56 647 56C716.035 56 772 111.964 772 181Z" fill="#1A8C33"/>
<path d="M647 56C663.415 56 679.67 59.2332 694.835 65.5151C710.001 71.7969 723.781 81.0043 735.388 92.6116C746.996 104.219 756.203 117.999 762.485 133.165C768.767 148.33 772 164.585 772 181C772 197.415 768.767 213.67 762.485 228.835C756.203 244.001 746.996 257.781 735.388 269.388C723.781 280.995 710.001 290.203 694.835 296.485C679.67 302.767 663.415 306 647 306L647 181V56Z" fill="#E6E6E6"/>
<path d="M737.649 180.523C737.649 230.85 696.851 271.649 646.523 271.649C596.196 271.649 555.397 230.85 555.397 180.523C555.397 130.195 596.196 89.3969 646.523 89.3969C696.851 89.3969 737.649 130.195 737.649 180.523Z" fill="white"/>
<path d="M683.507 161.955V157.007C683.507 156.7 683.404 156.454 683.199 156.27C683.015 156.065 682.769 155.962 682.462 155.962H670.322C670.015 155.962 669.759 155.87 669.554 155.686C669.37 155.481 669.277 155.225 669.277 154.917V154.487C669.277 154.18 669.37 153.934 669.554 153.749C669.759 153.545 670.015 153.442 670.322 153.442H673.795C674.102 153.442 674.348 153.35 674.533 153.166C674.738 152.961 674.84 152.705 674.84 152.397V146.958C674.84 146.65 674.932 146.404 675.117 146.22C675.321 146.015 675.578 145.913 675.885 145.913H682.462C682.769 145.913 683.015 145.82 683.199 145.636C683.404 145.431 683.507 145.175 683.507 144.868V142.624C683.507 142.317 683.404 142.071 683.199 141.887C683.015 141.682 682.769 141.579 682.462 141.579H677.206C676.817 141.579 676.52 141.743 676.315 142.071C675.659 143.055 674.953 143.997 674.195 144.898C673.457 145.8 672.648 146.64 671.767 147.419C671.623 147.541 671.459 147.603 671.275 147.603C671.07 147.603 670.896 147.531 670.753 147.388L670.23 146.958C669.984 146.732 669.79 146.579 669.646 146.497C669.257 146.21 669.236 145.923 669.585 145.636C671.121 144.345 672.494 142.839 673.703 141.118C674.912 139.397 675.875 137.605 676.592 135.74C676.694 135.453 676.868 135.248 677.114 135.125C677.36 134.982 677.626 134.962 677.913 135.064L678.712 135.31C678.979 135.392 679.163 135.535 679.265 135.74C679.368 135.945 679.368 136.181 679.265 136.447C679.183 136.713 679.071 137 678.927 137.308C678.845 137.451 678.774 137.594 678.712 137.738C678.651 137.881 678.589 138.025 678.528 138.168C678.262 138.742 678.436 139.029 679.05 139.029H694.785C695.093 139.029 695.339 139.131 695.523 139.336C695.728 139.52 695.83 139.766 695.83 140.073V140.534C695.83 140.842 695.728 141.098 695.523 141.303C695.339 141.487 695.093 141.579 694.785 141.579H687.471C687.164 141.579 686.908 141.682 686.703 141.887C686.518 142.071 686.426 142.317 686.426 142.624V144.868C686.426 145.175 686.518 145.431 686.703 145.636C686.908 145.82 687.164 145.913 687.471 145.913H692.788C693.095 145.913 693.341 146.015 693.525 146.22C693.73 146.404 693.833 146.65 693.833 146.958V147.357C693.833 147.664 693.73 147.921 693.525 148.125C693.341 148.31 693.095 148.402 692.788 148.402H687.471C687.164 148.402 686.908 148.504 686.703 148.709C686.518 148.894 686.426 149.14 686.426 149.447V152.397C686.426 152.705 686.518 152.961 686.703 153.166C686.908 153.35 687.164 153.442 687.471 153.442H696.107C696.414 153.442 696.66 153.545 696.845 153.749C697.049 153.934 697.152 154.18 697.152 154.487V154.917C697.152 155.225 697.049 155.481 696.845 155.686C696.66 155.87 696.414 155.962 696.107 155.962H687.471C687.164 155.962 686.908 156.065 686.703 156.27C686.518 156.454 686.426 156.7 686.426 157.007V161.955C686.426 162.262 686.324 162.508 686.119 162.693C685.934 162.898 685.689 163 685.381 163H684.551C684.244 163 683.988 162.898 683.783 162.693C683.599 162.508 683.507 162.262 683.507 161.955ZM678.774 153.442H682.462C682.769 153.442 683.015 153.35 683.199 153.166C683.404 152.961 683.507 152.705 683.507 152.397V149.447C683.507 149.14 683.404 148.894 683.199 148.709C683.015 148.504 682.769 148.402 682.462 148.402H678.774C678.466 148.402 678.21 148.504 678.005 148.709C677.821 148.894 677.729 149.14 677.729 149.447V152.397C677.729 152.705 677.821 152.961 678.005 153.166C678.21 153.35 678.466 153.442 678.774 153.442Z" fill="#2E354D"/>
<path d="M651.862 149.877C651.862 149.078 651.903 148.248 651.985 147.388C652.067 146.527 652.211 145.687 652.415 144.868C652.641 144.028 652.928 143.229 653.276 142.471C653.645 141.713 654.106 141.057 654.659 140.504C655.233 139.93 655.899 139.479 656.657 139.151C657.435 138.803 658.337 138.629 659.361 138.629C660.385 138.629 661.277 138.803 662.035 139.151C662.813 139.479 663.479 139.93 664.032 140.504C664.606 141.057 665.067 141.713 665.415 142.471C665.784 143.229 666.071 144.028 666.276 144.868C666.501 145.687 666.655 146.527 666.737 147.388C666.819 148.248 666.86 149.078 666.86 149.877C666.86 151.025 666.757 152.254 666.553 153.565C666.348 154.876 665.969 156.095 665.415 157.222C664.862 158.349 664.094 159.281 663.11 160.019C662.147 160.757 660.898 161.125 659.361 161.125C657.824 161.125 656.564 160.757 655.581 160.019C654.618 159.281 653.86 158.349 653.307 157.222C652.754 156.095 652.375 154.876 652.17 153.565C651.965 152.254 651.862 151.025 651.862 149.877ZM654.813 149.877C654.813 150.594 654.854 151.445 654.936 152.428C655.038 153.411 655.243 154.364 655.55 155.286C655.858 156.188 656.308 156.956 656.902 157.591C657.517 158.226 658.337 158.544 659.361 158.544C660.385 158.544 661.195 158.226 661.789 157.591C662.404 156.956 662.865 156.188 663.172 155.286C663.479 154.364 663.674 153.411 663.756 152.428C663.858 151.445 663.91 150.594 663.91 149.877C663.91 149.385 663.889 148.832 663.848 148.218C663.828 147.582 663.756 146.947 663.633 146.312C663.53 145.657 663.377 145.032 663.172 144.437C662.967 143.823 662.69 143.28 662.342 142.809C662.014 142.317 661.605 141.928 661.113 141.641C660.621 141.354 660.037 141.211 659.361 141.211C658.685 141.211 658.101 141.354 657.609 141.641C657.118 141.928 656.698 142.317 656.349 142.809C656.021 143.28 655.755 143.823 655.55 144.437C655.345 145.032 655.181 145.657 655.059 146.312C654.956 146.947 654.884 147.582 654.843 148.218C654.823 148.832 654.813 149.385 654.813 149.877Z" fill="#2E354D"/>
<path d="M635.154 157.622L643.882 148.955C644.19 148.668 644.487 148.361 644.774 148.033C645.06 147.685 645.317 147.326 645.542 146.958C645.767 146.589 645.941 146.199 646.064 145.79C646.208 145.38 646.28 144.95 646.28 144.499C646.28 143.966 646.177 143.485 645.972 143.054C645.788 142.624 645.521 142.266 645.173 141.979C644.845 141.672 644.446 141.436 643.975 141.272C643.524 141.108 643.042 141.026 642.53 141.026C641.465 141.026 640.584 141.323 639.887 141.917C639.191 142.512 638.75 143.331 638.566 144.376L635.369 144.099C635.513 143.136 635.789 142.307 636.199 141.61C636.629 140.893 637.152 140.299 637.767 139.828C638.402 139.356 639.119 139.008 639.918 138.783C640.737 138.557 641.618 138.445 642.561 138.445C643.503 138.445 644.384 138.578 645.204 138.844C646.044 139.09 646.771 139.469 647.386 139.981C648.021 140.473 648.513 141.098 648.861 141.856C649.23 142.593 649.414 143.464 649.414 144.468C649.414 145.185 649.302 145.861 649.076 146.497C648.871 147.111 648.595 147.695 648.246 148.248C647.898 148.801 647.499 149.324 647.048 149.816C646.597 150.307 646.126 150.789 645.634 151.26L638.473 158.175H649.414V160.756H635.154V157.622Z" fill="#2E354D"/>
<path d="M617.706 149.877C617.706 149.078 617.747 148.248 617.829 147.388C617.911 146.527 618.054 145.687 618.259 144.868C618.485 144.028 618.771 143.229 619.12 142.471C619.489 141.713 619.95 141.057 620.503 140.504C621.076 139.93 621.742 139.479 622.5 139.151C623.279 138.803 624.18 138.629 625.205 138.629C626.229 138.629 627.12 138.803 627.879 139.151C628.657 139.479 629.323 139.93 629.876 140.504C630.45 141.057 630.911 141.713 631.259 142.471C631.628 143.229 631.915 144.028 632.12 144.868C632.345 145.687 632.499 146.527 632.581 147.388C632.663 148.248 632.704 149.078 632.704 149.877C632.704 151.025 632.601 152.254 632.396 153.565C632.191 154.876 631.812 156.095 631.259 157.222C630.706 158.349 629.938 159.281 628.954 160.019C627.991 160.757 626.741 161.125 625.205 161.125C623.668 161.125 622.408 160.757 621.425 160.019C620.462 159.281 619.704 158.349 619.15 157.222C618.597 156.095 618.218 154.876 618.013 153.565C617.808 152.254 617.706 151.025 617.706 149.877ZM620.656 149.877C620.656 150.594 620.697 151.445 620.779 152.428C620.882 153.411 621.087 154.364 621.394 155.286C621.701 156.188 622.152 156.956 622.746 157.591C623.361 158.226 624.18 158.544 625.205 158.544C626.229 158.544 627.039 158.226 627.633 157.591C628.247 156.956 628.708 156.188 629.016 155.286C629.323 154.364 629.518 153.411 629.6 152.428C629.702 151.445 629.753 150.594 629.753 149.877C629.753 149.385 629.733 148.832 629.692 148.218C629.671 147.582 629.6 146.947 629.477 146.312C629.374 145.657 629.221 145.032 629.016 144.437C628.811 143.823 628.534 143.28 628.186 142.809C627.858 142.317 627.448 141.928 626.957 141.641C626.465 141.354 625.881 141.211 625.205 141.211C624.529 141.211 623.945 141.354 623.453 141.641C622.961 141.928 622.541 142.317 622.193 142.809C621.865 143.28 621.599 143.823 621.394 144.437C621.189 145.032 621.025 145.657 620.902 146.312C620.8 146.947 620.728 147.582 620.687 148.218C620.667 148.832 620.656 149.385 620.656 149.877Z" fill="#2E354D"/>
<path d="M601 157.622L609.728 148.955C610.035 148.668 610.332 148.361 610.619 148.033C610.906 147.685 611.162 147.326 611.388 146.958C611.613 146.589 611.787 146.199 611.91 145.79C612.054 145.38 612.125 144.95 612.125 144.499C612.125 143.966 612.023 143.485 611.818 143.054C611.633 142.624 611.367 142.266 611.019 141.979C610.691 141.672 610.292 141.436 609.82 141.272C609.37 141.108 608.888 141.026 608.376 141.026C607.31 141.026 606.429 141.323 605.733 141.917C605.036 142.512 604.596 143.331 604.411 144.376L601.215 144.099C601.359 143.136 601.635 142.307 602.045 141.61C602.475 140.893 602.998 140.299 603.612 139.828C604.247 139.356 604.965 139.008 605.764 138.783C606.583 138.557 607.464 138.445 608.407 138.445C609.349 138.445 610.23 138.578 611.05 138.844C611.89 139.09 612.617 139.469 613.232 139.981C613.867 140.473 614.358 141.098 614.707 141.856C615.076 142.593 615.26 143.464 615.26 144.468C615.26 145.185 615.147 145.861 614.922 146.497C614.717 147.111 614.44 147.695 614.092 148.248C613.744 148.801 613.344 149.324 612.894 149.816C612.443 150.307 611.972 150.789 611.48 151.26L604.319 158.175H615.26V160.756H601V157.622Z" fill="#2E354D"/>
<path d="M631.546 203C631.546 199.328 631.83 196.202 632.398 193.623C633.01 191 633.797 188.814 634.759 187.066C635.721 185.273 636.792 183.852 637.972 182.803C639.196 181.71 640.42 180.902 641.644 180.377C642.912 179.809 644.114 179.437 645.251 179.262C646.431 179.087 647.458 179 648.333 179C649.207 179 650.213 179.087 651.349 179.262C652.53 179.437 653.732 179.809 654.956 180.377C656.223 180.902 657.448 181.71 658.628 182.803C659.852 183.852 660.945 185.273 661.907 187.066C662.868 188.814 663.633 191 664.202 193.623C664.814 196.202 665.12 199.328 665.12 203C665.12 206.672 664.814 209.82 664.202 212.443C663.633 215.022 662.868 217.208 661.907 219C660.945 220.749 659.852 222.169 658.628 223.262C657.448 224.311 656.223 225.12 654.956 225.689C653.732 226.213 652.53 226.563 651.349 226.738C650.213 226.913 649.207 227 648.333 227C647.458 227 646.431 226.913 645.251 226.738C644.114 226.563 642.912 226.213 641.644 225.689C640.42 225.12 639.196 224.311 637.972 223.262C636.792 222.169 635.721 220.749 634.759 219C633.797 217.208 633.01 215.022 632.398 212.443C631.83 209.82 631.546 206.672 631.546 203ZM639.415 203C639.415 204.443 639.502 206.126 639.677 208.049C639.896 209.929 640.311 211.721 640.923 213.426C641.535 215.131 642.431 216.574 643.611 217.754C644.792 218.934 646.366 219.525 648.333 219.525C650.3 219.525 651.874 218.934 653.054 217.754C654.234 216.574 655.131 215.131 655.743 213.426C656.355 211.721 656.748 209.929 656.923 208.049C657.142 206.126 657.251 204.443 657.251 203C657.251 201.557 657.142 199.896 656.923 198.016C656.748 196.093 656.355 194.279 655.743 192.574C655.131 190.869 654.234 189.426 653.054 188.246C651.874 187.066 650.3 186.475 648.333 186.475C646.366 186.475 644.792 187.066 643.611 188.246C642.431 189.426 641.535 190.869 640.923 192.574C640.311 194.279 639.896 196.093 639.677 198.016C639.502 199.896 639.415 201.557 639.415 203Z" fill="#1A8C33"/>
<path d="M623.23 186.869H604.541L604.344 196.115C604.956 195.896 605.721 195.743 606.639 195.656C607.601 195.568 608.497 195.524 609.328 195.524C611.601 195.524 613.678 195.896 615.557 196.639C617.481 197.339 619.12 198.366 620.475 199.721C621.831 201.076 622.88 202.694 623.623 204.574C624.41 206.453 624.803 208.574 624.803 210.934C624.803 213.426 624.366 215.677 623.492 217.688C622.661 219.656 621.481 221.339 619.951 222.738C618.464 224.093 616.694 225.142 614.639 225.885C612.585 226.628 610.377 227 608.016 227C604.301 227 601.131 226.126 598.508 224.377C595.929 222.628 594.093 219.962 593 216.377L601.262 214.147C601.787 215.809 602.683 217.12 603.951 218.082C605.219 219.044 606.858 219.524 608.869 219.524C610.049 219.524 611.12 219.328 612.082 218.934C613.087 218.541 613.94 217.994 614.639 217.295C615.383 216.552 615.951 215.699 616.344 214.738C616.738 213.776 616.934 212.727 616.934 211.59C616.934 209.973 616.628 208.595 616.016 207.459C615.448 206.322 614.661 205.404 613.656 204.705C612.65 203.962 611.492 203.437 610.18 203.131C608.869 202.781 607.492 202.606 606.049 202.606C604.344 202.606 602.639 202.803 600.934 203.197C599.273 203.59 597.743 204.136 596.344 204.836L596.803 179.787H623.23V186.869Z" fill="#1A8C33"/>
<path d="M689.519 219.484C689.519 218.631 689.672 217.844 689.978 217.123C690.306 216.38 690.743 215.735 691.29 215.188C691.858 214.62 692.503 214.183 693.224 213.877C693.967 213.549 694.765 213.385 695.617 213.385C696.47 213.385 697.257 213.549 697.978 213.877C698.721 214.183 699.366 214.62 699.913 215.188C700.481 215.735 700.918 216.38 701.224 217.123C701.552 217.844 701.716 218.631 701.716 219.484C701.716 220.336 701.552 221.134 701.224 221.877C700.918 222.598 700.481 223.243 699.913 223.811C699.366 224.358 698.721 224.795 697.978 225.123C697.257 225.429 696.47 225.582 695.617 225.582C694.765 225.582 693.967 225.429 693.224 225.123C692.503 224.795 691.858 224.358 691.29 223.811C690.743 223.243 690.306 222.598 689.978 221.877C689.672 221.134 689.519 220.336 689.519 219.484ZM698.568 219.484C698.568 218.653 698.284 217.953 697.716 217.385C697.147 216.817 696.448 216.533 695.617 216.533C694.787 216.533 694.087 216.817 693.519 217.385C692.951 217.953 692.667 218.653 692.667 219.484C692.667 220.314 692.951 221.014 693.519 221.582C694.087 222.15 694.787 222.434 695.617 222.434C696.448 222.434 697.147 222.15 697.716 221.582C698.284 221.014 698.568 220.314 698.568 219.484ZM673.945 207.68C673.945 206.828 674.098 206.041 674.404 205.32C674.732 204.576 675.169 203.932 675.716 203.385C676.284 202.817 676.929 202.38 677.65 202.074C678.393 201.746 679.191 201.582 680.044 201.582C680.896 201.582 681.683 201.746 682.404 202.074C683.147 202.38 683.792 202.817 684.339 203.385C684.907 203.932 685.344 204.576 685.65 205.32C685.978 206.041 686.142 206.828 686.142 207.68C686.142 208.533 685.978 209.331 685.65 210.074C685.344 210.795 684.907 211.44 684.339 212.008C683.792 212.555 683.147 212.992 682.404 213.32C681.683 213.626 680.896 213.779 680.044 213.779C679.191 213.779 678.393 213.626 677.65 213.32C676.929 212.992 676.284 212.555 675.716 212.008C675.169 211.44 674.732 210.795 674.404 210.074C674.098 209.331 673.945 208.533 673.945 207.68ZM682.994 207.68C682.994 206.85 682.71 206.15 682.142 205.582C681.574 205.014 680.874 204.729 680.044 204.729C679.213 204.729 678.514 205.014 677.945 205.582C677.377 206.15 677.093 206.85 677.093 207.68C677.093 208.511 677.377 209.21 677.945 209.779C678.514 210.347 679.213 210.631 680.044 210.631C680.874 210.631 681.574 210.347 682.142 209.779C682.71 209.21 682.994 208.511 682.994 207.68ZM693.322 200.926L696.044 202.172L682.404 226.238L679.683 224.992L693.322 200.926Z" fill="#1A8C33"/>
<path d="M489.18 181L454.18 160.793L454.18 201.207L489.18 181ZM360.404 184.5L457.68 184.5L457.68 177.5L360.404 177.5L360.404 184.5Z" fill="#686868"/>
<path d="M328 181C328 236.228 283.228 281 228 281C172.772 281 128 236.228 128 181C128 125.772 172.772 81 228 81C283.228 81 328 125.772 328 181Z" fill="#1A8C33"/>
<path d="M228 81C248.37 81 268.255 87.2209 284.993 98.8305C301.731 110.44 314.524 126.884 321.661 145.963C328.798 165.042 329.939 185.846 324.929 205.591C319.92 225.335 309.001 243.079 293.632 256.449C278.263 269.818 259.177 278.175 238.929 280.401C218.681 282.627 198.236 278.617 180.329 268.906C162.422 259.195 147.908 244.248 138.729 226.063C129.55 207.878 126.143 187.324 128.964 167.15L228 181V81Z" fill="#E6E6E6"/>
<path d="M300.519 180.618C300.519 220.88 267.881 253.519 227.619 253.519C187.357 253.519 154.718 220.88 154.718 180.618C154.718 140.356 187.357 107.718 227.619 107.718C267.881 107.718 300.519 140.356 300.519 180.618Z" fill="white"/>
<path d="M262.262 187.365H251.454L251.34 192.712C251.694 192.585 252.136 192.497 252.667 192.446C253.223 192.396 253.742 192.371 254.222 192.371C255.537 192.371 256.738 192.585 257.825 193.015C258.937 193.42 259.885 194.014 260.669 194.798C261.453 195.581 262.059 196.517 262.489 197.604C262.944 198.691 263.172 199.917 263.172 201.282C263.172 202.723 262.919 204.026 262.413 205.188C261.933 206.326 261.25 207.3 260.366 208.109C259.506 208.892 258.482 209.499 257.294 209.929C256.106 210.359 254.829 210.574 253.464 210.574C251.315 210.574 249.482 210.068 247.965 209.057C246.473 208.045 245.411 206.503 244.779 204.43L249.558 203.141C249.861 204.101 250.379 204.86 251.112 205.416C251.846 205.972 252.794 206.25 253.957 206.25C254.639 206.25 255.259 206.137 255.815 205.909C256.396 205.681 256.889 205.365 257.294 204.961C257.724 204.531 258.052 204.038 258.28 203.482C258.507 202.926 258.621 202.319 258.621 201.662C258.621 200.726 258.444 199.93 258.09 199.273C257.762 198.615 257.306 198.084 256.725 197.68C256.144 197.25 255.474 196.947 254.715 196.77C253.957 196.567 253.16 196.466 252.326 196.466C251.34 196.466 250.354 196.58 249.368 196.808C248.407 197.035 247.522 197.351 246.713 197.756L246.979 183.269H262.262V187.365Z" fill="#1A8C33"/>
<path d="M222.906 205.302L233.335 195.215C233.638 194.911 233.954 194.595 234.283 194.267C234.612 193.913 234.903 193.546 235.155 193.167C235.433 192.788 235.661 192.396 235.838 191.991C236.015 191.562 236.103 191.119 236.103 190.664C236.103 190.108 235.99 189.615 235.762 189.185C235.56 188.755 235.282 188.389 234.928 188.085C234.574 187.782 234.157 187.554 233.676 187.403C233.221 187.226 232.728 187.137 232.197 187.137C231.06 187.137 230.124 187.466 229.391 188.123C228.658 188.781 228.215 189.665 228.064 190.778L223.285 190.399C223.387 189.16 223.677 188.073 224.158 187.137C224.663 186.176 225.308 185.38 226.092 184.748C226.876 184.116 227.786 183.636 228.822 183.307C229.859 182.978 230.984 182.814 232.197 182.814C233.411 182.814 234.536 182.978 235.572 183.307C236.634 183.61 237.557 184.078 238.341 184.71C239.125 185.317 239.744 186.101 240.199 187.061C240.654 188.022 240.882 189.147 240.882 190.436C240.882 192.13 240.49 193.597 239.706 194.836C238.948 196.049 237.962 197.212 236.748 198.324L228.443 206.023H240.882V210.118H222.906V205.302Z" fill="#1A8C33"/>
<path d="M219.363 202.723H209.996V198.855H219.363V202.723Z" fill="#1A8C33"/>
<path d="M187.78 196.694C187.78 194.57 187.945 192.762 188.273 191.271C188.627 189.754 189.082 188.49 189.638 187.478C190.195 186.442 190.814 185.62 191.497 185.013C192.205 184.381 192.913 183.914 193.62 183.61C194.354 183.282 195.049 183.067 195.706 182.966C196.389 182.865 196.983 182.814 197.489 182.814C197.994 182.814 198.576 182.865 199.233 182.966C199.916 183.067 200.611 183.282 201.319 183.61C202.052 183.914 202.76 184.381 203.442 185.013C204.15 185.62 204.782 186.442 205.339 187.478C205.895 188.49 206.337 189.754 206.666 191.271C207.02 192.762 207.197 194.57 207.197 196.694C207.197 198.817 207.02 200.638 206.666 202.155C206.337 203.646 205.895 204.91 205.339 205.947C204.782 206.958 204.15 207.78 203.442 208.412C202.76 209.019 202.052 209.486 201.319 209.815C200.611 210.118 199.916 210.321 199.233 210.422C198.576 210.523 197.994 210.574 197.489 210.574C196.983 210.574 196.389 210.523 195.706 210.422C195.049 210.321 194.354 210.118 193.62 209.815C192.913 209.486 192.205 209.019 191.497 208.412C190.814 207.78 190.195 206.958 189.638 205.947C189.082 204.91 188.627 203.646 188.273 202.155C187.945 200.638 187.78 198.817 187.78 196.694ZM192.331 196.694C192.331 197.528 192.382 198.501 192.483 199.614C192.609 200.701 192.849 201.737 193.203 202.723C193.557 203.709 194.075 204.544 194.758 205.226C195.441 205.909 196.351 206.25 197.489 206.25C198.626 206.25 199.536 205.909 200.219 205.226C200.902 204.544 201.42 203.709 201.774 202.723C202.128 201.737 202.355 200.701 202.456 199.614C202.583 198.501 202.646 197.528 202.646 196.694C202.646 195.859 202.583 194.899 202.456 193.812C202.355 192.699 202.128 191.65 201.774 190.664C201.42 189.678 200.902 188.844 200.219 188.161C199.536 187.478 198.626 187.137 197.489 187.137C196.351 187.137 195.441 187.478 194.758 188.161C194.075 188.844 193.557 189.678 193.203 190.664C192.849 191.65 192.609 192.699 192.483 193.812C192.382 194.899 192.331 195.859 192.331 196.694Z" fill="#1A8C33"/>
<path d="M166.059 205.302L176.487 195.215C176.791 194.911 177.107 194.595 177.435 194.267C177.764 193.913 178.055 193.546 178.308 193.167C178.586 192.788 178.813 192.396 178.99 191.991C179.167 191.562 179.256 191.119 179.256 190.664C179.256 190.108 179.142 189.615 178.914 189.185C178.712 188.755 178.434 188.389 178.08 188.085C177.726 187.782 177.309 187.554 176.829 187.403C176.374 187.226 175.881 187.137 175.35 187.137C174.212 187.137 173.277 187.466 172.543 188.123C171.81 188.781 171.368 189.665 171.216 190.778L166.438 190.399C166.539 189.16 166.83 188.073 167.31 187.137C167.816 186.176 168.46 185.38 169.244 184.748C170.028 184.116 170.938 183.636 171.975 183.307C173.011 182.978 174.136 182.814 175.35 182.814C176.563 182.814 177.688 182.978 178.725 183.307C179.787 183.61 180.709 184.078 181.493 184.71C182.277 185.317 182.896 186.101 183.351 187.061C183.807 188.022 184.034 189.147 184.034 190.436C184.034 192.13 183.642 193.597 182.858 194.836C182.1 196.049 181.114 197.212 179.9 198.324L171.595 206.023H184.034V210.118H166.059V205.302Z" fill="#1A8C33"/>
<path d="M281.259 204.139C281.259 203.482 281.377 202.875 281.613 202.319C281.866 201.746 282.203 201.249 282.624 200.827C283.062 200.389 283.56 200.052 284.116 199.816C284.689 199.563 285.304 199.437 285.961 199.437C286.619 199.437 287.225 199.563 287.782 199.816C288.355 200.052 288.852 200.389 289.273 200.827C289.712 201.249 290.049 201.746 290.285 202.319C290.537 202.875 290.664 203.482 290.664 204.139C290.664 204.797 290.537 205.412 290.285 205.985C290.049 206.541 289.712 207.038 289.273 207.477C288.852 207.898 288.355 208.235 287.782 208.488C287.225 208.724 286.619 208.842 285.961 208.842C285.304 208.842 284.689 208.724 284.116 208.488C283.56 208.235 283.062 207.898 282.624 207.477C282.203 207.038 281.866 206.541 281.613 205.985C281.377 205.412 281.259 204.797 281.259 204.139ZM288.237 204.139C288.237 203.499 288.018 202.959 287.579 202.521C287.141 202.083 286.602 201.864 285.961 201.864C285.321 201.864 284.782 202.083 284.343 202.521C283.905 202.959 283.686 203.499 283.686 204.139C283.686 204.78 283.905 205.319 284.343 205.757C284.782 206.196 285.321 206.415 285.961 206.415C286.602 206.415 287.141 206.196 287.579 205.757C288.018 205.319 288.237 204.78 288.237 204.139ZM269.25 195.038C269.25 194.38 269.368 193.774 269.604 193.217C269.857 192.644 270.194 192.147 270.615 191.726C271.053 191.288 271.551 190.951 272.107 190.715C272.68 190.462 273.295 190.335 273.952 190.335C274.61 190.335 275.217 190.462 275.773 190.715C276.346 190.951 276.843 191.288 277.264 191.726C277.703 192.147 278.04 192.644 278.276 193.217C278.528 193.774 278.655 194.38 278.655 195.038C278.655 195.695 278.528 196.31 278.276 196.883C278.04 197.44 277.703 197.937 277.264 198.375C276.843 198.796 276.346 199.133 275.773 199.386C275.217 199.622 274.61 199.74 273.952 199.74C273.295 199.74 272.68 199.622 272.107 199.386C271.551 199.133 271.053 198.796 270.615 198.375C270.194 197.937 269.857 197.44 269.604 196.883C269.368 196.31 269.25 195.695 269.25 195.038ZM276.228 195.038C276.228 194.397 276.009 193.858 275.57 193.42C275.132 192.982 274.593 192.762 273.952 192.762C273.312 192.762 272.773 192.982 272.334 193.42C271.896 193.858 271.677 194.397 271.677 195.038C271.677 195.678 271.896 196.218 272.334 196.656C272.773 197.094 273.312 197.313 273.952 197.313C274.593 197.313 275.132 197.094 275.57 196.656C276.009 196.218 276.228 195.678 276.228 195.038ZM284.192 189.83L286.29 190.79L275.773 209.347L273.674 208.387L284.192 189.83Z" fill="#1A8C33"/>
<path d="M269.923 150.433L271.384 150.803C270.313 153.686 268.579 156.394 266.767 158.147C266.475 157.894 265.871 157.407 265.501 157.212C267.351 155.595 268.968 153.063 269.923 150.433ZM269.611 152.848H282.176V154.271H268.91L269.611 152.848ZM268.657 157.271H281.748V158.634H270.118V163.251H268.657V157.271ZM265.442 162.511H283.092V163.933H265.442V162.511ZM274.501 153.589H276.001V168.433H274.501V153.589Z" fill="#2E354D"/>
<path d="M254.366 159.959C254.366 159.452 254.392 158.926 254.444 158.381C254.496 157.835 254.587 157.303 254.717 156.784C254.86 156.251 255.042 155.745 255.262 155.264C255.496 154.784 255.788 154.368 256.139 154.017C256.503 153.654 256.925 153.368 257.405 153.16C257.899 152.939 258.47 152.829 259.119 152.829C259.769 152.829 260.334 152.939 260.814 153.16C261.308 153.368 261.73 153.654 262.08 154.017C262.444 154.368 262.736 154.784 262.957 155.264C263.191 155.745 263.373 156.251 263.503 156.784C263.645 157.303 263.743 157.835 263.795 158.381C263.847 158.926 263.873 159.452 263.873 159.959C263.873 160.686 263.808 161.465 263.678 162.297C263.548 163.128 263.308 163.9 262.957 164.615C262.606 165.329 262.119 165.92 261.496 166.387C260.886 166.855 260.093 167.089 259.119 167.089C258.145 167.089 257.347 166.855 256.723 166.387C256.113 165.92 255.632 165.329 255.282 164.615C254.931 163.9 254.691 163.128 254.561 162.297C254.431 161.465 254.366 160.686 254.366 159.959ZM256.236 159.959C256.236 160.413 256.262 160.952 256.314 161.576C256.379 162.199 256.509 162.803 256.704 163.387C256.899 163.959 257.184 164.446 257.561 164.848C257.951 165.251 258.47 165.452 259.119 165.452C259.769 165.452 260.282 165.251 260.658 164.848C261.048 164.446 261.34 163.959 261.535 163.387C261.73 162.803 261.853 162.199 261.905 161.576C261.97 160.952 262.003 160.413 262.003 159.959C262.003 159.647 261.99 159.297 261.964 158.907C261.951 158.504 261.905 158.102 261.827 157.699C261.762 157.284 261.665 156.887 261.535 156.511C261.405 156.121 261.23 155.777 261.009 155.478C260.801 155.167 260.542 154.92 260.23 154.738C259.918 154.556 259.548 154.465 259.119 154.465C258.691 154.465 258.321 154.556 258.009 154.738C257.697 154.92 257.431 155.167 257.21 155.478C257.003 155.777 256.834 156.121 256.704 156.511C256.574 156.887 256.47 157.284 256.392 157.699C256.327 158.102 256.282 158.504 256.256 158.907C256.243 159.297 256.236 159.647 256.236 159.959Z" fill="#2E354D"/>
<path d="M248.294 167.089C247.671 167.089 247.08 166.998 246.521 166.816C245.976 166.621 245.502 166.342 245.099 165.978C244.697 165.615 244.378 165.173 244.145 164.654C243.911 164.134 243.794 163.55 243.794 162.9C243.794 162.472 243.859 162.076 243.989 161.712C244.132 161.348 244.32 161.024 244.554 160.738C244.787 160.439 245.06 160.193 245.372 159.998C245.697 159.79 246.047 159.634 246.424 159.53V159.472C246.164 159.407 245.904 159.29 245.645 159.121C245.385 158.952 245.151 158.738 244.943 158.478C244.748 158.219 244.586 157.907 244.456 157.543C244.326 157.167 244.261 156.738 244.261 156.258C244.261 155.738 244.365 155.271 244.573 154.855C244.794 154.426 245.086 154.063 245.45 153.764C245.826 153.465 246.255 153.238 246.736 153.082C247.229 152.913 247.748 152.829 248.294 152.829C248.839 152.829 249.352 152.913 249.833 153.082C250.326 153.238 250.755 153.465 251.119 153.764C251.495 154.063 251.787 154.426 251.995 154.855C252.216 155.271 252.326 155.738 252.326 156.258C252.326 156.738 252.261 157.167 252.132 157.543C252.002 157.907 251.833 158.219 251.625 158.478C251.43 158.738 251.203 158.952 250.943 159.121C250.684 159.29 250.424 159.407 250.164 159.472V159.53C250.541 159.634 250.885 159.79 251.197 159.998C251.521 160.193 251.8 160.439 252.034 160.738C252.268 161.024 252.45 161.348 252.58 161.712C252.723 162.076 252.794 162.472 252.794 162.9C252.794 163.55 252.677 164.134 252.443 164.654C252.21 165.173 251.891 165.615 251.489 165.978C251.086 166.342 250.606 166.621 250.047 166.816C249.502 166.998 248.917 167.089 248.294 167.089ZM246.132 156.53C246.132 156.803 246.177 157.069 246.268 157.329C246.372 157.589 246.515 157.822 246.697 158.03C246.878 158.225 247.099 158.387 247.359 158.517C247.632 158.647 247.943 158.712 248.294 158.712C248.658 158.712 248.969 158.654 249.229 158.537C249.502 158.407 249.729 158.245 249.911 158.05C250.093 157.842 250.229 157.608 250.32 157.348C250.411 157.089 250.456 156.816 250.456 156.53C250.456 155.894 250.255 155.374 249.852 154.972C249.463 154.556 248.943 154.348 248.294 154.348C247.697 154.348 247.184 154.55 246.755 154.952C246.339 155.355 246.132 155.881 246.132 156.53ZM248.294 165.452C249.073 165.452 249.703 165.219 250.184 164.751C250.677 164.271 250.924 163.654 250.924 162.9C250.924 162.485 250.852 162.121 250.71 161.81C250.58 161.485 250.391 161.219 250.145 161.011C249.911 160.79 249.632 160.628 249.307 160.524C248.995 160.407 248.658 160.348 248.294 160.348C247.528 160.361 246.898 160.608 246.404 161.089C245.911 161.556 245.664 162.16 245.664 162.9C245.664 163.303 245.736 163.667 245.878 163.991C246.021 164.303 246.21 164.569 246.443 164.79C246.69 164.998 246.969 165.16 247.281 165.277C247.606 165.394 247.943 165.452 248.294 165.452Z" fill="#2E354D"/>
<path d="M238.599 161.517H238.521C238.092 161.725 237.586 161.829 237.002 161.829C236.508 161.829 236.008 161.745 235.502 161.576C234.995 161.407 234.534 161.147 234.118 160.797C233.716 160.433 233.385 159.978 233.125 159.433C232.865 158.874 232.735 158.219 232.735 157.465C232.735 156.712 232.859 156.05 233.105 155.478C233.365 154.894 233.709 154.407 234.138 154.017C234.567 153.628 235.067 153.335 235.638 153.141C236.209 152.933 236.82 152.829 237.469 152.829C238.118 152.829 238.729 152.933 239.3 153.141C239.872 153.348 240.372 153.647 240.8 154.037C241.229 154.426 241.567 154.894 241.813 155.439C242.073 155.985 242.203 156.595 242.203 157.271C242.203 157.699 242.17 158.089 242.105 158.439C242.041 158.79 241.943 159.128 241.813 159.452C241.696 159.764 241.554 160.076 241.385 160.387C241.216 160.699 241.028 161.017 240.82 161.342L237.333 166.855H235.131L238.599 161.517ZM240.333 157.329C240.333 156.913 240.261 156.53 240.118 156.18C239.989 155.829 239.794 155.53 239.534 155.284C239.287 155.024 238.989 154.822 238.638 154.68C238.287 154.537 237.898 154.465 237.469 154.465C237.041 154.465 236.651 154.537 236.3 154.68C235.95 154.822 235.644 155.024 235.385 155.284C235.138 155.53 234.943 155.829 234.8 156.18C234.67 156.53 234.605 156.913 234.605 157.329C234.605 157.745 234.67 158.128 234.8 158.478C234.943 158.829 235.138 159.134 235.385 159.394C235.644 159.641 235.95 159.835 236.3 159.978C236.651 160.121 237.041 160.193 237.469 160.193C237.898 160.193 238.287 160.121 238.638 159.978C238.989 159.835 239.287 159.641 239.534 159.394C239.794 159.134 239.989 158.829 240.118 158.478C240.261 158.128 240.333 157.745 240.333 157.329Z" fill="#2E354D"/>
<path d="M226.489 155.206L223.956 157.543L222.865 156.238L226.703 153.063H228.359V166.855H226.489V155.206Z" fill="#2E354D"/>
<path d="M220.539 162.959H215.747V161.322H220.539V162.959Z" fill="#2E354D"/>
<path d="M204.902 159.959C204.902 159.452 204.928 158.926 204.98 158.381C205.032 157.835 205.123 157.303 205.253 156.784C205.396 156.251 205.578 155.745 205.798 155.264C206.032 154.784 206.324 154.368 206.675 154.017C207.039 153.654 207.461 153.368 207.941 153.16C208.435 152.939 209.006 152.829 209.656 152.829C210.305 152.829 210.87 152.939 211.35 153.16C211.844 153.368 212.266 153.654 212.617 154.017C212.98 154.368 213.272 154.784 213.493 155.264C213.727 155.745 213.909 156.251 214.039 156.784C214.182 157.303 214.279 157.835 214.331 158.381C214.383 158.926 214.409 159.452 214.409 159.959C214.409 160.686 214.344 161.465 214.214 162.297C214.084 163.128 213.844 163.9 213.493 164.615C213.143 165.329 212.656 165.92 212.032 166.387C211.422 166.855 210.63 167.089 209.656 167.089C208.682 167.089 207.883 166.855 207.259 166.387C206.649 165.92 206.169 165.329 205.818 164.615C205.467 163.9 205.227 163.128 205.097 162.297C204.967 161.465 204.902 160.686 204.902 159.959ZM206.772 159.959C206.772 160.413 206.798 160.952 206.85 161.576C206.915 162.199 207.045 162.803 207.24 163.387C207.435 163.959 207.721 164.446 208.097 164.848C208.487 165.251 209.006 165.452 209.656 165.452C210.305 165.452 210.818 165.251 211.195 164.848C211.584 164.446 211.876 163.959 212.071 163.387C212.266 162.803 212.389 162.199 212.441 161.576C212.506 160.952 212.539 160.413 212.539 159.959C212.539 159.647 212.526 159.297 212.5 158.907C212.487 158.504 212.441 158.102 212.363 157.699C212.298 157.284 212.201 156.887 212.071 156.511C211.941 156.121 211.766 155.777 211.545 155.478C211.337 155.167 211.078 154.92 210.766 154.738C210.454 154.556 210.084 154.465 209.656 154.465C209.227 154.465 208.857 154.556 208.545 154.738C208.234 154.92 207.967 155.167 207.747 155.478C207.539 155.777 207.37 156.121 207.24 156.511C207.11 156.887 207.006 157.284 206.928 157.699C206.863 158.102 206.818 158.504 206.792 158.907C206.779 159.297 206.772 159.647 206.772 159.959Z" fill="#2E354D"/>
<path d="M200.898 154.699H194.235V153.063H202.904V154.66L197.411 166.855H195.307L200.898 154.699Z" fill="#2E354D"/>
<path d="M189.137 161.517H189.059C188.631 161.725 188.124 161.829 187.54 161.829C187.046 161.829 186.546 161.745 186.04 161.576C185.533 161.407 185.072 161.147 184.657 160.797C184.254 160.433 183.923 159.978 183.663 159.433C183.403 158.874 183.273 158.219 183.273 157.465C183.273 156.712 183.397 156.05 183.644 155.478C183.903 154.894 184.247 154.407 184.676 154.017C185.105 153.628 185.605 153.335 186.176 153.141C186.747 152.933 187.358 152.829 188.007 152.829C188.657 152.829 189.267 152.933 189.838 153.141C190.41 153.348 190.91 153.647 191.338 154.037C191.767 154.426 192.105 154.894 192.351 155.439C192.611 155.985 192.741 156.595 192.741 157.271C192.741 157.699 192.709 158.089 192.644 158.439C192.579 158.79 192.481 159.128 192.351 159.452C192.234 159.764 192.092 160.076 191.923 160.387C191.754 160.699 191.566 161.017 191.358 161.342L187.871 166.855H185.67L189.137 161.517ZM190.871 157.329C190.871 156.913 190.799 156.53 190.657 156.18C190.527 155.829 190.332 155.53 190.072 155.284C189.825 155.024 189.527 154.822 189.176 154.68C188.825 154.537 188.436 154.465 188.007 154.465C187.579 154.465 187.189 154.537 186.838 154.68C186.488 154.822 186.183 155.024 185.923 155.284C185.676 155.53 185.481 155.829 185.338 156.18C185.209 156.53 185.144 156.913 185.144 157.329C185.144 157.745 185.209 158.128 185.338 158.478C185.481 158.829 185.676 159.134 185.923 159.394C186.183 159.641 186.488 159.835 186.838 159.978C187.189 160.121 187.579 160.193 188.007 160.193C188.436 160.193 188.825 160.121 189.176 159.978C189.527 159.835 189.825 159.641 190.072 159.394C190.332 159.134 190.527 158.829 190.657 158.478C190.799 158.128 190.871 157.745 190.871 157.329Z" fill="#2E354D"/>
<path d="M177.027 155.206L174.494 157.543L173.403 156.238L177.241 153.063H178.897V166.855H177.027V155.206Z" fill="#2E354D"/>
</svg>
