<svg width="900" height="443" viewBox="0 0 900 443" fill="none" xmlns="http://www.w3.org/2000/svg">
<rect width="900" height="443" rx="16" fill="#F4FEF6"/>
<path d="M411.628 100.607L411.277 100.068L410.224 98.7223C410.12 98.5941 410.029 98.4787 409.951 98.3762C409.873 98.2993 409.782 98.2224 409.678 98.1455C409.367 97.7865 409.432 97.5301 409.873 97.3763C410.835 97.0687 411.745 96.6969 412.603 96.2611C413.486 95.7996 414.266 95.2612 414.942 94.6459C415.644 94.0049 416.241 93.2871 416.735 92.4923C417.229 91.6719 417.593 90.7617 417.827 89.7619C417.931 89.2491 417.905 88.8773 417.749 88.6466C417.619 88.3902 417.398 88.262 417.086 88.262C416.748 88.262 416.358 88.403 415.916 88.6851C414.851 89.3004 413.772 89.89 412.681 90.4541C411.589 90.9925 410.471 91.4796 409.328 91.9154C409.016 92.0436 408.717 92.0436 408.431 91.9154C408.171 91.7873 407.963 91.5821 407.807 91.3001C407.729 91.1719 407.651 91.0309 407.573 90.8771C407.495 90.6976 407.404 90.5182 407.3 90.3387C407.118 89.9798 406.91 89.6465 406.676 89.3388C406.261 88.7492 406.404 88.3518 407.105 88.1467C408.665 87.7108 410.224 87.0955 411.784 86.3007C413.343 85.506 414.773 84.6086 416.072 83.6088C416.826 83.0447 417.125 82.5704 416.969 82.1859C416.813 81.7756 416.254 81.5705 415.293 81.5705H412.213C411.823 81.5705 411.498 81.4552 411.238 81.2244C411.004 80.9681 410.887 80.6476 410.887 80.263V68.0722C410.887 67.6876 411.004 67.38 411.238 67.1492C411.498 66.8928 411.823 66.7646 412.213 66.7646H437.398C437.788 66.7646 438.1 66.8928 438.334 67.1492C438.594 67.38 438.724 67.6876 438.724 68.0722V80.263C438.724 80.6476 438.594 80.9681 438.334 81.2244C438.1 81.4552 437.788 81.5705 437.398 81.5705H433.227C432.473 81.5705 432.031 81.7244 431.901 82.032C431.797 82.3397 432.044 82.7114 432.642 83.1473C434.202 84.2241 435.761 85.1214 437.321 85.8393C438.906 86.5571 440.608 87.1724 442.428 87.6852C443.156 87.8903 443.299 88.3005 442.857 88.9158C442.623 89.2747 442.402 89.6337 442.194 89.9926C441.986 90.3515 441.778 90.7105 441.57 91.0694C441.414 91.4027 441.18 91.6334 440.868 91.7616C440.582 91.8898 440.258 91.8898 439.894 91.7616C438.984 91.377 438.087 90.9797 437.204 90.5694C436.32 90.1592 435.436 89.7234 434.552 89.2619C434.215 89.0568 433.864 88.9543 433.5 88.9543C432.824 88.9543 432.486 89.4414 432.486 90.4156V99.3376C432.486 99.7222 432.356 100.03 432.096 100.261C431.862 100.517 431.55 100.645 431.161 100.645H429.172C428.782 100.645 428.457 100.517 428.197 100.261C427.964 100.03 427.847 99.7222 427.847 99.3376V87.0699C427.847 86.7879 427.938 86.5699 428.12 86.4161C428.301 86.2366 428.535 86.1469 428.821 86.1469C429.419 86.1469 429.484 85.9418 429.016 85.5316C428.418 85.0188 427.834 84.4804 427.262 83.9164C426.69 83.3524 426.17 82.7499 425.702 82.1089C425.442 81.75 425.091 81.5705 424.65 81.5705C424.234 81.5705 423.883 81.75 423.597 82.1089C422.713 83.237 421.726 84.2753 420.634 85.2239C420.27 85.506 420.127 85.7495 420.205 85.9546C420.283 86.1341 420.543 86.2495 420.985 86.3007L421.297 86.3392C422.102 86.4161 422.505 86.852 422.505 87.6467C422.349 90.9027 421.414 93.6204 419.698 95.7996C418.009 97.9788 415.657 99.6837 412.642 100.914C412.226 101.094 411.888 100.991 411.628 100.607ZM416.93 72.7255H421.219C421.583 72.7255 421.882 72.6101 422.115 72.3794C422.349 72.1486 422.466 71.841 422.466 71.4564C422.466 71.0975 422.349 70.8026 422.115 70.5719C421.882 70.3411 421.583 70.2258 421.219 70.2258H416.93C416.54 70.2258 416.228 70.3411 415.994 70.5719C415.761 70.8026 415.644 71.0975 415.644 71.4564C415.644 71.841 415.761 72.1486 415.994 72.3794C416.228 72.6101 416.54 72.7255 416.93 72.7255ZM428.431 72.7255H432.72C433.084 72.7255 433.383 72.6101 433.617 72.3794C433.851 72.1486 433.968 71.841 433.968 71.4564C433.968 71.0975 433.851 70.8026 433.617 70.5719C433.383 70.3411 433.084 70.2258 432.72 70.2258H428.431C428.042 70.2258 427.73 70.3411 427.496 70.5719C427.262 70.8026 427.145 71.0975 427.145 71.4564C427.145 71.841 427.262 72.1486 427.496 72.3794C427.73 72.6101 428.042 72.7255 428.431 72.7255ZM416.93 78.1094H421.219C421.583 78.1094 421.882 77.9941 422.115 77.7633C422.349 77.5326 422.466 77.2249 422.466 76.8403C422.466 76.4814 422.349 76.1866 422.115 75.9558C421.882 75.7251 421.583 75.6097 421.219 75.6097H416.93C416.54 75.6097 416.228 75.7251 415.994 75.9558C415.761 76.1866 415.644 76.4814 415.644 76.8403C415.644 77.2249 415.761 77.5326 415.994 77.7633C416.228 77.9941 416.54 78.1094 416.93 78.1094ZM428.431 78.1094H432.72C433.084 78.1094 433.383 77.9941 433.617 77.7633C433.851 77.5326 433.968 77.2249 433.968 76.8403C433.968 76.4814 433.851 76.1866 433.617 75.9558C433.383 75.7251 433.084 75.6097 432.72 75.6097H428.431C428.042 75.6097 427.73 75.7251 427.496 75.9558C427.262 76.1866 427.145 76.4814 427.145 76.8403C427.145 77.2249 427.262 77.5326 427.496 77.7633C427.73 77.9941 428.042 78.1094 428.431 78.1094Z" fill="#1A8C33"/>
<path d="M373.887 97.9916V81.2629C373.887 80.8783 373.757 80.5706 373.497 80.3399C373.263 80.0835 372.951 79.9553 372.562 79.9553H369.326C368.936 79.9553 368.611 79.84 368.351 79.6092C368.117 79.3528 368 79.0324 368 78.6478V76.9557C368 76.5711 368.117 76.2635 368.351 76.0327C368.611 75.7763 368.936 75.6482 369.326 75.6482H372.562C372.951 75.6482 373.263 75.5328 373.497 75.302C373.757 75.0457 373.887 74.7252 373.887 74.3406V68.8028C373.887 68.4183 374.004 68.1106 374.238 67.8799C374.498 67.6235 374.823 67.4953 375.213 67.4953H377.318C377.708 67.4953 378.02 67.6235 378.254 67.8799C378.514 68.1106 378.644 68.4183 378.644 68.8028V74.3406C378.644 74.7252 378.761 75.0457 378.994 75.302C379.254 75.5328 379.579 75.6482 379.969 75.6482H382.191C382.581 75.6482 382.893 75.5328 383.127 75.302C383.387 75.0457 383.517 74.7252 383.517 74.3406V67.8414C383.517 67.4568 383.634 67.1492 383.868 66.9184C384.128 66.6621 384.453 66.5339 384.843 66.5339H386.714C387.104 66.5339 387.416 66.6621 387.65 66.9184C387.91 67.1492 388.04 67.4568 388.04 67.8414V74.3406C388.04 74.7252 388.156 75.0457 388.39 75.302C388.65 75.5328 388.975 75.6482 389.365 75.6482H391.743C392.133 75.6482 392.445 75.5328 392.679 75.302C392.939 75.0457 393.069 74.7252 393.069 74.3406V68.8028C393.069 68.4183 393.186 68.1106 393.42 67.8799C393.68 67.6235 394.005 67.4953 394.394 67.4953H396.266C396.656 67.4953 396.968 67.6235 397.202 67.8799C397.461 68.1106 397.591 68.4183 397.591 68.8028V74.3406C397.591 74.7252 397.708 75.0457 397.942 75.302C398.202 75.5328 398.527 75.6482 398.917 75.6482H402.348C402.738 75.6482 403.05 75.7763 403.284 76.0327C403.543 76.2635 403.673 76.5711 403.673 76.9557V78.6478C403.673 79.0324 403.543 79.3528 403.284 79.6092C403.05 79.84 402.738 79.9553 402.348 79.9553H398.917C398.527 79.9553 398.202 80.0835 397.942 80.3399C397.708 80.5706 397.591 80.8783 397.591 81.2629V89.7618C397.591 90.1464 397.461 90.4669 397.202 90.7232C396.968 90.954 396.656 91.0694 396.266 91.0694H384.843C384.453 91.0694 384.128 90.954 383.868 90.7232C383.634 90.4669 383.517 90.1464 383.517 89.7618V81.2629C383.517 80.8783 383.387 80.5706 383.127 80.3399C382.893 80.0835 382.581 79.9553 382.191 79.9553H379.969C379.579 79.9553 379.254 80.0835 378.994 80.3399C378.761 80.5706 378.644 80.8783 378.644 81.2629V93.646C378.644 94.0305 378.761 94.351 378.994 94.6074C379.254 94.8381 379.579 94.9535 379.969 94.9535H400.321C400.71 94.9535 401.022 95.0817 401.256 95.3381C401.516 95.5688 401.646 95.8765 401.646 96.261V97.9916C401.646 98.3762 401.516 98.6838 401.256 98.9146C401.022 99.1709 400.71 99.2991 400.321 99.2991H375.213C374.823 99.2991 374.498 99.1709 374.238 98.9146C374.004 98.6838 373.887 98.3762 373.887 97.9916ZM389.365 86.8776H391.743C392.133 86.8776 392.445 86.7622 392.679 86.5314C392.939 86.2751 393.069 85.9546 393.069 85.57V81.2629C393.069 80.8783 392.939 80.5706 392.679 80.3399C392.445 80.0835 392.133 79.9553 391.743 79.9553H389.365C388.975 79.9553 388.65 80.0835 388.39 80.3399C388.156 80.5706 388.04 80.8783 388.04 81.2629V85.57C388.04 85.9546 388.156 86.2751 388.39 86.5314C388.65 86.7622 388.975 86.8776 389.365 86.8776Z" fill="#1A8C33"/>
<path d="M498.685 74.8137V73.2152C498.685 72.8254 498.803 72.5135 499.037 72.2795C499.298 72.0196 499.624 71.8897 500.015 71.8897H506.269C506.66 71.8897 506.973 71.7727 507.207 71.5388C507.468 71.2789 507.598 70.954 507.598 70.5641V66.3925C507.598 66.0026 507.715 65.6907 507.95 65.4568C508.21 65.1969 508.536 65.067 508.927 65.067H511.273C511.663 65.067 511.976 65.1969 512.211 65.4568C512.471 65.6907 512.602 66.0026 512.602 66.3925V70.5641C512.602 70.954 512.719 71.2789 512.953 71.5388C513.214 71.7727 513.54 71.8897 513.931 71.8897H520.654C521.045 71.8897 521.358 72.0196 521.592 72.2795C521.853 72.5135 521.983 72.8254 521.983 73.2152V74.8137C521.983 75.2036 521.853 75.5285 521.592 75.7884C521.358 76.0223 521.045 76.1393 520.654 76.1393H500.015C499.624 76.1393 499.298 76.0223 499.037 75.7884C498.803 75.5285 498.685 75.2036 498.685 74.8137ZM491.649 99.1026V82.1822C491.649 81.8963 491.597 81.7404 491.493 81.7144C491.389 81.6624 491.245 81.7404 491.063 81.9483L490.437 82.6891C490.333 82.819 490.229 82.936 490.125 83.04C490.046 83.1439 489.955 83.2479 489.851 83.3519C489.695 83.5598 489.486 83.6637 489.226 83.6637C488.991 83.6637 488.704 83.5208 488.366 83.2349C488.053 82.949 487.818 82.7281 487.662 82.5721C487.506 82.4422 487.349 82.3382 487.193 82.2602C487.037 82.1563 486.88 82.0523 486.724 81.9483C486.124 81.5584 486.072 81.1166 486.567 80.6228C487.401 79.6871 488.209 78.6474 488.991 77.5038C489.799 76.3342 490.542 75.1256 491.219 73.878C491.923 72.6304 492.548 71.3569 493.096 70.0573C493.669 68.7577 494.151 67.4971 494.542 66.2756C494.672 65.8597 494.881 65.5608 495.167 65.3789C495.48 65.1969 495.845 65.1709 496.262 65.3009L498.021 65.7687C498.412 65.8727 498.685 66.0806 498.842 66.3925C499.024 66.6784 499.05 67.0163 498.92 67.4062C498.633 68.4718 498.268 69.5115 497.825 70.5251C497.382 71.5388 496.926 72.5395 496.457 73.5271C496.353 73.6571 496.301 73.852 496.301 74.1119V99.1026C496.301 99.4925 496.171 99.8044 495.91 100.038C495.675 100.298 495.363 100.428 494.972 100.428H492.978C492.587 100.428 492.262 100.298 492.001 100.038C491.766 99.8044 491.649 99.4925 491.649 99.1026ZM497.825 97.738V96.0616C497.825 95.6717 497.943 95.3598 498.177 95.1259C498.438 94.866 498.764 94.736 499.155 94.736H508.732C509.018 94.736 509.279 94.6581 509.513 94.5021C509.748 94.3202 509.904 94.0863 509.983 93.8004C510.582 92.0589 511.116 90.2915 511.585 88.4981C512.054 86.7047 512.471 84.9113 512.836 83.1179C513.201 81.5844 513.475 80.1289 513.657 78.7514C513.709 78.3355 513.879 78.0236 514.165 77.8157C514.452 77.6078 514.804 77.5428 515.221 77.6208L517.449 77.9716C517.84 78.0496 518.139 78.2316 518.348 78.5175C518.556 78.8034 518.622 79.1413 518.543 79.5311C518.439 79.947 518.348 80.3758 518.27 80.8177C518.192 81.2336 518.087 81.6754 517.957 82.1433C517.592 83.6248 517.227 85.1063 516.862 86.5878C516.498 88.0433 516.107 89.5118 515.69 90.9933C515.455 91.6951 515.26 92.3578 515.103 92.9816C514.921 93.5015 514.947 93.9303 515.182 94.2682C515.416 94.5801 515.82 94.736 516.393 94.736H521.671C522.061 94.736 522.374 94.866 522.609 95.1259C522.869 95.3598 523 95.6717 523 96.0616V97.738C523 98.1279 522.869 98.4398 522.609 98.6737C522.374 98.9336 522.061 99.0636 521.671 99.0636H499.155C498.764 99.0636 498.438 98.9336 498.177 98.6737C497.943 98.4398 497.825 98.1279 497.825 97.738ZM503.806 91.4611C503.52 89.6937 503.103 87.8873 502.555 86.042C502.034 84.1966 501.422 82.4422 500.718 80.7787C500.562 80.3628 500.549 79.986 500.679 79.6481C500.835 79.3102 501.135 79.0763 501.578 78.9463L503.533 78.3225C503.871 78.2186 504.184 78.2316 504.471 78.3615C504.784 78.4915 505.005 78.7384 505.135 79.1023C505.865 80.8697 506.49 82.6761 507.012 84.5215C507.559 86.3409 508.054 88.1862 508.497 90.0576C508.575 90.4215 508.523 90.7334 508.341 90.9933C508.158 91.2532 507.885 91.4352 507.52 91.5391C507.311 91.5911 507.103 91.6431 506.894 91.6951C506.712 91.747 506.517 91.799 506.308 91.851C506.1 91.929 505.904 92.007 505.722 92.0849C505.539 92.1369 505.357 92.1889 505.174 92.2409C504.419 92.4488 503.963 92.1889 503.806 91.4611Z" fill="#1A8C33"/>
<path d="M465.272 64.6597L457.324 72.3782L453.141 67.1698L465.93 56H472.444V100.428H465.272V64.6597Z" fill="#1A8C33"/>
<path d="M277 262C277 317.58 232.228 362.637 177 362.637C121.772 362.637 77 317.58 77 262C77 206.42 121.772 161.363 177 161.363C232.228 161.363 277 206.42 277 262Z" fill="#1A8C33"/>
<path d="M176.901 161.363C196.431 161.363 215.534 167.107 231.858 177.887C248.181 188.667 261.011 204.012 268.767 222.032C276.524 240.052 278.867 259.96 275.509 279.302C272.152 298.645 263.239 316.577 249.87 330.891C236.501 345.204 219.259 355.273 200.269 359.856C181.278 364.44 161.369 363.338 142.994 356.687C124.619 350.036 108.58 338.126 96.8538 322.424C85.1276 306.723 78.2263 287.915 77 268.319L176.901 262V161.363Z" fill="#E6E6E6"/>
<path d="M250.249 261.363C250.249 301.817 217.454 334.611 177 334.611C136.546 334.611 103.752 301.817 103.752 261.363C103.752 220.909 136.546 188.115 177 188.115C217.454 188.115 250.249 220.909 250.249 261.363Z" fill="white"/>
<path d="M203.826 243.567V239.679C203.826 239.438 203.745 239.245 203.584 239.1C203.439 238.939 203.246 238.858 203.005 238.858H193.467C193.225 238.858 193.024 238.786 192.863 238.641C192.718 238.48 192.646 238.279 192.646 238.037V237.699C192.646 237.458 192.718 237.265 192.863 237.12C193.024 236.959 193.225 236.878 193.467 236.878H196.195C196.437 236.878 196.63 236.806 196.775 236.661C196.936 236.5 197.016 236.299 197.016 236.057V231.783C197.016 231.542 197.089 231.349 197.233 231.204C197.394 231.043 197.596 230.962 197.837 230.962H203.005C203.246 230.962 203.439 230.89 203.584 230.745C203.745 230.584 203.826 230.383 203.826 230.141V228.378C203.826 228.137 203.745 227.944 203.584 227.799C203.439 227.638 203.246 227.557 203.005 227.557H198.875C198.57 227.557 198.336 227.686 198.175 227.944C197.66 228.716 197.105 229.457 196.509 230.165C195.93 230.874 195.294 231.534 194.601 232.145C194.489 232.242 194.36 232.29 194.215 232.29C194.054 232.29 193.917 232.234 193.805 232.121L193.394 231.783C193.201 231.606 193.048 231.485 192.935 231.421C192.629 231.196 192.613 230.97 192.887 230.745C194.094 229.731 195.173 228.547 196.123 227.195C197.072 225.843 197.829 224.434 198.393 222.969C198.473 222.744 198.61 222.583 198.803 222.487C198.996 222.374 199.205 222.358 199.431 222.438L200.059 222.631C200.268 222.696 200.413 222.809 200.493 222.969C200.574 223.13 200.574 223.316 200.493 223.525C200.429 223.734 200.34 223.96 200.228 224.201C200.163 224.314 200.107 224.426 200.059 224.539C200.01 224.652 199.962 224.764 199.914 224.877C199.705 225.328 199.841 225.553 200.324 225.553H212.688C212.929 225.553 213.122 225.634 213.267 225.795C213.428 225.94 213.509 226.133 213.509 226.374V226.736C213.509 226.978 213.428 227.179 213.267 227.34C213.122 227.485 212.929 227.557 212.688 227.557H206.941C206.699 227.557 206.498 227.638 206.337 227.799C206.192 227.944 206.12 228.137 206.12 228.378V230.141C206.12 230.383 206.192 230.584 206.337 230.745C206.498 230.89 206.699 230.962 206.941 230.962H211.118C211.359 230.962 211.553 231.043 211.698 231.204C211.859 231.349 211.939 231.542 211.939 231.783V232.097C211.939 232.339 211.859 232.54 211.698 232.701C211.553 232.846 211.359 232.918 211.118 232.918H206.941C206.699 232.918 206.498 232.999 206.337 233.16C206.192 233.304 206.12 233.498 206.12 233.739V236.057C206.12 236.299 206.192 236.5 206.337 236.661C206.498 236.806 206.699 236.878 206.941 236.878H213.726C213.967 236.878 214.161 236.959 214.305 237.12C214.466 237.265 214.547 237.458 214.547 237.699V238.037C214.547 238.279 214.466 238.48 214.305 238.641C214.161 238.786 213.967 238.858 213.726 238.858H206.941C206.699 238.858 206.498 238.939 206.337 239.1C206.192 239.245 206.12 239.438 206.12 239.679V243.567C206.12 243.808 206.039 244.002 205.878 244.146C205.733 244.307 205.54 244.388 205.299 244.388H204.647C204.405 244.388 204.204 244.307 204.043 244.146C203.898 244.002 203.826 243.808 203.826 243.567ZM200.107 236.878H203.005C203.246 236.878 203.439 236.806 203.584 236.661C203.745 236.5 203.826 236.299 203.826 236.057V233.739C203.826 233.498 203.745 233.304 203.584 233.16C203.439 232.999 203.246 232.918 203.005 232.918H200.107C199.865 232.918 199.664 232.999 199.503 233.16C199.358 233.304 199.286 233.498 199.286 233.739V236.057C199.286 236.299 199.358 236.5 199.503 236.661C199.664 236.806 199.865 236.878 200.107 236.878Z" fill="#2E354D"/>
<path d="M189.514 227.702H182.584L182.512 231.976C182.624 231.928 182.785 231.88 182.994 231.831C183.204 231.783 183.413 231.743 183.622 231.711C183.848 231.679 184.065 231.654 184.274 231.638C184.484 231.622 184.661 231.614 184.806 231.614C185.61 231.614 186.335 231.751 186.979 232.025C187.639 232.298 188.202 232.685 188.669 233.184C189.136 233.683 189.49 234.278 189.732 234.971C189.989 235.663 190.118 236.427 190.118 237.265C190.118 238.118 189.957 238.89 189.635 239.583C189.329 240.275 188.902 240.87 188.355 241.37C187.808 241.869 187.172 242.255 186.448 242.529C185.723 242.786 184.942 242.915 184.105 242.915C182.946 242.915 181.9 242.617 180.966 242.022C180.032 241.426 179.364 240.573 178.962 239.462L181.304 238.665C181.61 239.454 182.021 240.025 182.536 240.38C183.051 240.718 183.695 240.887 184.467 240.887C184.918 240.887 185.345 240.806 185.747 240.645C186.166 240.484 186.52 240.259 186.81 239.969C187.116 239.663 187.357 239.293 187.534 238.858C187.711 238.424 187.8 237.933 187.8 237.385C187.8 236.13 187.413 235.196 186.641 234.584C185.884 233.956 184.894 233.642 183.671 233.642C183.236 233.642 182.681 233.723 182.004 233.884C181.344 234.029 180.725 234.246 180.145 234.536L180.338 225.529H189.514V227.702Z" fill="#2E354D"/>
<path d="M171.242 228.185L168.103 231.083L166.751 229.465L171.508 225.529H173.56V242.625H171.242V228.185Z" fill="#2E354D"/>
<path d="M152.128 234.077C152.128 233.449 152.16 232.797 152.225 232.121C152.289 231.445 152.402 230.785 152.563 230.141C152.74 229.481 152.965 228.853 153.239 228.258C153.528 227.662 153.891 227.147 154.325 226.712C154.776 226.262 155.299 225.907 155.895 225.65C156.507 225.376 157.215 225.239 158.02 225.239C158.825 225.239 159.525 225.376 160.121 225.65C160.732 225.907 161.256 226.262 161.69 226.712C162.141 227.147 162.503 227.662 162.777 228.258C163.067 228.853 163.292 229.481 163.453 230.141C163.63 230.785 163.751 231.445 163.815 232.121C163.88 232.797 163.912 233.449 163.912 234.077C163.912 234.979 163.831 235.945 163.67 236.975C163.509 238.005 163.211 238.963 162.777 239.848C162.342 240.734 161.738 241.466 160.966 242.046C160.209 242.625 159.227 242.915 158.02 242.915C156.812 242.915 155.822 242.625 155.05 242.046C154.293 241.466 153.697 240.734 153.263 239.848C152.828 238.963 152.53 238.005 152.369 236.975C152.208 235.945 152.128 234.979 152.128 234.077ZM154.446 234.077C154.446 234.641 154.478 235.309 154.543 236.081C154.623 236.854 154.784 237.603 155.026 238.327C155.267 239.035 155.621 239.639 156.088 240.138C156.571 240.637 157.215 240.887 158.02 240.887C158.825 240.887 159.461 240.637 159.927 240.138C160.41 239.639 160.773 239.035 161.014 238.327C161.256 237.603 161.408 236.854 161.473 236.081C161.553 235.309 161.594 234.641 161.594 234.077C161.594 233.691 161.577 233.256 161.545 232.773C161.529 232.274 161.473 231.775 161.376 231.276C161.296 230.761 161.175 230.27 161.014 229.803C160.853 229.32 160.636 228.894 160.362 228.523C160.105 228.137 159.783 227.831 159.396 227.606C159.01 227.38 158.551 227.268 158.02 227.268C157.489 227.268 157.03 227.38 156.643 227.606C156.257 227.831 155.927 228.137 155.653 228.523C155.396 228.894 155.187 229.32 155.026 229.803C154.865 230.27 154.736 230.761 154.639 231.276C154.559 231.775 154.502 232.274 154.47 232.773C154.454 233.256 154.446 233.691 154.446 234.077Z" fill="#2E354D"/>
<path d="M139 240.162L145.858 233.353C146.099 233.127 146.333 232.886 146.558 232.628C146.783 232.355 146.985 232.073 147.162 231.783C147.339 231.494 147.476 231.188 147.572 230.866C147.685 230.544 147.741 230.206 147.741 229.852C147.741 229.433 147.661 229.055 147.5 228.717C147.355 228.379 147.146 228.097 146.872 227.871C146.614 227.63 146.3 227.445 145.93 227.316C145.576 227.187 145.198 227.123 144.795 227.123C143.958 227.123 143.266 227.356 142.719 227.823C142.171 228.29 141.825 228.934 141.68 229.755L139.169 229.538C139.282 228.781 139.499 228.129 139.821 227.582C140.159 227.018 140.57 226.551 141.053 226.181C141.552 225.811 142.115 225.537 142.743 225.36C143.387 225.183 144.079 225.095 144.819 225.095C145.56 225.095 146.252 225.199 146.896 225.408C147.556 225.602 148.128 225.899 148.611 226.302C149.11 226.688 149.496 227.179 149.77 227.775C150.059 228.354 150.204 229.039 150.204 229.827C150.204 230.391 150.116 230.922 149.939 231.421C149.778 231.904 149.56 232.363 149.287 232.797C149.013 233.232 148.699 233.643 148.345 234.029C147.991 234.415 147.621 234.794 147.234 235.164L141.608 240.597H150.204V242.625H139V240.162Z" fill="#2E354D"/>
<path d="M185.128 261.268L175.991 275.351L176.098 275.459C176.492 275.244 177.012 275.082 177.657 274.975C178.338 274.867 179.001 274.814 179.646 274.814C181.33 274.814 182.871 275.136 184.268 275.781C185.666 276.426 186.866 277.304 187.87 278.415C188.909 279.526 189.697 280.816 190.235 282.285C190.808 283.754 191.095 285.313 191.095 286.961C191.095 288.932 190.754 290.724 190.073 292.337C189.393 293.949 188.443 295.329 187.225 296.475C186.042 297.586 184.609 298.446 182.925 299.056C181.276 299.665 179.484 299.969 177.549 299.969C175.543 299.969 173.715 299.683 172.067 299.109C170.418 298.5 168.985 297.64 167.767 296.529C166.584 295.418 165.652 294.057 164.971 292.444C164.326 290.832 164.004 289.022 164.004 287.015C164.004 285.008 164.326 283.199 164.971 281.586C165.652 279.938 166.512 278.272 167.552 276.587L177.281 261.268H185.128ZM170.777 286.908C170.777 287.875 170.956 288.789 171.314 289.649C171.672 290.473 172.156 291.208 172.765 291.853C173.41 292.462 174.145 292.946 174.969 293.304C175.829 293.662 176.743 293.842 177.711 293.842C178.678 293.842 179.574 293.662 180.398 293.304C181.258 292.946 181.993 292.462 182.602 291.853C183.247 291.208 183.749 290.473 184.107 289.649C184.465 288.789 184.645 287.875 184.645 286.908C184.645 285.94 184.465 285.044 184.107 284.22C183.749 283.36 183.247 282.625 182.602 282.016C181.993 281.371 181.258 280.87 180.398 280.511C179.574 280.153 178.678 279.974 177.711 279.974C176.743 279.974 175.829 280.153 174.969 280.511C174.145 280.87 173.41 281.371 172.765 282.016C172.156 282.625 171.672 283.36 171.314 284.22C170.956 285.044 170.777 285.94 170.777 286.908Z" fill="#1A8C33"/>
<path d="M133 292.498L147.782 278.2C148.212 277.77 148.66 277.322 149.126 276.856C149.591 276.354 150.003 275.835 150.362 275.297C150.756 274.76 151.078 274.204 151.329 273.631C151.58 273.022 151.706 272.395 151.706 271.75C151.706 270.961 151.544 270.263 151.222 269.653C150.935 269.044 150.541 268.525 150.039 268.095C149.538 267.665 148.946 267.342 148.265 267.127C147.62 266.876 146.922 266.751 146.169 266.751C144.557 266.751 143.231 267.217 142.192 268.148C141.152 269.08 140.525 270.334 140.31 271.911L133.538 271.374C133.681 269.618 134.093 268.077 134.774 266.751C135.49 265.389 136.404 264.26 137.515 263.365C138.626 262.469 139.916 261.788 141.385 261.322C142.854 260.856 144.449 260.623 146.169 260.623C147.889 260.623 149.484 260.856 150.953 261.322C152.458 261.752 153.766 262.415 154.877 263.311C155.988 264.171 156.866 265.282 157.511 266.643C158.156 268.005 158.478 269.6 158.478 271.427C158.478 273.828 157.923 275.907 156.812 277.662C155.737 279.383 154.339 281.031 152.619 282.608L140.848 293.519H158.478V299.324H133V292.498Z" fill="#1A8C33"/>
<path d="M209.839 295.089C209.839 294.391 209.971 293.746 210.235 293.155C210.517 292.546 210.894 292.018 211.365 291.57C211.855 291.104 212.41 290.746 213.032 290.495C213.672 290.227 214.36 290.092 215.094 290.092C215.829 290.092 216.507 290.227 217.128 290.495C217.769 290.746 218.325 291.104 218.795 291.57C219.285 292.018 219.662 292.546 219.926 293.155C220.208 293.746 220.349 294.391 220.349 295.089C220.349 295.788 220.208 296.441 219.926 297.05C219.662 297.641 219.285 298.17 218.795 298.635C218.325 299.083 217.769 299.441 217.128 299.71C216.507 299.961 215.829 300.086 215.094 300.086C214.36 300.086 213.672 299.961 213.032 299.71C212.41 299.441 211.855 299.083 211.365 298.635C210.894 298.17 210.517 297.641 210.235 297.05C209.971 296.441 209.839 295.788 209.839 295.089ZM217.637 295.089C217.637 294.408 217.392 293.835 216.902 293.37C216.413 292.904 215.81 292.671 215.094 292.671C214.379 292.671 213.776 292.904 213.286 293.37C212.796 293.835 212.551 294.408 212.551 295.089C212.551 295.77 212.796 296.343 213.286 296.808C213.776 297.274 214.379 297.507 215.094 297.507C215.81 297.507 216.413 297.274 216.902 296.808C217.392 296.343 217.637 295.77 217.637 295.089ZM196.419 285.418C196.419 284.719 196.551 284.074 196.814 283.483C197.097 282.874 197.474 282.346 197.945 281.898C198.434 281.433 198.99 281.075 199.612 280.824C200.252 280.555 200.939 280.421 201.674 280.421C202.409 280.421 203.087 280.555 203.708 280.824C204.349 281.075 204.904 281.433 205.375 281.898C205.865 282.346 206.242 282.874 206.505 283.483C206.788 284.074 206.929 284.719 206.929 285.418C206.929 286.116 206.788 286.77 206.505 287.379C206.242 287.97 205.865 288.498 205.375 288.964C204.904 289.412 204.349 289.77 203.708 290.038C203.087 290.289 202.409 290.415 201.674 290.415C200.939 290.415 200.252 290.289 199.612 290.038C198.99 289.77 198.434 289.412 197.945 288.964C197.474 288.498 197.097 287.97 196.814 287.379C196.551 286.77 196.419 286.116 196.419 285.418ZM204.217 285.418C204.217 284.737 203.972 284.164 203.482 283.698C202.993 283.233 202.39 283 201.674 283C200.958 283 200.356 283.233 199.866 283.698C199.376 284.164 199.131 284.737 199.131 285.418C199.131 286.098 199.376 286.671 199.866 287.137C200.356 287.603 200.958 287.836 201.674 287.836C202.39 287.836 202.993 287.603 203.482 287.137C203.972 286.671 204.217 286.098 204.217 285.418ZM213.117 279.884L215.462 280.904L203.708 300.623L201.363 299.602L213.117 279.884Z" fill="#1A8C33"/>
<circle cx="450" cy="262" r="125" fill="#1A8C33"/>
<path d="M450 137C473.007 137 495.567 143.349 515.197 155.349C534.826 167.349 550.763 184.533 561.252 205.01C571.742 225.486 576.376 248.46 574.646 271.402C572.916 294.343 564.887 316.362 551.445 335.033C538.003 353.705 519.669 368.304 498.462 377.224C477.254 386.143 453.997 389.037 431.25 385.586C408.504 382.135 387.151 372.473 369.544 357.665C351.936 342.857 338.757 323.476 331.458 301.658L450 262V137Z" fill="#E6E6E6"/>
<circle cx="449.523" cy="261.523" r="91.126" fill="white"/>
<path d="M484.508 245.955V241.007C484.508 240.7 484.405 240.454 484.2 240.27C484.016 240.065 483.77 239.962 483.463 239.962H471.323C471.016 239.962 470.76 239.87 470.555 239.686C470.371 239.481 470.278 239.225 470.278 238.917V238.487C470.278 238.18 470.371 237.934 470.555 237.749C470.76 237.545 471.016 237.442 471.323 237.442H474.796C475.103 237.442 475.349 237.35 475.534 237.166C475.738 236.961 475.841 236.705 475.841 236.397V230.958C475.841 230.65 475.933 230.404 476.118 230.22C476.322 230.015 476.579 229.913 476.886 229.913H483.463C483.77 229.913 484.016 229.82 484.2 229.636C484.405 229.431 484.508 229.175 484.508 228.868V226.624C484.508 226.317 484.405 226.071 484.2 225.887C484.016 225.682 483.77 225.579 483.463 225.579H478.207C477.818 225.579 477.521 225.743 477.316 226.071C476.66 227.055 475.954 227.997 475.196 228.898C474.458 229.8 473.649 230.64 472.768 231.419C472.624 231.541 472.46 231.603 472.276 231.603C472.071 231.603 471.897 231.531 471.753 231.388L471.231 230.958C470.985 230.732 470.791 230.579 470.647 230.497C470.258 230.21 470.237 229.923 470.586 229.636C472.122 228.345 473.495 226.839 474.704 225.118C475.913 223.397 476.876 221.605 477.593 219.74C477.695 219.453 477.869 219.248 478.115 219.125C478.361 218.982 478.627 218.962 478.914 219.064L479.713 219.31C479.98 219.392 480.164 219.535 480.266 219.74C480.369 219.945 480.369 220.181 480.266 220.447C480.184 220.713 480.072 221 479.928 221.308C479.846 221.451 479.775 221.594 479.713 221.738C479.652 221.881 479.59 222.025 479.529 222.168C479.262 222.742 479.437 223.029 480.051 223.029H495.786C496.094 223.029 496.34 223.131 496.524 223.336C496.729 223.52 496.831 223.766 496.831 224.073V224.534C496.831 224.842 496.729 225.098 496.524 225.303C496.34 225.487 496.094 225.579 495.786 225.579H488.472C488.165 225.579 487.909 225.682 487.704 225.887C487.519 226.071 487.427 226.317 487.427 226.624V228.868C487.427 229.175 487.519 229.431 487.704 229.636C487.909 229.82 488.165 229.913 488.472 229.913H493.789C494.096 229.913 494.342 230.015 494.526 230.22C494.731 230.404 494.834 230.65 494.834 230.958V231.357C494.834 231.664 494.731 231.921 494.526 232.125C494.342 232.31 494.096 232.402 493.789 232.402H488.472C488.165 232.402 487.909 232.504 487.704 232.709C487.519 232.894 487.427 233.14 487.427 233.447V236.397C487.427 236.705 487.519 236.961 487.704 237.166C487.909 237.35 488.165 237.442 488.472 237.442H497.108C497.415 237.442 497.661 237.545 497.845 237.749C498.05 237.934 498.153 238.18 498.153 238.487V238.917C498.153 239.225 498.05 239.481 497.845 239.686C497.661 239.87 497.415 239.962 497.108 239.962H488.472C488.165 239.962 487.909 240.065 487.704 240.27C487.519 240.454 487.427 240.7 487.427 241.007V245.955C487.427 246.262 487.325 246.508 487.12 246.693C486.935 246.898 486.69 247 486.382 247H485.552C485.245 247 484.989 246.898 484.784 246.693C484.6 246.508 484.508 246.262 484.508 245.955ZM479.775 237.442H483.463C483.77 237.442 484.016 237.35 484.2 237.166C484.405 236.961 484.508 236.705 484.508 236.397V233.447C484.508 233.14 484.405 232.894 484.2 232.709C484.016 232.504 483.77 232.402 483.463 232.402H479.775C479.467 232.402 479.211 232.504 479.006 232.709C478.822 232.894 478.73 233.14 478.73 233.447V236.397C478.73 236.705 478.822 236.961 479.006 237.166C479.211 237.35 479.467 237.442 479.775 237.442Z" fill="#2E354D"/>
<path d="M456.333 239.44C456.682 240.485 457.143 241.263 457.716 241.775C458.311 242.288 459.181 242.544 460.329 242.544C460.902 242.544 461.435 242.452 461.927 242.267C462.439 242.062 462.89 241.796 463.279 241.468C463.668 241.12 463.976 240.71 464.201 240.239C464.426 239.747 464.539 239.204 464.539 238.61C464.539 237.709 464.344 236.991 463.955 236.459C463.586 235.906 463.105 235.496 462.511 235.229C461.917 234.943 461.261 234.758 460.544 234.676C459.827 234.594 459.12 234.553 458.423 234.553V231.972C459.55 231.972 460.472 231.9 461.189 231.757C461.906 231.593 462.47 231.367 462.88 231.081C463.289 230.794 463.576 230.435 463.74 230.005C463.904 229.575 463.986 229.093 463.986 228.56C463.986 227.393 463.638 226.512 462.941 225.917C462.244 225.323 461.374 225.026 460.329 225.026C459.53 225.026 458.802 225.262 458.147 225.733C457.512 226.184 457.03 226.788 456.702 227.546L453.69 226.532C454.264 225.139 455.135 224.114 456.303 223.459C457.491 222.783 458.813 222.445 460.267 222.445C461.148 222.445 461.988 222.568 462.787 222.813C463.607 223.039 464.324 223.397 464.939 223.889C465.553 224.381 466.035 225.006 466.383 225.764C466.752 226.501 466.936 227.372 466.936 228.376C466.936 229.523 466.588 230.548 465.891 231.449C465.215 232.351 464.324 232.965 463.218 233.293V233.355C463.894 233.478 464.498 233.703 465.031 234.031C465.564 234.359 466.014 234.768 466.383 235.26C466.752 235.752 467.028 236.305 467.213 236.92C467.397 237.514 467.489 238.149 467.489 238.825C467.489 239.87 467.285 240.792 466.875 241.591C466.486 242.37 465.953 243.025 465.277 243.558C464.621 244.07 463.853 244.459 462.972 244.726C462.111 244.992 461.199 245.125 460.237 245.125C458.577 245.125 457.112 244.746 455.842 243.988C454.592 243.23 453.721 242.032 453.229 240.393L456.333 239.44Z" fill="#2E354D"/>
<path d="M436.153 241.622L444.881 232.955C445.189 232.668 445.486 232.361 445.773 232.033C446.059 231.685 446.316 231.326 446.541 230.958C446.766 230.589 446.94 230.2 447.063 229.79C447.207 229.38 447.279 228.95 447.279 228.499C447.279 227.966 447.176 227.485 446.971 227.055C446.787 226.624 446.52 226.266 446.172 225.979C445.844 225.672 445.445 225.436 444.974 225.272C444.523 225.108 444.041 225.026 443.529 225.026C442.464 225.026 441.583 225.323 440.886 225.917C440.19 226.512 439.749 227.331 439.565 228.376L436.368 228.099C436.512 227.136 436.788 226.307 437.198 225.61C437.628 224.893 438.151 224.299 438.766 223.828C439.401 223.356 440.118 223.008 440.917 222.783C441.736 222.557 442.617 222.445 443.56 222.445C444.502 222.445 445.383 222.578 446.203 222.844C447.043 223.09 447.77 223.469 448.385 223.981C449.02 224.473 449.512 225.098 449.86 225.856C450.229 226.594 450.413 227.464 450.413 228.468C450.413 229.185 450.301 229.861 450.075 230.497C449.87 231.111 449.594 231.695 449.245 232.248C448.897 232.802 448.498 233.324 448.047 233.816C447.596 234.307 447.125 234.789 446.633 235.26L439.472 242.175H450.413V244.757H436.153V241.622Z" fill="#2E354D"/>
<path d="M418.709 233.877C418.709 233.078 418.75 232.248 418.832 231.388C418.914 230.527 419.057 229.687 419.262 228.868C419.488 228.028 419.774 227.229 420.123 226.471C420.491 225.713 420.952 225.057 421.506 224.504C422.079 223.93 422.745 223.479 423.503 223.152C424.282 222.803 425.183 222.629 426.208 222.629C427.232 222.629 428.123 222.803 428.881 223.152C429.66 223.479 430.326 223.93 430.879 224.504C431.453 225.057 431.914 225.713 432.262 226.471C432.631 227.229 432.918 228.028 433.123 228.868C433.348 229.687 433.502 230.527 433.584 231.388C433.666 232.248 433.707 233.078 433.707 233.877C433.707 235.025 433.604 236.254 433.399 237.565C433.194 238.876 432.815 240.095 432.262 241.222C431.709 242.349 430.941 243.281 429.957 244.019C428.994 244.757 427.744 245.125 426.208 245.125C424.671 245.125 423.411 244.757 422.428 244.019C421.465 243.281 420.707 242.349 420.153 241.222C419.6 240.095 419.221 238.876 419.016 237.565C418.811 236.254 418.709 235.025 418.709 233.877ZM421.659 233.877C421.659 234.594 421.7 235.445 421.782 236.428C421.885 237.411 422.09 238.364 422.397 239.286C422.704 240.188 423.155 240.956 423.749 241.591C424.364 242.226 425.183 242.544 426.208 242.544C427.232 242.544 428.041 242.226 428.636 241.591C429.25 240.956 429.711 240.188 430.019 239.286C430.326 238.364 430.521 237.411 430.603 236.428C430.705 235.445 430.756 234.594 430.756 233.877C430.756 233.386 430.736 232.832 430.695 232.218C430.674 231.583 430.603 230.947 430.48 230.312C430.377 229.657 430.223 229.032 430.019 228.438C429.814 227.823 429.537 227.28 429.189 226.809C428.861 226.317 428.451 225.928 427.96 225.641C427.468 225.354 426.884 225.211 426.208 225.211C425.532 225.211 424.948 225.354 424.456 225.641C423.964 225.928 423.544 226.317 423.196 226.809C422.868 227.28 422.602 227.823 422.397 228.438C422.192 229.032 422.028 229.657 421.905 230.312C421.803 230.947 421.731 231.583 421.69 232.218C421.67 232.832 421.659 233.386 421.659 233.877Z" fill="#2E354D"/>
<path d="M402 241.622L410.728 232.955C411.035 232.668 411.332 232.361 411.619 232.033C411.906 231.685 412.162 231.326 412.388 230.958C412.613 230.589 412.787 230.2 412.91 229.79C413.054 229.38 413.125 228.95 413.125 228.499C413.125 227.966 413.023 227.485 412.818 227.055C412.633 226.624 412.367 226.266 412.019 225.979C411.691 225.672 411.292 225.436 410.82 225.272C410.37 225.108 409.888 225.026 409.376 225.026C408.31 225.026 407.429 225.323 406.733 225.917C406.036 226.512 405.596 227.331 405.411 228.376L402.215 228.099C402.359 227.136 402.635 226.307 403.045 225.61C403.475 224.893 403.998 224.299 404.612 223.828C405.247 223.356 405.965 223.008 406.764 222.783C407.583 222.557 408.464 222.445 409.407 222.445C410.349 222.445 411.23 222.578 412.05 222.844C412.89 223.09 413.617 223.469 414.232 223.981C414.867 224.473 415.358 225.098 415.707 225.856C416.076 226.594 416.26 227.464 416.26 228.468C416.26 229.185 416.147 229.861 415.922 230.497C415.717 231.111 415.44 231.695 415.092 232.248C414.744 232.802 414.344 233.324 413.894 233.816C413.443 234.307 412.972 234.789 412.48 235.26L405.319 242.175H416.26V244.757H402V241.622Z" fill="#2E354D"/>
<path d="M476.355 272.302L468.765 279.321L464.771 274.585L476.982 264.427H483.203V304.829H476.355V272.302Z" fill="#1A8C33"/>
<path d="M448.055 300.835C448.055 299.618 448.492 298.571 449.367 297.696C450.28 296.821 451.364 296.384 452.62 296.384C453.837 296.384 454.903 296.802 455.816 297.639C456.729 298.476 457.185 299.503 457.185 300.721C457.185 301.938 456.729 302.984 455.816 303.859C454.941 304.734 453.875 305.172 452.62 305.172C452.011 305.172 451.422 305.058 450.851 304.83C450.318 304.601 449.843 304.297 449.424 303.917C449.006 303.536 448.663 303.08 448.397 302.547C448.169 302.014 448.055 301.444 448.055 300.835Z" fill="#1A8C33"/>
<path d="M419.249 304.83L428.95 289.878L428.836 289.764C428.418 289.993 427.847 290.164 427.124 290.278C426.439 290.392 425.755 290.449 425.07 290.449C423.282 290.449 421.646 290.107 420.162 289.422C418.679 288.737 417.385 287.805 416.282 286.626C415.217 285.446 414.38 284.077 413.771 282.517C413.2 280.957 412.915 279.302 412.915 277.552C412.915 275.46 413.276 273.558 413.999 271.846C414.722 270.134 415.711 268.688 416.967 267.509C418.26 266.292 419.782 265.359 421.532 264.713C423.32 264.066 425.241 263.743 427.295 263.743C429.388 263.743 431.309 264.066 433.059 264.713C434.847 265.321 436.369 266.215 437.624 267.395C438.918 268.574 439.907 270.02 440.592 271.732C441.314 273.444 441.676 275.365 441.676 277.495C441.676 279.626 441.314 281.566 440.592 283.316C439.907 285.028 439.013 286.778 437.91 288.566L427.581 304.83H419.249ZM434.486 277.609C434.486 276.582 434.295 275.631 433.915 274.756C433.535 273.843 433.002 273.063 432.317 272.417C431.67 271.732 430.891 271.199 429.978 270.819C429.103 270.438 428.151 270.248 427.124 270.248C426.097 270.248 425.127 270.438 424.214 270.819C423.339 271.199 422.559 271.732 421.874 272.417C421.228 273.063 420.714 273.843 420.334 274.756C419.953 275.631 419.763 276.582 419.763 277.609C419.763 278.637 419.953 279.607 420.334 280.52C420.714 281.395 421.228 282.175 421.874 282.859C422.559 283.506 423.339 284.02 424.214 284.4C425.127 284.781 426.097 284.971 427.124 284.971C428.151 284.971 429.103 284.781 429.978 284.4C430.891 284.02 431.67 283.506 432.317 282.859C433.002 282.175 433.535 281.395 433.915 280.52C434.295 279.607 434.486 278.637 434.486 277.609Z" fill="#1A8C33"/>
<path d="M380 297.582L395.693 282.403C396.149 281.946 396.625 281.471 397.12 280.976C397.614 280.444 398.052 279.892 398.432 279.321C398.851 278.751 399.193 278.161 399.459 277.552C399.726 276.906 399.859 276.24 399.859 275.555C399.859 274.718 399.687 273.976 399.345 273.33C399.041 272.683 398.622 272.131 398.09 271.675C397.557 271.218 396.929 270.876 396.207 270.648C395.522 270.381 394.78 270.248 393.981 270.248C392.269 270.248 390.861 270.743 389.758 271.732C388.655 272.721 387.989 274.052 387.761 275.726L380.571 275.156C380.723 273.292 381.16 271.656 381.883 270.248C382.644 268.802 383.614 267.604 384.793 266.653C385.973 265.702 387.342 264.979 388.902 264.484C390.462 263.99 392.155 263.743 393.981 263.743C395.807 263.743 397.5 263.99 399.06 264.484C400.658 264.941 402.046 265.645 403.226 266.596C404.405 267.509 405.337 268.688 406.022 270.134C406.707 271.58 407.049 273.273 407.049 275.213C407.049 277.762 406.459 279.968 405.28 281.832C404.139 283.658 402.655 285.408 400.829 287.082L388.332 298.667H407.049V304.83H380V297.582Z" fill="#1A8C33"/>
<path d="M508.541 299.865C508.541 299.123 508.674 298.438 508.941 297.811C509.226 297.164 509.606 296.603 510.082 296.127C510.577 295.633 511.138 295.252 511.765 294.986C512.412 294.701 513.106 294.558 513.848 294.558C514.59 294.558 515.275 294.701 515.903 294.986C516.549 295.252 517.111 295.633 517.586 296.127C518.081 296.603 518.461 297.164 518.727 297.811C519.013 298.438 519.155 299.123 519.155 299.865C519.155 300.607 519.013 301.301 518.727 301.948C518.461 302.576 518.081 303.137 517.586 303.631C517.111 304.107 516.549 304.487 515.903 304.773C515.275 305.039 514.59 305.172 513.848 305.172C513.106 305.172 512.412 305.039 511.765 304.773C511.138 304.487 510.577 304.107 510.082 303.631C509.606 303.137 509.226 302.576 508.941 301.948C508.674 301.301 508.541 300.607 508.541 299.865ZM516.416 299.865C516.416 299.142 516.169 298.533 515.674 298.039C515.18 297.544 514.571 297.297 513.848 297.297C513.126 297.297 512.517 297.544 512.022 298.039C511.528 298.533 511.28 299.142 511.28 299.865C511.28 300.588 511.528 301.196 512.022 301.691C512.517 302.186 513.126 302.433 513.848 302.433C514.571 302.433 515.18 302.186 515.674 301.691C516.169 301.196 516.416 300.588 516.416 299.865ZM494.988 289.593C494.988 288.851 495.121 288.167 495.388 287.539C495.673 286.892 496.053 286.331 496.529 285.855C497.024 285.361 497.585 284.98 498.212 284.714C498.859 284.429 499.553 284.286 500.295 284.286C501.037 284.286 501.722 284.429 502.35 284.714C502.996 284.98 503.558 285.361 504.033 285.855C504.528 286.331 504.908 286.892 505.174 287.539C505.46 288.167 505.602 288.851 505.602 289.593C505.602 290.335 505.46 291.029 505.174 291.676C504.908 292.304 504.528 292.865 504.033 293.359C503.558 293.835 502.996 294.215 502.35 294.501C501.722 294.767 501.037 294.9 500.295 294.9C499.553 294.9 498.859 294.767 498.212 294.501C497.585 294.215 497.024 293.835 496.529 293.359C496.053 292.865 495.673 292.304 495.388 291.676C495.121 291.029 494.988 290.335 494.988 289.593ZM502.863 289.593C502.863 288.87 502.616 288.262 502.121 287.767C501.627 287.273 501.018 287.025 500.295 287.025C499.573 287.025 498.964 287.273 498.469 287.767C497.975 288.262 497.727 288.87 497.727 289.593C497.727 290.316 497.975 290.925 498.469 291.419C498.964 291.914 499.573 292.161 500.295 292.161C501.018 292.161 501.627 291.914 502.121 291.419C502.616 290.925 502.863 290.316 502.863 289.593ZM511.851 283.715L514.219 284.8L502.35 305.743L499.981 304.658L511.851 283.715Z" fill="#1A8C33"/>
<circle cx="723" cy="262" r="100" fill="#1A8C33"/>
<path d="M723 162C739.445 162 755.636 166.056 770.14 173.808C784.643 181.56 797.011 192.769 806.147 206.443C815.283 220.117 820.907 235.832 822.518 252.198C824.13 268.564 821.681 285.075 815.388 300.268C809.095 315.462 799.152 328.868 786.439 339.301C773.727 349.734 758.638 356.87 742.509 360.079C726.38 363.287 709.709 362.468 693.972 357.694C678.235 352.92 663.918 344.339 652.289 332.711L723 262V162Z" fill="#E6E6E6"/>
<circle cx="722.619" cy="261.618" r="72.9008" fill="white"/>
<path d="M723.807 261C725.44 261 726.963 261.236 728.378 261.707C729.829 262.143 731.081 262.796 732.133 263.666C733.221 264.501 734.074 265.553 734.691 266.823C735.307 268.056 735.616 269.489 735.616 271.121C735.616 273.189 735.126 275.003 734.146 276.563C733.203 278.123 731.752 279.193 729.793 279.774V279.882C730.7 280.064 731.571 280.445 732.405 281.025C733.276 281.569 734.038 282.259 734.691 283.093C735.344 283.891 735.851 284.816 736.214 285.868C736.613 286.92 736.813 288.045 736.813 289.242C736.813 291.165 736.468 292.852 735.779 294.303C735.09 295.718 734.165 296.915 733.004 297.894C731.843 298.874 730.464 299.617 728.868 300.125C727.272 300.597 725.585 300.833 723.807 300.833C721.993 300.833 720.288 300.597 718.692 300.125C717.132 299.617 715.772 298.874 714.611 297.894C713.45 296.915 712.525 295.718 711.836 294.303C711.146 292.852 710.802 291.165 710.802 289.242C710.802 288.045 710.983 286.92 711.346 285.868C711.745 284.816 712.271 283.891 712.924 283.093C713.577 282.259 714.321 281.569 715.155 281.025C716.026 280.445 716.915 280.064 717.821 279.882V279.774C715.862 279.193 714.393 278.123 713.414 276.563C712.471 275.003 711.999 273.189 711.999 271.121C711.999 269.489 712.307 268.056 712.924 266.823C713.541 265.553 714.375 264.501 715.427 263.666C716.515 262.796 717.767 262.143 719.182 261.707C720.633 261.236 722.175 261 723.807 261ZM723.807 266.55C722.139 266.55 720.833 267.058 719.889 268.074C718.982 269.09 718.529 270.323 718.529 271.774C718.529 273.298 719 274.586 719.944 275.638C720.887 276.654 722.175 277.162 723.807 277.162C724.533 277.162 725.204 277.035 725.821 276.781C726.474 276.491 727.036 276.11 727.508 275.638C728.015 275.13 728.396 274.55 728.65 273.897C728.941 273.244 729.086 272.536 729.086 271.774C729.086 270.323 728.578 269.09 727.562 268.074C726.583 267.058 725.331 266.55 723.807 266.55ZM723.807 282.386C722.937 282.386 722.102 282.531 721.304 282.821C720.506 283.111 719.817 283.528 719.236 284.073C718.656 284.617 718.184 285.27 717.821 286.032C717.495 286.757 717.332 287.555 717.332 288.426C717.332 290.276 717.93 291.782 719.127 292.942C720.361 294.067 721.921 294.629 723.807 294.629C725.694 294.629 727.236 294.067 728.433 292.942C729.666 291.782 730.283 290.276 730.283 288.426C730.283 287.555 730.101 286.757 729.739 286.032C729.412 285.27 728.959 284.617 728.378 284.073C727.798 283.528 727.109 283.111 726.31 282.821C725.512 282.531 724.678 282.386 723.807 282.386Z" fill="#1A8C33"/>
<path d="M687.577 277.162H689.264C690.207 277.162 691.114 277.107 691.985 276.998C692.892 276.89 693.69 276.654 694.379 276.291C695.105 275.928 695.685 275.402 696.121 274.713C696.556 274.024 696.774 273.099 696.774 271.938C696.774 270.45 696.266 269.235 695.25 268.292C694.234 267.349 692.91 266.877 691.278 266.877C689.972 266.877 688.793 267.258 687.741 268.02C686.725 268.745 685.981 269.779 685.509 271.121L678.599 269.271C679.034 267.856 679.651 266.623 680.449 265.571C681.247 264.519 682.19 263.666 683.278 263.013C684.367 262.324 685.564 261.816 686.87 261.49C688.176 261.163 689.536 261 690.951 261C692.62 261 694.198 261.218 695.685 261.653C697.173 262.088 698.479 262.741 699.603 263.612C700.728 264.446 701.617 265.517 702.27 266.823C702.959 268.092 703.304 269.58 703.304 271.285C703.304 273.353 702.723 275.203 701.562 276.835C700.401 278.431 698.787 279.483 696.719 279.991V280.1C699.186 280.463 701.054 281.515 702.324 283.256C703.594 284.998 704.229 287.065 704.229 289.46C704.229 291.31 703.866 292.942 703.14 294.357C702.451 295.772 701.508 296.969 700.311 297.949C699.114 298.892 697.717 299.617 696.121 300.125C694.561 300.597 692.928 300.833 691.223 300.833C689.627 300.833 688.121 300.651 686.707 300.289C685.292 299.962 684.004 299.436 682.843 298.711C681.718 297.985 680.739 297.06 679.905 295.935C679.07 294.774 678.435 293.396 678 291.8L684.965 289.95C685.364 291.546 686.072 292.779 687.088 293.65C688.103 294.52 689.482 294.956 691.223 294.956C692.094 294.956 692.91 294.811 693.672 294.52C694.47 294.23 695.159 293.831 695.74 293.323C696.356 292.779 696.828 292.144 697.155 291.419C697.517 290.657 697.699 289.823 697.699 288.916C697.699 287.682 697.427 286.685 696.882 285.923C696.375 285.125 695.703 284.526 694.869 284.127C694.071 283.692 693.164 283.401 692.148 283.256C691.132 283.111 690.135 283.039 689.155 283.039H687.577V277.162Z" fill="#1A8C33"/>
<path d="M756.496 295.397C756.496 294.69 756.63 294.038 756.897 293.439C757.183 292.823 757.564 292.288 758.041 291.835C758.537 291.363 759.099 291.001 759.728 290.747C760.377 290.475 761.073 290.339 761.816 290.339C762.56 290.339 763.247 290.475 763.876 290.747C764.524 291.001 765.087 291.363 765.563 291.835C766.059 292.288 766.44 292.823 766.707 293.439C766.993 294.038 767.136 294.69 767.136 295.397C767.136 296.105 766.993 296.766 766.707 297.383C766.44 297.981 766.059 298.516 765.563 298.987C765.087 299.441 764.524 299.803 763.876 300.075C763.247 300.329 762.56 300.456 761.816 300.456C761.073 300.456 760.377 300.329 759.728 300.075C759.099 299.803 758.537 299.441 758.041 298.987C757.564 298.516 757.183 297.981 756.897 297.383C756.63 296.766 756.496 296.105 756.496 295.397ZM764.391 295.397C764.391 294.708 764.143 294.128 763.647 293.657C763.151 293.185 762.541 292.95 761.816 292.95C761.092 292.95 760.482 293.185 759.986 293.657C759.49 294.128 759.242 294.708 759.242 295.397C759.242 296.086 759.49 296.667 759.986 297.138C760.482 297.609 761.092 297.845 761.816 297.845C762.541 297.845 763.151 297.609 763.647 297.138C764.143 296.667 764.391 296.086 764.391 295.397ZM742.91 285.606C742.91 284.899 743.044 284.247 743.311 283.648C743.597 283.032 743.978 282.497 744.455 282.044C744.95 281.572 745.513 281.21 746.142 280.956C746.791 280.684 747.487 280.548 748.23 280.548C748.974 280.548 749.66 280.684 750.29 280.956C750.938 281.21 751.5 281.572 751.977 282.044C752.473 282.497 752.854 283.032 753.121 283.648C753.407 284.247 753.55 284.899 753.55 285.606C753.55 286.314 753.407 286.975 753.121 287.592C752.854 288.19 752.473 288.725 751.977 289.196C751.5 289.65 750.938 290.012 750.29 290.284C749.66 290.538 748.974 290.665 748.23 290.665C747.487 290.665 746.791 290.538 746.142 290.284C745.513 290.012 744.95 289.65 744.455 289.196C743.978 288.725 743.597 288.19 743.311 287.592C743.044 286.975 742.91 286.314 742.91 285.606ZM750.804 285.606C750.804 284.917 750.557 284.337 750.061 283.866C749.565 283.394 748.955 283.159 748.23 283.159C747.506 283.159 746.895 283.394 746.4 283.866C745.904 284.337 745.656 284.917 745.656 285.606C745.656 286.295 745.904 286.876 746.4 287.347C746.895 287.818 747.506 288.054 748.23 288.054C748.955 288.054 749.565 287.818 750.061 287.347C750.557 286.876 750.804 286.295 750.804 285.606ZM759.814 280.004L762.188 281.037L750.29 301L747.916 299.966L759.814 280.004Z" fill="#1A8C33"/>
<path d="M747.827 244.179V240.291C747.827 240.05 747.746 239.857 747.585 239.712C747.44 239.551 747.247 239.47 747.006 239.47H737.467C737.226 239.47 737.025 239.398 736.864 239.253C736.719 239.092 736.646 238.891 736.646 238.649V238.311C736.646 238.07 736.719 237.877 736.864 237.732C737.025 237.571 737.226 237.49 737.467 237.49H740.196C740.438 237.49 740.631 237.418 740.776 237.273C740.937 237.112 741.017 236.911 741.017 236.669V232.395C741.017 232.154 741.09 231.961 741.234 231.816C741.395 231.655 741.597 231.574 741.838 231.574H747.006C747.247 231.574 747.44 231.502 747.585 231.357C747.746 231.196 747.827 230.995 747.827 230.753V228.99C747.827 228.749 747.746 228.556 747.585 228.411C747.44 228.25 747.247 228.169 747.006 228.169H742.876C742.571 228.169 742.337 228.298 742.176 228.556C741.661 229.329 741.106 230.069 740.51 230.777C739.93 231.486 739.295 232.146 738.602 232.757C738.49 232.854 738.361 232.902 738.216 232.902C738.055 232.902 737.918 232.846 737.806 232.733L737.395 232.395C737.202 232.218 737.049 232.097 736.936 232.033C736.63 231.808 736.614 231.582 736.888 231.357C738.095 230.343 739.174 229.16 740.124 227.807C741.073 226.455 741.83 225.046 742.393 223.582C742.474 223.356 742.611 223.195 742.804 223.099C742.997 222.986 743.206 222.97 743.432 223.05L744.06 223.243C744.269 223.308 744.414 223.421 744.494 223.582C744.575 223.743 744.575 223.928 744.494 224.137C744.43 224.346 744.341 224.572 744.229 224.813C744.164 224.926 744.108 225.038 744.06 225.151C744.011 225.264 743.963 225.376 743.915 225.489C743.705 225.94 743.842 226.165 744.325 226.165H756.689C756.93 226.165 757.123 226.246 757.268 226.407C757.429 226.552 757.51 226.745 757.51 226.986V227.348C757.51 227.59 757.429 227.791 757.268 227.952C757.123 228.097 756.93 228.169 756.689 228.169H750.942C750.7 228.169 750.499 228.25 750.338 228.411C750.193 228.556 750.121 228.749 750.121 228.99V230.753C750.121 230.995 750.193 231.196 750.338 231.357C750.499 231.502 750.7 231.574 750.942 231.574H755.119C755.36 231.574 755.554 231.655 755.699 231.816C755.86 231.961 755.94 232.154 755.94 232.395V232.709C755.94 232.951 755.86 233.152 755.699 233.313C755.554 233.458 755.36 233.53 755.119 233.53H750.942C750.7 233.53 750.499 233.611 750.338 233.772C750.193 233.916 750.121 234.11 750.121 234.351V236.669C750.121 236.911 750.193 237.112 750.338 237.273C750.499 237.418 750.7 237.49 750.942 237.49H757.727C757.968 237.49 758.162 237.571 758.306 237.732C758.467 237.877 758.548 238.07 758.548 238.311V238.649C758.548 238.891 758.467 239.092 758.306 239.253C758.162 239.398 757.968 239.47 757.727 239.47H750.942C750.7 239.47 750.499 239.551 750.338 239.712C750.193 239.857 750.121 240.05 750.121 240.291V244.179C750.121 244.42 750.04 244.614 749.879 244.759C749.734 244.92 749.541 245 749.3 245H748.648C748.406 245 748.205 244.92 748.044 244.759C747.899 244.614 747.827 244.42 747.827 244.179ZM744.108 237.49H747.006C747.247 237.49 747.44 237.418 747.585 237.273C747.746 237.112 747.827 236.911 747.827 236.669V234.351C747.827 234.11 747.746 233.916 747.585 233.772C747.44 233.611 747.247 233.53 747.006 233.53H744.108C743.866 233.53 743.665 233.611 743.504 233.772C743.359 233.916 743.287 234.11 743.287 234.351V236.669C743.287 236.911 743.359 237.112 743.504 237.273C743.665 237.418 743.866 237.49 744.108 237.49Z" fill="#2E354D"/>
<path d="M722.961 234.689C722.961 234.061 722.993 233.409 723.058 232.733C723.122 232.057 723.235 231.397 723.396 230.753C723.573 230.093 723.798 229.465 724.072 228.87C724.361 228.274 724.724 227.759 725.158 227.324C725.609 226.874 726.132 226.519 726.728 226.262C727.34 225.988 728.048 225.851 728.853 225.851C729.658 225.851 730.358 225.988 730.954 226.262C731.565 226.519 732.089 226.874 732.523 227.324C732.974 227.759 733.336 228.274 733.61 228.87C733.9 229.465 734.125 230.093 734.286 230.753C734.463 231.397 734.584 232.057 734.648 232.733C734.713 233.409 734.745 234.061 734.745 234.689C734.745 235.591 734.664 236.557 734.503 237.587C734.342 238.617 734.044 239.575 733.61 240.46C733.175 241.346 732.571 242.078 731.799 242.658C731.042 243.237 730.06 243.527 728.853 243.527C727.645 243.527 726.655 243.237 725.883 242.658C725.126 242.078 724.53 241.346 724.096 240.46C723.661 239.575 723.363 238.617 723.202 237.587C723.041 236.557 722.961 235.591 722.961 234.689ZM725.279 234.689C725.279 235.253 725.311 235.921 725.376 236.693C725.456 237.466 725.617 238.215 725.859 238.939C726.1 239.647 726.454 240.251 726.921 240.75C727.404 241.249 728.048 241.499 728.853 241.499C729.658 241.499 730.294 241.249 730.76 240.75C731.243 240.251 731.606 239.647 731.847 238.939C732.089 238.215 732.241 237.466 732.306 236.693C732.386 235.921 732.427 235.253 732.427 234.689C732.427 234.303 732.41 233.868 732.378 233.385C732.362 232.886 732.306 232.387 732.209 231.888C732.129 231.373 732.008 230.882 731.847 230.415C731.686 229.932 731.469 229.506 731.195 229.135C730.938 228.749 730.616 228.443 730.229 228.218C729.843 227.992 729.384 227.88 728.853 227.88C728.322 227.88 727.863 227.992 727.476 228.218C727.09 228.443 726.76 228.749 726.486 229.135C726.229 229.506 726.02 229.932 725.859 230.415C725.698 230.882 725.569 231.373 725.472 231.888C725.392 232.387 725.335 232.886 725.303 233.385C725.287 233.868 725.279 234.303 725.279 234.689Z" fill="#2E354D"/>
<path d="M714.037 232.757H714.133C714.664 232.5 715.292 232.371 716.017 232.371C716.628 232.371 717.248 232.476 717.876 232.685C718.504 232.894 719.067 233.224 719.566 233.675C720.081 234.11 720.5 234.673 720.822 235.365C721.144 236.041 721.305 236.846 721.305 237.78C721.305 238.73 721.144 239.567 720.822 240.291C720.516 241 720.097 241.595 719.566 242.078C719.035 242.561 718.415 242.923 717.707 243.165C716.999 243.406 716.242 243.527 715.437 243.527C714.632 243.527 713.876 243.398 713.167 243.141C712.459 242.883 711.839 242.513 711.308 242.03C710.777 241.547 710.35 240.967 710.028 240.291C709.722 239.615 709.569 238.859 709.569 238.021C709.569 237.49 709.61 237.007 709.69 236.573C709.771 236.138 709.883 235.728 710.028 235.341C710.189 234.939 710.374 234.552 710.584 234.182C710.793 233.796 711.026 233.393 711.284 232.975L715.606 226.141H718.335L714.037 232.757ZM711.887 237.949C711.887 238.464 711.968 238.939 712.129 239.374C712.306 239.808 712.547 240.187 712.853 240.509C713.175 240.814 713.554 241.056 713.988 241.233C714.423 241.41 714.906 241.499 715.437 241.499C715.968 241.499 716.451 241.41 716.886 241.233C717.321 241.056 717.691 240.814 717.997 240.509C718.319 240.187 718.56 239.808 718.721 239.374C718.898 238.939 718.987 238.464 718.987 237.949C718.987 237.434 718.898 236.959 718.721 236.524C718.56 236.09 718.319 235.719 717.997 235.414C717.691 235.092 717.321 234.842 716.886 234.665C716.451 234.488 715.968 234.399 715.437 234.399C714.906 234.399 714.423 234.488 713.988 234.665C713.554 234.842 713.175 235.092 712.853 235.414C712.547 235.719 712.306 236.09 712.129 236.524C711.968 236.959 711.887 237.434 711.887 237.949Z" fill="#2E354D"/>
<path d="M696.127 234.689C696.127 234.061 696.159 233.409 696.224 232.733C696.288 232.057 696.401 231.397 696.562 230.753C696.739 230.093 696.964 229.465 697.238 228.87C697.527 228.274 697.89 227.759 698.324 227.324C698.775 226.874 699.298 226.519 699.894 226.262C700.506 225.988 701.214 225.851 702.019 225.851C702.824 225.851 703.524 225.988 704.12 226.262C704.731 226.519 705.255 226.874 705.689 227.324C706.14 227.759 706.502 228.274 706.776 228.87C707.066 229.465 707.291 230.093 707.452 230.753C707.629 231.397 707.75 232.057 707.814 232.733C707.879 233.409 707.911 234.061 707.911 234.689C707.911 235.591 707.83 236.557 707.669 237.587C707.508 238.617 707.21 239.575 706.776 240.46C706.341 241.346 705.737 242.078 704.965 242.658C704.208 243.237 703.226 243.527 702.019 243.527C700.811 243.527 699.821 243.237 699.049 242.658C698.292 242.078 697.697 241.346 697.262 240.46C696.827 239.575 696.529 238.617 696.368 237.587C696.207 236.557 696.127 235.591 696.127 234.689ZM698.445 234.689C698.445 235.253 698.477 235.921 698.542 236.693C698.622 237.466 698.783 238.215 699.025 238.939C699.266 239.647 699.62 240.251 700.087 240.75C700.57 241.249 701.214 241.499 702.019 241.499C702.824 241.499 703.46 241.249 703.926 240.75C704.409 240.251 704.772 239.647 705.013 238.939C705.255 238.215 705.407 237.466 705.472 236.693C705.552 235.921 705.593 235.253 705.593 234.689C705.593 234.303 705.577 233.868 705.544 233.385C705.528 232.886 705.472 232.387 705.375 231.888C705.295 231.373 705.174 230.882 705.013 230.415C704.852 229.932 704.635 229.506 704.361 229.135C704.104 228.749 703.782 228.443 703.395 228.218C703.009 227.992 702.55 227.88 702.019 227.88C701.488 227.88 701.029 227.992 700.642 228.218C700.256 228.443 699.926 228.749 699.652 229.135C699.395 229.506 699.186 229.932 699.025 230.415C698.864 230.882 698.735 231.373 698.638 231.888C698.558 232.387 698.501 232.886 698.469 233.385C698.453 233.868 698.445 234.303 698.445 234.689Z" fill="#2E354D"/>
<path d="M683 240.774L689.858 233.965C690.099 233.74 690.333 233.498 690.558 233.24C690.783 232.967 690.985 232.685 691.162 232.395C691.339 232.106 691.476 231.8 691.572 231.478C691.685 231.156 691.741 230.818 691.741 230.464C691.741 230.045 691.661 229.667 691.5 229.329C691.355 228.991 691.146 228.709 690.872 228.484C690.614 228.242 690.3 228.057 689.93 227.928C689.576 227.799 689.198 227.735 688.795 227.735C687.958 227.735 687.266 227.968 686.719 228.435C686.171 228.902 685.825 229.546 685.68 230.367L683.169 230.15C683.282 229.393 683.499 228.741 683.821 228.194C684.159 227.63 684.57 227.163 685.053 226.793C685.552 226.423 686.115 226.149 686.743 225.972C687.387 225.795 688.079 225.707 688.819 225.707C689.56 225.707 690.252 225.811 690.896 226.021C691.556 226.214 692.128 226.512 692.611 226.914C693.11 227.3 693.496 227.791 693.77 228.387C694.059 228.966 694.204 229.651 694.204 230.439C694.204 231.003 694.116 231.534 693.939 232.033C693.778 232.516 693.56 232.975 693.287 233.41C693.013 233.844 692.699 234.255 692.345 234.641C691.991 235.027 691.621 235.406 691.234 235.776L685.608 241.209H694.204V243.237H683V240.774Z" fill="#2E354D"/>
</svg>
