<svg width="24" height="24" viewBox="0 0 24 24" fill="none" xmlns="http://www.w3.org/2000/svg">
<path d="M2.95406 11.2041L9.70406 4.45414C9.91541 4.2428 10.2021 4.12407 10.5009 4.12407C10.7998 4.12407 11.0865 4.2428 11.2978 4.45414C11.5092 4.66549 11.6279 4.95213 11.6279 5.25102C11.6279 5.5499 11.5092 5.83655 11.2978 6.04789L6.46875 10.8751L20.25 10.8751C20.5484 10.8751 20.8345 10.9936 21.0455 11.2046C21.2565 11.4156 21.375 11.7017 21.375 12.0001C21.375 12.2984 21.2565 12.5846 21.0455 12.7956C20.8345 13.0066 20.5484 13.1251 20.25 13.1251L6.46875 13.1251L11.2959 17.9551C11.5073 18.1664 11.626 18.4531 11.626 18.752C11.626 19.0508 11.5073 19.3375 11.2959 19.5488C11.0846 19.7602 10.7979 19.8789 10.4991 19.8789C10.2002 19.8789 9.91353 19.7602 9.70219 19.5488L2.95219 12.7988C2.84729 12.6942 2.7641 12.5698 2.7074 12.4329C2.65069 12.296 2.62159 12.1493 2.62177 12.0011C2.62194 11.8529 2.65139 11.7062 2.70841 11.5695C2.76544 11.4327 2.84892 11.3086 2.95406 11.2041Z" fill="#1A8C33"/>
</svg>
