<svg width="349" height="286" viewBox="0 0 349 286" fill="none" xmlns="http://www.w3.org/2000/svg">
<path d="M349 142.994C349 221.967 284.98 285.987 206.007 285.987C127.033 285.987 63.0131 221.967 63.0131 142.994C63.0131 64.0204 127.033 0 206.007 0C284.98 0 349 64.0204 349 142.994Z" fill="#1A8C33"/>
<path d="M206.006 -3.05176e-05C233.905 -3.05176e-05 261.195 8.16129 284.513 23.4785C307.831 38.7956 326.159 60.5995 337.239 86.2039C348.319 111.808 351.667 140.095 346.871 167.578C342.074 195.062 329.342 220.542 310.244 240.879C291.146 261.217 266.516 275.523 239.388 282.036C212.259 288.549 183.819 286.984 157.569 277.533C131.319 268.083 108.408 251.16 91.6567 228.85C74.9056 206.539 65.0468 179.816 63.2951 151.972L206.006 142.993L206.006 -3.05176e-05Z" fill="#D8F5DE"/>
<path d="M309.704 142.448C309.704 200.02 263.032 246.691 205.46 246.691C147.888 246.691 101.217 200.02 101.217 142.448C101.217 84.8757 147.888 38.2043 205.46 38.2043C263.032 38.2043 309.704 84.8757 309.704 142.448Z" fill="white"/>
<path d="M226.859 86.6715V83.5972C226.859 83.4063 226.795 83.2535 226.668 83.1389C226.553 83.0116 226.401 82.948 226.21 82.948H218.667C218.476 82.948 218.317 82.8907 218.19 82.7761C218.075 82.6488 218.018 82.4897 218.018 82.2988V82.0314C218.018 81.8405 218.075 81.6877 218.19 81.5732C218.317 81.4459 218.476 81.3822 218.667 81.3822H220.825C221.016 81.3822 221.169 81.3249 221.283 81.2104C221.411 81.0831 221.474 80.9239 221.474 80.733V77.3532C221.474 77.1622 221.531 77.0095 221.646 76.8949C221.773 76.7676 221.932 76.704 222.123 76.704H226.21C226.401 76.704 226.553 76.6467 226.668 76.5321C226.795 76.4048 226.859 76.2457 226.859 76.0547V74.6608C226.859 74.4699 226.795 74.3171 226.668 74.2025C226.553 74.0752 226.401 74.0116 226.21 74.0116H222.944C222.703 74.0116 222.518 74.1134 222.391 74.3171C221.983 74.9281 221.544 75.5137 221.073 76.0738C220.615 76.634 220.112 77.1559 219.565 77.6396C219.476 77.716 219.374 77.7542 219.259 77.7542C219.132 77.7542 219.024 77.7096 218.935 77.6205L218.61 77.3532C218.457 77.2132 218.336 77.1177 218.247 77.0668C218.005 76.8886 217.993 76.7103 218.209 76.5321C219.164 75.7301 220.017 74.7945 220.768 73.7252C221.519 72.6559 222.117 71.542 222.563 70.3836C222.626 70.2054 222.734 70.0781 222.887 70.0017C223.04 69.9126 223.205 69.8998 223.384 69.9635L223.88 70.1162C224.046 70.1672 224.16 70.2563 224.224 70.3836C224.287 70.5109 224.287 70.6573 224.224 70.8228C224.173 70.9882 224.103 71.1665 224.014 71.3574C223.963 71.4465 223.918 71.5356 223.88 71.6247C223.842 71.7138 223.804 71.803 223.766 71.8921C223.6 72.2485 223.708 72.4267 224.09 72.4267H233.867C234.058 72.4267 234.21 72.4904 234.325 72.6177C234.452 72.7322 234.516 72.885 234.516 73.0759V73.3624C234.516 73.5533 234.452 73.7124 234.325 73.8397C234.21 73.9543 234.058 74.0116 233.867 74.0116H229.322C229.131 74.0116 228.972 74.0752 228.845 74.2025C228.73 74.3171 228.673 74.4699 228.673 74.6608V76.0547C228.673 76.2457 228.73 76.4048 228.845 76.5321C228.972 76.6467 229.131 76.704 229.322 76.704H232.626C232.817 76.704 232.969 76.7676 233.084 76.8949C233.211 77.0095 233.275 77.1622 233.275 77.3532V77.6014C233.275 77.7924 233.211 77.9515 233.084 78.0788C232.969 78.1934 232.817 78.2506 232.626 78.2506H229.322C229.131 78.2506 228.972 78.3143 228.845 78.4416C228.73 78.5562 228.673 78.7089 228.673 78.8999V80.733C228.673 80.9239 228.73 81.0831 228.845 81.2104C228.972 81.3249 229.131 81.3822 229.322 81.3822H234.688C234.879 81.3822 235.032 81.4459 235.146 81.5732C235.273 81.6877 235.337 81.8405 235.337 82.0314V82.2988C235.337 82.4897 235.273 82.6488 235.146 82.7761C235.032 82.8907 234.879 82.948 234.688 82.948H229.322C229.131 82.948 228.972 83.0116 228.845 83.1389C228.73 83.2535 228.673 83.4063 228.673 83.5972V86.6715C228.673 86.8624 228.609 87.0152 228.482 87.1298C228.367 87.2571 228.215 87.3207 228.024 87.3207H227.508C227.317 87.3207 227.158 87.2571 227.031 87.1298C226.916 87.0152 226.859 86.8624 226.859 86.6715ZM223.918 81.3822H226.21C226.401 81.3822 226.553 81.3249 226.668 81.2104C226.795 81.0831 226.859 80.9239 226.859 80.733V78.8999C226.859 78.7089 226.795 78.5562 226.668 78.4416C226.553 78.3143 226.401 78.2506 226.21 78.2506H223.918C223.727 78.2506 223.568 78.3143 223.441 78.4416C223.326 78.5562 223.269 78.7089 223.269 78.8999V80.733C223.269 80.9239 223.326 81.0831 223.441 81.2104C223.568 81.3249 223.727 81.3822 223.918 81.3822Z" fill="#333333"/>
<path d="M215.542 74.1261H210.062L210.005 77.5059C210.094 77.4677 210.221 77.4295 210.387 77.3913C210.552 77.3532 210.718 77.3213 210.883 77.2959C211.061 77.2704 211.233 77.2513 211.399 77.2386C211.564 77.2259 211.704 77.2195 211.819 77.2195C212.455 77.2195 213.028 77.3277 213.537 77.5441C214.059 77.7605 214.505 78.066 214.874 78.4607C215.243 78.8553 215.523 79.3263 215.714 79.8737C215.918 80.4211 216.02 81.0257 216.02 81.6877C216.02 82.3624 215.892 82.9734 215.638 83.5208C215.396 84.0682 215.059 84.5392 214.626 84.9338C214.193 85.3284 213.69 85.634 213.117 85.8504C212.544 86.054 211.927 86.1559 211.265 86.1559C210.349 86.1559 209.521 85.9204 208.783 85.4494C208.044 84.9784 207.516 84.3037 207.198 83.4253L209.05 82.7952C209.292 83.419 209.617 83.8709 210.024 84.1509C210.431 84.4183 210.94 84.5519 211.552 84.5519C211.908 84.5519 212.245 84.4883 212.564 84.361C212.895 84.2337 213.175 84.0554 213.404 83.8263C213.646 83.5844 213.837 83.2917 213.977 82.9479C214.117 82.6042 214.187 82.216 214.187 81.7832C214.187 80.7902 213.881 80.0519 213.27 79.5682C212.672 79.0717 211.889 78.8235 210.921 78.8235C210.578 78.8235 210.138 78.8871 209.604 79.0144C209.082 79.129 208.592 79.3008 208.134 79.53L208.286 72.4076H215.542V74.1261Z" fill="#333333"/>
<path d="M201.094 74.508L198.611 76.7994L197.542 75.5201L201.304 72.4076H202.927V85.9267H201.094V74.508Z" fill="#333333"/>
<path d="M185.977 79.1672C185.977 78.6707 186.002 78.1552 186.053 77.6205C186.104 77.0858 186.193 76.5639 186.321 76.0547C186.461 75.5328 186.639 75.0363 186.855 74.5653C187.084 74.0943 187.371 73.687 187.715 73.3433C188.071 72.9868 188.485 72.7068 188.956 72.5031C189.44 72.2867 190 72.1785 190.636 72.1785C191.273 72.1785 191.826 72.2867 192.297 72.5031C192.781 72.7068 193.195 72.9868 193.539 73.3433C193.895 73.687 194.181 74.0943 194.398 74.5653C194.627 75.0363 194.805 75.5328 194.932 76.0547C195.072 76.5639 195.168 77.0858 195.219 77.6205C195.27 78.1552 195.295 78.6707 195.295 79.1672C195.295 79.8801 195.232 80.6438 195.104 81.4586C194.977 82.2733 194.742 83.0307 194.398 83.7308C194.054 84.431 193.577 85.0102 192.966 85.4685C192.367 85.9268 191.591 86.1559 190.636 86.1559C189.681 86.1559 188.898 85.9268 188.287 85.4685C187.689 85.0102 187.218 84.431 186.874 83.7308C186.531 83.0307 186.295 82.2733 186.168 81.4586C186.041 80.6438 185.977 79.8801 185.977 79.1672ZM187.81 79.1672C187.81 79.6127 187.836 80.141 187.886 80.7521C187.95 81.3631 188.077 81.955 188.268 82.5279C188.459 83.088 188.739 83.5654 189.109 83.96C189.49 84.3546 190 84.5519 190.636 84.5519C191.273 84.5519 191.775 84.3546 192.145 83.96C192.527 83.5654 192.813 83.088 193.004 82.5279C193.195 81.955 193.316 81.3631 193.367 80.7521C193.43 80.141 193.462 79.6127 193.462 79.1672C193.462 78.8617 193.449 78.518 193.424 78.1361C193.411 77.7414 193.367 77.3468 193.29 76.9522C193.227 76.5448 193.131 76.1566 193.004 75.7874C192.877 75.4055 192.705 75.0682 192.488 74.7754C192.285 74.4698 192.03 74.228 191.725 74.0498C191.419 73.8715 191.056 73.7824 190.636 73.7824C190.216 73.7824 189.853 73.8715 189.548 74.0498C189.242 74.228 188.981 74.4698 188.765 74.7754C188.561 75.0682 188.396 75.4055 188.268 75.7874C188.141 76.1566 188.039 76.5448 187.963 76.9522C187.899 77.3468 187.855 77.7414 187.829 78.1361C187.816 78.518 187.81 78.8617 187.81 79.1672Z" fill="#333333"/>
<path d="M175.596 83.9791L181.019 78.5944C181.21 78.4162 181.394 78.2252 181.573 78.0216C181.751 77.8051 181.91 77.5824 182.05 77.3532C182.19 77.1241 182.298 76.8822 182.375 76.6276C182.464 76.373 182.508 76.1057 182.508 75.8256C182.508 75.4947 182.445 75.1955 182.317 74.9282C182.203 74.6609 182.037 74.4381 181.821 74.2599C181.617 74.0689 181.369 73.9225 181.076 73.8207C180.796 73.7189 180.497 73.6679 180.179 73.6679C179.517 73.6679 178.969 73.8525 178.537 74.2217C178.104 74.5908 177.83 75.1 177.716 75.7493L175.73 75.5774C175.819 74.9791 175.991 74.4635 176.245 74.0307C176.513 73.5852 176.837 73.216 177.219 72.9232C177.614 72.6304 178.059 72.414 178.556 72.274C179.065 72.134 179.612 72.064 180.198 72.064C180.783 72.064 181.331 72.1467 181.84 72.3122C182.362 72.465 182.814 72.7005 183.196 73.0187C183.59 73.3242 183.896 73.7125 184.112 74.1835C184.341 74.6418 184.456 75.1828 184.456 75.8066C184.456 76.2521 184.386 76.6722 184.246 77.0668C184.119 77.4487 183.947 77.8115 183.73 78.1552C183.514 78.4989 183.266 78.8235 182.986 79.1291C182.706 79.4346 182.413 79.7337 182.107 80.0265L177.658 84.3229H184.456V85.9268H175.596V83.9791Z" fill="#333333"/>
<path d="M282.218 139.24V137.215C282.218 137.025 282.154 136.872 282.027 136.757C281.912 136.63 281.759 136.566 281.568 136.566H275.248C275.057 136.566 274.898 136.509 274.771 136.394C274.656 136.267 274.599 136.108 274.599 135.917V135.191C274.599 135 274.656 134.848 274.771 134.733C274.898 134.606 275.057 134.542 275.248 134.542H281.74C282.059 134.542 282.218 134.377 282.218 134.046C282.218 133.74 282.059 133.587 281.74 133.587L279.716 133.702C279.538 133.715 279.385 133.67 279.258 133.568C279.143 133.467 279.073 133.326 279.048 133.148L279.029 132.919C278.965 132.601 278.844 132.442 278.666 132.442C278.552 132.442 278.418 132.499 278.265 132.614C277.985 132.83 277.699 133.046 277.406 133.263C277.113 133.479 276.82 133.683 276.527 133.874C276.413 133.95 276.305 133.988 276.203 133.988C276.012 133.988 275.84 133.893 275.687 133.702L275.134 132.938C275.032 132.811 274.994 132.684 275.019 132.556C275.044 132.429 275.127 132.327 275.267 132.251L275.725 131.983C275.904 131.882 276.088 131.773 276.279 131.659C276.47 131.532 276.667 131.398 276.871 131.258L278.017 130.475C278.144 130.386 278.259 130.303 278.361 130.227C278.462 130.138 278.564 130.061 278.666 129.998C278.819 129.87 278.927 129.902 278.991 130.093L279.086 130.38L279.468 131.277C279.557 131.442 279.532 131.582 279.392 131.697H279.373C279.309 131.748 279.283 131.793 279.296 131.831C279.322 131.856 279.373 131.869 279.449 131.869L279.716 131.85H280.098C280.175 131.837 280.251 131.818 280.327 131.793C280.404 131.767 280.467 131.723 280.518 131.659L281.168 131.048C281.371 130.844 281.365 130.647 281.148 130.456C281.008 130.341 280.862 130.227 280.709 130.112C280.556 129.985 280.391 129.851 280.213 129.711C280.047 129.584 279.895 129.469 279.754 129.367C279.614 129.253 279.474 129.145 279.334 129.043C279.258 128.979 279.156 128.947 279.029 128.947C278.927 128.947 278.844 128.967 278.781 129.005C278.73 129.043 278.672 129.094 278.609 129.157L278.456 129.329C278.443 129.342 278.431 129.355 278.418 129.367C278.405 129.367 278.392 129.38 278.38 129.406L278.112 129.711C278.036 129.8 277.953 129.845 277.864 129.845C277.762 129.845 277.667 129.8 277.578 129.711L277.043 129.177L276.069 128.317C275.993 128.254 275.916 128.196 275.84 128.145C275.776 128.095 275.713 128.044 275.649 127.993C275.382 127.764 275.363 127.528 275.592 127.286L276.184 126.656C276.311 126.529 276.445 126.465 276.585 126.465C276.699 126.465 276.801 126.503 276.89 126.58C276.954 126.631 277.018 126.681 277.081 126.732C277.145 126.771 277.209 126.815 277.272 126.866L278.571 127.935C278.698 128.037 278.819 128.088 278.933 128.088C279.073 128.088 279.201 128.018 279.315 127.878L279.812 127.305C279.901 127.216 279.996 127.203 280.098 127.267L280.442 127.496C280.556 127.585 280.665 127.579 280.767 127.477C280.919 127.286 281.091 127.076 281.282 126.847C281.346 126.771 281.403 126.694 281.454 126.618C281.505 126.541 281.562 126.471 281.626 126.408C281.728 126.268 281.753 126.16 281.702 126.083C281.664 125.994 281.562 125.95 281.397 125.95H275.84C275.649 125.95 275.49 125.892 275.363 125.778C275.248 125.65 275.191 125.491 275.191 125.3V124.727C275.191 124.537 275.248 124.384 275.363 124.269C275.49 124.142 275.649 124.078 275.84 124.078H281.511C281.702 124.078 281.855 124.021 281.969 123.906C282.097 123.779 282.16 123.62 282.16 123.429V123.028C282.16 122.837 282.218 122.684 282.332 122.57C282.46 122.442 282.619 122.379 282.81 122.379H283.974C284.165 122.379 284.318 122.442 284.433 122.57C284.56 122.684 284.624 122.837 284.624 123.028V123.429C284.624 123.62 284.681 123.779 284.796 123.906C284.923 124.021 285.082 124.078 285.273 124.078H290.963C291.154 124.078 291.307 124.142 291.421 124.269C291.549 124.384 291.612 124.537 291.612 124.727V125.3C291.612 125.491 291.549 125.65 291.421 125.778C291.307 125.892 291.154 125.95 290.963 125.95H290.505C290.25 125.95 290.104 126 290.066 126.102C290.028 126.204 290.104 126.338 290.295 126.503L290.505 126.694C290.645 126.809 290.715 126.942 290.715 127.095C290.728 127.235 290.67 127.363 290.543 127.477L290.142 127.897C289.977 128.063 289.811 128.222 289.646 128.375C289.48 128.527 289.315 128.68 289.149 128.833C288.984 128.998 288.812 129.151 288.634 129.291C288.544 129.367 288.436 129.406 288.309 129.406C288.156 129.406 288.023 129.348 287.908 129.234C287.844 129.183 287.781 129.132 287.717 129.081C287.666 129.017 287.609 128.954 287.545 128.89C287.469 128.826 287.399 128.776 287.335 128.737C287.284 128.686 287.227 128.636 287.163 128.585C286.909 128.394 286.902 128.196 287.144 127.993C287.386 127.789 287.615 127.585 287.832 127.382C288.061 127.165 288.284 126.949 288.5 126.732C288.564 126.669 288.621 126.605 288.672 126.541C288.735 126.478 288.799 126.414 288.863 126.351C289.105 126.083 289.047 125.95 288.691 125.95H283.783C283.643 125.95 283.567 125.969 283.554 126.007C283.554 126.045 283.612 126.096 283.726 126.16C283.981 126.312 284.013 126.503 283.822 126.732L282.771 127.974L282.256 128.546C282.154 128.674 282.16 128.788 282.275 128.89L282.638 129.177C282.765 129.253 282.873 129.247 282.962 129.157C283.153 128.941 283.338 128.731 283.516 128.527C283.694 128.324 283.873 128.12 284.051 127.916C284.127 127.814 284.197 127.725 284.261 127.649C284.337 127.56 284.407 127.477 284.471 127.401C284.611 127.21 284.783 127.114 284.986 127.114C285.101 127.114 285.235 127.159 285.387 127.248L285.846 127.573C286.011 127.687 286.107 127.827 286.132 127.993C286.17 128.158 286.119 128.324 285.979 128.489C285.903 128.578 285.827 128.667 285.75 128.756C285.674 128.846 285.585 128.941 285.483 129.043C285.292 129.259 285.088 129.482 284.872 129.711C284.668 129.928 284.458 130.15 284.242 130.38C284.089 130.545 283.936 130.704 283.783 130.857C283.631 131.01 283.484 131.162 283.344 131.315C283.217 131.43 283.166 131.519 283.192 131.582C283.23 131.646 283.332 131.672 283.497 131.659L284.757 131.582C284.948 131.557 284.993 131.468 284.891 131.315L284.757 131.086C284.757 131.073 284.751 131.067 284.738 131.067V131.048L284.719 131.029L284.605 130.857C284.503 130.73 284.528 130.634 284.681 130.57L285.693 130.074C285.833 130.01 285.973 129.998 286.113 130.036C286.266 130.074 286.387 130.157 286.476 130.284C286.527 130.373 286.584 130.462 286.648 130.551C286.711 130.64 286.775 130.736 286.839 130.838C286.864 130.901 286.896 130.959 286.934 131.01C286.972 131.048 287.004 131.099 287.03 131.162L287.412 131.812C287.437 131.875 287.469 131.933 287.507 131.983C287.545 132.022 287.577 132.073 287.602 132.136C287.704 132.302 287.787 132.454 287.851 132.595C287.927 132.735 287.997 132.868 288.061 132.996C288.137 133.174 288.08 133.307 287.889 133.397L287.602 133.511L286.896 133.855C286.82 133.88 286.75 133.912 286.686 133.95C286.635 133.988 286.584 134.02 286.533 134.046C286.393 134.109 286.298 134.078 286.247 133.95L286.17 133.74L286.037 133.473C286.011 133.397 285.96 133.339 285.884 133.301C285.808 133.263 285.725 133.244 285.636 133.244L284.929 133.32C284.687 133.346 284.566 133.479 284.566 133.721V133.95C284.566 134.345 284.764 134.542 285.158 134.542H291.555C291.746 134.542 291.899 134.606 292.013 134.733C292.141 134.848 292.204 135 292.204 135.191V135.917C292.204 136.108 292.141 136.267 292.013 136.394C291.899 136.509 291.746 136.566 291.555 136.566H285.216C285.025 136.566 284.866 136.63 284.738 136.757C284.624 136.872 284.566 137.025 284.566 137.215V139.24C284.566 139.43 284.503 139.583 284.375 139.698C284.261 139.825 284.108 139.889 283.917 139.889H282.867C282.676 139.889 282.517 139.825 282.39 139.698C282.275 139.583 282.218 139.43 282.218 139.24ZM289.989 133.377C289.684 133.123 289.359 132.855 289.015 132.575C288.837 132.435 288.665 132.302 288.5 132.174C288.334 132.047 288.169 131.92 288.003 131.793C287.914 131.729 287.832 131.678 287.755 131.64C287.692 131.589 287.628 131.538 287.564 131.487C287.424 131.398 287.348 131.296 287.335 131.182C287.322 131.054 287.373 130.933 287.488 130.819L288.08 130.15C288.22 130.01 288.379 129.94 288.557 129.94C288.685 129.94 288.805 129.979 288.92 130.055C289.047 130.144 289.175 130.239 289.302 130.341C289.429 130.43 289.563 130.526 289.703 130.628C290.161 130.984 290.6 131.328 291.02 131.659C291.135 131.761 291.243 131.856 291.345 131.945C291.447 132.022 291.542 132.098 291.631 132.174C291.861 132.391 291.867 132.626 291.651 132.881C291.523 132.983 291.402 133.104 291.288 133.244C291.173 133.384 291.065 133.524 290.963 133.664C290.861 133.791 290.753 133.855 290.639 133.855C290.537 133.855 290.416 133.791 290.276 133.664C290.148 133.537 290.053 133.441 289.989 133.377Z" fill="#333333"/>
<path d="M267.057 139.469C266.776 139.469 266.509 139.456 266.255 139.43C266 139.405 265.771 139.341 265.567 139.239C265.376 139.15 265.217 139.01 265.09 138.819C264.975 138.628 264.918 138.361 264.918 138.017V123.41C264.918 123.219 264.975 123.066 265.09 122.952C265.217 122.824 265.376 122.761 265.567 122.761H266.598C266.789 122.761 266.942 122.824 267.057 122.952C267.184 123.066 267.247 123.219 267.247 123.41V127.534C267.247 128.005 267.413 128.241 267.744 128.241C267.884 128.241 268.037 128.196 268.202 128.107C268.431 127.967 268.661 127.827 268.89 127.687C269.132 127.547 269.367 127.401 269.596 127.248C269.863 127.07 270.112 126.904 270.341 126.751C270.57 126.599 270.78 126.446 270.971 126.293C271.111 126.191 271.257 126.14 271.41 126.14C271.601 126.14 271.76 126.217 271.888 126.37L272.69 127.267C272.83 127.432 272.887 127.604 272.861 127.783C272.849 127.948 272.753 128.088 272.575 128.203C271.811 128.75 271.009 129.253 270.169 129.711C269.329 130.157 268.482 130.583 267.629 130.99C267.515 131.041 267.419 131.124 267.343 131.239C267.279 131.341 267.247 131.455 267.247 131.582V136.623C267.247 136.853 267.311 136.999 267.438 137.063C267.578 137.114 267.75 137.139 267.954 137.139H269.825C270.118 137.139 270.347 137.088 270.513 136.986C270.691 136.884 270.825 136.751 270.914 136.585C271.003 136.42 271.066 136.229 271.105 136.012C271.143 135.783 271.175 135.554 271.2 135.325C271.226 135.096 271.347 135.026 271.563 135.115C271.627 135.14 271.684 135.166 271.735 135.191C271.786 135.204 271.843 135.223 271.907 135.249L272.785 135.535L273.148 135.631C273.402 135.72 273.511 135.885 273.472 136.127C273.396 136.636 273.294 137.101 273.167 137.521C273.052 137.928 272.887 138.272 272.67 138.552C272.454 138.845 272.168 139.068 271.811 139.22C271.467 139.386 271.016 139.469 270.455 139.469H267.057ZM255.791 139.201L255.447 137.865C255.383 137.534 255.511 137.336 255.829 137.273L257.165 137.044C257.522 136.98 257.7 136.77 257.7 136.413V123.41C257.7 123.219 257.757 123.066 257.872 122.952C257.999 122.824 258.158 122.761 258.349 122.761H259.4C259.59 122.761 259.743 122.824 259.858 122.952C259.985 123.066 260.049 123.219 260.049 123.41V127.439C260.049 127.63 260.106 127.789 260.221 127.916C260.348 128.031 260.507 128.088 260.698 128.088H263.276C263.467 128.088 263.619 128.152 263.734 128.279C263.861 128.394 263.925 128.546 263.925 128.737V129.749C263.925 129.94 263.861 130.099 263.734 130.227C263.619 130.341 263.467 130.399 263.276 130.399H260.698C260.507 130.399 260.348 130.462 260.221 130.59C260.106 130.704 260.049 130.857 260.049 131.048V135.669C260.049 135.911 260.119 136.089 260.259 136.203C260.412 136.318 260.602 136.35 260.832 136.299L262.359 135.955C262.525 135.917 262.677 135.879 262.817 135.841C262.97 135.802 263.117 135.771 263.257 135.745C263.511 135.681 263.715 135.707 263.868 135.821C264.02 135.936 264.097 136.121 264.097 136.375V137.33C264.097 137.47 264.052 137.597 263.963 137.712C263.887 137.826 263.779 137.903 263.639 137.941C263.193 138.068 262.741 138.196 262.283 138.323C261.837 138.437 261.392 138.546 260.946 138.648L257.261 139.526L256.554 139.679C256.376 139.717 256.217 139.691 256.077 139.602C255.937 139.513 255.842 139.379 255.791 139.201Z" fill="#333333"/>
<path d="M238.128 137.139V125.224C238.128 125.033 238.185 124.88 238.3 124.766C238.427 124.638 238.586 124.575 238.777 124.575H251.647C251.838 124.575 251.991 124.638 252.106 124.766C252.233 124.88 252.296 125.033 252.296 125.224V137.139C252.296 137.33 252.233 137.489 252.106 137.616C251.991 137.731 251.838 137.788 251.647 137.788H238.777C238.586 137.788 238.427 137.731 238.3 137.616C238.185 137.489 238.128 137.33 238.128 137.139ZM241.241 135.592H249.184C249.375 135.592 249.528 135.535 249.642 135.421C249.77 135.293 249.833 135.134 249.833 134.943V127.42C249.833 127.229 249.77 127.076 249.642 126.962C249.528 126.834 249.375 126.771 249.184 126.771H241.241C241.05 126.771 240.89 126.834 240.763 126.962C240.649 127.076 240.591 127.229 240.591 127.42V134.943C240.591 135.134 240.649 135.293 240.763 135.421C240.89 135.535 241.05 135.592 241.241 135.592Z" fill="#333333"/>
<path d="M218.575 139.201C218.384 138.845 218.142 138.514 217.849 138.208C217.582 137.916 217.62 137.68 217.964 137.502C218.957 136.98 219.873 136.382 220.713 135.707C221.553 135.02 222.285 134.262 222.909 133.435C223.533 132.595 224.017 131.678 224.36 130.685C224.717 129.692 224.895 128.616 224.895 127.458V123.429C224.895 123.238 224.952 123.085 225.067 122.971C225.194 122.843 225.353 122.78 225.544 122.78H226.614C226.805 122.78 226.957 122.843 227.072 122.971C227.199 123.085 227.263 123.238 227.263 123.429V126.809C227.263 127.954 227.441 129.056 227.797 130.112C228.167 131.156 228.669 132.13 229.306 133.034C229.955 133.925 230.713 134.733 231.578 135.459C232.444 136.172 233.373 136.77 234.366 137.254C234.735 137.457 234.793 137.718 234.538 138.037C234.474 138.126 234.411 138.215 234.347 138.304C234.296 138.38 234.239 138.469 234.175 138.571C234.111 138.673 234.048 138.769 233.984 138.858C233.921 138.947 233.863 139.036 233.812 139.125C233.672 139.354 233.488 139.469 233.259 139.469C233.131 139.469 232.928 139.386 232.648 139.22C232.38 139.068 232.1 138.883 231.807 138.667C231.515 138.463 231.241 138.259 230.986 138.056C230.732 137.852 230.547 137.706 230.433 137.616C229.732 137.005 229.09 136.343 228.504 135.631C227.918 134.918 227.403 134.154 226.957 133.339C226.715 132.881 226.474 132.652 226.232 132.652C226.003 132.652 225.767 132.887 225.525 133.358C225.232 133.969 224.857 134.568 224.399 135.153C223.953 135.726 223.457 136.273 222.909 136.795C222.375 137.317 221.808 137.801 221.21 138.247C220.611 138.692 220.019 139.087 219.434 139.43C219.332 139.481 219.224 139.507 219.109 139.507C218.88 139.507 218.702 139.405 218.575 139.201Z" fill="#333333"/>
<path d="M208.378 138.247C208.276 138.043 208.174 137.846 208.073 137.655C207.971 137.451 207.856 137.254 207.729 137.063C207.678 136.999 207.627 136.942 207.576 136.891C207.538 136.84 207.5 136.789 207.462 136.738C207.309 136.534 207.353 136.407 207.595 136.356C208.232 136.242 208.843 136.063 209.428 135.822C210.014 135.567 210.536 135.249 210.994 134.867C211.452 134.485 211.822 134.027 212.102 133.492C212.394 132.957 212.56 132.34 212.598 131.64C212.662 130.698 212.49 129.858 212.083 129.119C211.752 128.495 211.306 127.967 210.746 127.534C210.186 127.089 209.562 126.783 208.875 126.618C208.684 126.567 208.525 126.599 208.397 126.713C208.27 126.815 208.194 126.968 208.168 127.172C208.079 127.923 207.952 128.718 207.786 129.558C207.621 130.386 207.404 131.207 207.137 132.022C206.87 132.836 206.539 133.619 206.144 134.37C205.762 135.121 205.304 135.783 204.769 136.356C204.26 136.904 203.757 137.228 203.261 137.33C202.777 137.419 202.255 137.349 201.695 137.12C201.097 136.865 200.6 136.477 200.206 135.955C199.811 135.433 199.524 134.867 199.346 134.256C199.13 133.568 199.041 132.843 199.079 132.079C199.117 131.213 199.283 130.405 199.575 129.654C199.868 128.89 200.256 128.196 200.74 127.573C201.224 126.949 201.797 126.408 202.459 125.95C203.121 125.478 203.853 125.103 204.655 124.823C205.673 124.466 206.8 124.32 208.034 124.384C209.524 124.473 210.829 124.912 211.949 125.701C213.082 126.478 213.935 127.553 214.508 128.928C214.851 129.794 214.991 130.755 214.928 131.812C214.877 132.715 214.692 133.537 214.374 134.275C214.056 135 213.629 135.643 213.095 136.203C212.56 136.764 211.93 137.235 211.204 137.616C210.491 137.998 209.715 138.298 208.875 138.514C208.633 138.578 208.467 138.488 208.378 138.247ZM202.726 134.905C202.879 134.905 203.044 134.816 203.223 134.638C203.413 134.447 203.585 134.23 203.738 133.988C203.904 133.747 204.05 133.505 204.177 133.263C204.317 133.021 204.413 132.843 204.464 132.728C204.833 131.901 205.132 131.054 205.361 130.189C205.59 129.31 205.756 128.425 205.858 127.534C205.883 127.318 205.851 127.152 205.762 127.038C205.673 126.911 205.546 126.847 205.38 126.847C205.266 126.847 205.126 126.885 204.96 126.962C204.795 127.025 204.623 127.108 204.445 127.21C204.279 127.299 204.12 127.401 203.967 127.515C203.814 127.617 203.694 127.7 203.604 127.764C202.879 128.324 202.331 128.979 201.962 129.73C201.593 130.469 201.377 131.29 201.313 132.194C201.288 132.805 201.37 133.32 201.561 133.74C201.599 133.855 201.657 133.982 201.733 134.122C201.809 134.249 201.899 134.37 202 134.485C202.102 134.599 202.21 134.701 202.325 134.79C202.452 134.867 202.586 134.905 202.726 134.905Z" fill="#333333"/>
<path d="M179.316 138.17V137.216C179.316 137.025 179.373 136.872 179.488 136.757C179.615 136.63 179.774 136.566 179.965 136.566H185.503C185.694 136.566 185.846 136.509 185.961 136.395C186.088 136.267 186.152 136.108 186.152 135.917V123.62C186.152 123.429 186.209 123.276 186.324 123.162C186.451 123.034 186.61 122.971 186.801 122.971H187.985C188.176 122.971 188.329 123.034 188.443 123.162C188.571 123.276 188.634 123.429 188.634 123.62V127.974C188.634 128.165 188.691 128.324 188.806 128.451C188.933 128.566 189.092 128.623 189.283 128.623H194.687C194.878 128.623 195.031 128.687 195.146 128.814C195.273 128.928 195.336 129.081 195.336 129.272V130.303C195.336 130.494 195.273 130.653 195.146 130.781C195.031 130.895 194.878 130.952 194.687 130.952H189.283C189.092 130.952 188.933 131.016 188.806 131.143C188.691 131.258 188.634 131.411 188.634 131.602V135.917C188.634 136.108 188.691 136.267 188.806 136.395C188.933 136.509 189.092 136.566 189.283 136.566H195.89C196.081 136.566 196.234 136.63 196.348 136.757C196.476 136.872 196.539 137.025 196.539 137.216V138.17C196.539 138.361 196.476 138.514 196.348 138.629C196.234 138.756 196.081 138.82 195.89 138.82H179.965C179.774 138.82 179.615 138.756 179.488 138.629C179.373 138.514 179.316 138.361 179.316 138.17Z" fill="#333333"/>
<path d="M166.293 139.239C166.268 139.176 166.242 139.119 166.217 139.068C166.191 139.017 166.166 138.959 166.14 138.896C166.039 138.705 165.937 138.514 165.835 138.323C165.733 138.132 165.612 137.954 165.472 137.788C165.319 137.597 165.364 137.47 165.606 137.406C166.637 137.139 167.553 136.827 168.355 136.471C169.157 136.102 169.858 135.65 170.456 135.115C171.054 134.568 171.551 133.918 171.945 133.167C172.34 132.404 172.645 131.5 172.862 130.456C173.129 129.081 173.263 127.401 173.263 125.415V123.773C173.263 123.582 173.32 123.429 173.435 123.314C173.562 123.187 173.721 123.123 173.912 123.123H175.058C175.249 123.123 175.401 123.187 175.516 123.314C175.643 123.429 175.707 123.582 175.707 123.773V125.415C175.707 126.802 175.618 128.184 175.44 129.558C175.274 130.92 174.918 132.244 174.37 133.53C174.294 133.696 174.275 133.855 174.313 134.007C174.351 134.148 174.44 134.268 174.58 134.37C174.72 134.472 174.86 134.587 175 134.714C175.153 134.829 175.306 134.949 175.459 135.077C175.815 135.37 176.165 135.669 176.509 135.974C176.853 136.28 177.19 136.598 177.521 136.929C177.61 137.018 177.648 137.114 177.636 137.215C177.636 137.317 177.591 137.406 177.502 137.483L177.215 137.75C177.088 137.865 176.967 137.979 176.853 138.094C176.751 138.208 176.649 138.329 176.547 138.457C176.445 138.558 176.356 138.667 176.28 138.781C176.127 138.985 175.968 138.985 175.802 138.781C175.713 138.679 175.618 138.571 175.516 138.457C175.414 138.342 175.306 138.221 175.191 138.094C175.013 137.916 174.829 137.731 174.638 137.54C174.459 137.349 174.268 137.152 174.065 136.948C173.95 136.846 173.836 136.744 173.721 136.643C173.607 136.541 173.492 136.439 173.377 136.337C173.25 136.222 173.11 136.165 172.957 136.165C172.779 136.165 172.614 136.242 172.461 136.394C171.672 137.184 170.793 137.82 169.826 138.304C168.858 138.788 167.846 139.182 166.79 139.488C166.688 139.513 166.592 139.5 166.503 139.45C166.414 139.411 166.344 139.341 166.293 139.239ZM160.469 137.235L159.973 136.032C159.845 135.713 159.947 135.51 160.278 135.42L160.775 135.268C160.915 135.23 161.061 135.191 161.214 135.153C161.367 135.102 161.526 135.051 161.691 135C161.984 134.899 162.131 134.689 162.131 134.37V123.811C162.131 123.62 162.188 123.467 162.302 123.353C162.43 123.225 162.589 123.162 162.78 123.162H163.906C164.097 123.162 164.25 123.225 164.365 123.353C164.492 123.467 164.556 123.62 164.556 123.811V133.072C164.556 133.505 164.734 133.721 165.09 133.721C165.192 133.721 165.3 133.702 165.415 133.664C165.72 133.549 166.013 133.435 166.293 133.32C166.586 133.205 166.879 133.091 167.172 132.976C167.35 132.913 167.515 132.849 167.668 132.785C167.833 132.709 167.986 132.639 168.126 132.575C168.254 132.512 168.394 132.48 168.546 132.48C168.877 132.48 169.043 132.703 169.043 133.148V134.103C169.043 134.218 169.011 134.326 168.947 134.428C168.884 134.529 168.801 134.606 168.699 134.657C167.744 135.153 166.751 135.599 165.72 135.993C164.702 136.388 163.69 136.77 162.684 137.139C162.417 137.241 162.162 137.33 161.92 137.406C161.679 137.483 161.449 137.553 161.233 137.616C161.068 137.68 160.915 137.68 160.775 137.616C160.635 137.54 160.533 137.413 160.469 137.235ZM169.673 129.234C169.227 128.674 168.737 128.152 168.203 127.668C167.681 127.172 167.133 126.707 166.561 126.274C166.357 126.134 166.242 125.975 166.217 125.797C166.204 125.606 166.28 125.421 166.446 125.243L167.095 124.556C167.235 124.415 167.394 124.345 167.573 124.345C167.687 124.345 167.802 124.384 167.916 124.46C168.362 124.778 168.795 125.116 169.215 125.472C169.648 125.829 170.068 126.191 170.475 126.56C170.653 126.739 170.819 126.904 170.971 127.057C171.124 127.21 171.264 127.356 171.392 127.496C171.57 127.674 171.551 127.853 171.334 128.031L171.258 128.107L171.124 128.222C171.111 128.247 171.099 128.266 171.086 128.279C171.073 128.279 171.061 128.285 171.048 128.298C170.92 128.413 170.8 128.527 170.685 128.642C170.583 128.756 170.481 128.865 170.379 128.966L170.15 129.253C169.985 129.418 169.826 129.412 169.673 129.234Z" fill="#333333"/>
<path d="M149.375 139.488C149.311 139.424 149.248 139.354 149.184 139.278C149.133 139.201 149.076 139.125 149.012 139.049C148.948 138.972 148.885 138.902 148.821 138.839C148.77 138.775 148.713 138.711 148.649 138.648C148.407 138.418 148.439 138.247 148.745 138.132C149.33 137.877 149.916 137.559 150.502 137.177C151.087 136.783 151.603 136.363 152.048 135.917C152.252 135.726 152.29 135.491 152.163 135.211C151.87 134.523 151.615 133.817 151.399 133.091C151.195 132.365 151.036 131.633 150.922 130.895C150.896 130.73 150.82 130.596 150.692 130.494C150.578 130.392 150.438 130.341 150.272 130.341H144.907C144.716 130.341 144.557 130.405 144.429 130.532C144.315 130.647 144.258 130.8 144.258 130.991V131.907C144.258 132.416 144.245 132.926 144.219 133.435C144.194 133.931 144.137 134.428 144.047 134.924C144.009 135.179 144.035 135.306 144.124 135.306C144.187 135.306 144.277 135.223 144.391 135.058C144.455 134.956 144.518 134.854 144.582 134.752C144.658 134.638 144.735 134.523 144.811 134.409C144.875 134.307 144.932 134.211 144.983 134.122C145.034 134.02 145.085 133.918 145.136 133.817C145.276 133.537 145.48 133.397 145.747 133.397C145.849 133.397 145.951 133.422 146.052 133.473L146.415 133.645C146.555 133.708 146.651 133.81 146.702 133.95C146.753 134.078 146.746 134.211 146.683 134.351C146.568 134.606 146.434 134.86 146.282 135.115C146.142 135.357 145.995 135.599 145.842 135.841C145.779 135.943 145.715 136.038 145.651 136.127C145.601 136.203 145.543 136.286 145.48 136.375C145.403 136.477 145.301 136.528 145.174 136.528C145.098 136.528 145.015 136.496 144.926 136.433C144.875 136.407 144.824 136.375 144.773 136.337C144.722 136.299 144.665 136.261 144.601 136.223C144.538 136.197 144.474 136.172 144.41 136.146C144.359 136.108 144.308 136.076 144.258 136.051C144.156 135.987 144.06 135.981 143.971 136.032C143.882 136.07 143.825 136.146 143.799 136.261C143.659 136.846 143.481 137.406 143.265 137.941C143.061 138.476 142.819 139.01 142.539 139.545C142.437 139.723 142.297 139.761 142.119 139.66C142.068 139.634 142.023 139.609 141.985 139.583C141.947 139.571 141.896 139.551 141.832 139.526L141.107 139.182C141.056 139.157 141.005 139.131 140.954 139.106C140.916 139.093 140.871 139.074 140.82 139.049C140.642 138.985 140.598 138.87 140.687 138.705C141.005 138.17 141.266 137.636 141.47 137.101C141.673 136.566 141.832 136.025 141.947 135.478C142.074 134.93 142.157 134.37 142.195 133.798C142.246 133.212 142.272 132.614 142.272 132.003V129.329C142.272 129.138 142.329 128.986 142.443 128.871C142.571 128.744 142.73 128.68 142.921 128.68H150.349C150.552 128.68 150.642 128.585 150.616 128.394V128.126L150.597 127.84C150.572 127.649 150.47 127.554 150.291 127.554H141.832C141.642 127.554 141.482 127.496 141.355 127.382C141.241 127.254 141.183 127.095 141.183 126.904V126.484C141.183 126.293 141.241 126.14 141.355 126.026C141.482 125.899 141.642 125.835 141.832 125.835H143.685C143.876 125.835 144.028 125.778 144.143 125.663C144.27 125.536 144.334 125.377 144.334 125.186V123.639C144.334 123.448 144.391 123.295 144.506 123.181C144.633 123.053 144.792 122.99 144.983 122.99H145.9C146.091 122.99 146.243 123.053 146.358 123.181C146.485 123.295 146.549 123.448 146.549 123.639V125.186C146.549 125.377 146.606 125.536 146.721 125.663C146.848 125.778 147.007 125.835 147.198 125.835H148.019C148.21 125.835 148.363 125.778 148.477 125.663C148.605 125.536 148.668 125.377 148.668 125.186V122.933C148.668 122.742 148.726 122.589 148.84 122.474C148.968 122.347 149.127 122.283 149.318 122.283H150.291C150.457 122.283 150.591 122.334 150.692 122.436C150.794 122.538 150.845 122.672 150.845 122.837C150.845 123.003 150.896 123.136 150.998 123.238C151.1 123.34 151.233 123.391 151.399 123.391H155.294C155.485 123.391 155.638 123.454 155.753 123.582C155.88 123.696 155.944 123.849 155.944 124.04V124.269C155.944 124.46 155.88 124.619 155.753 124.747C155.638 124.861 155.485 124.918 155.294 124.918H151.304C151.163 124.918 151.049 124.963 150.96 125.052C150.883 125.128 150.845 125.237 150.845 125.377C150.845 125.517 150.883 125.631 150.96 125.72C151.049 125.797 151.163 125.835 151.304 125.835H157.643C157.834 125.835 157.987 125.899 158.101 126.026C158.229 126.14 158.292 126.293 158.292 126.484V126.904C158.292 127.095 158.229 127.254 158.101 127.382C157.987 127.496 157.834 127.554 157.643 127.554H155.829C155.651 127.554 155.625 127.617 155.753 127.744L156.23 128.165C156.332 128.292 156.332 128.406 156.23 128.508C156.115 128.623 156.141 128.68 156.306 128.68H157.127C157.318 128.68 157.471 128.744 157.586 128.871C157.713 128.986 157.777 129.138 157.777 129.329V129.692C157.777 129.883 157.713 130.042 157.586 130.169C157.471 130.284 157.318 130.341 157.127 130.341H153.633C153.417 130.341 153.245 130.411 153.118 130.551C153.003 130.691 152.965 130.87 153.003 131.086C153.13 131.735 153.283 132.372 153.461 132.996C153.538 133.276 153.652 133.416 153.805 133.416C153.945 133.416 154.072 133.301 154.187 133.072C154.48 132.537 154.734 131.958 154.951 131.334C155.052 131.016 155.25 130.857 155.543 130.857C155.632 130.857 155.734 130.876 155.848 130.914L156.555 131.201C156.72 131.264 156.835 131.372 156.898 131.525C156.975 131.665 156.981 131.824 156.917 132.003C156.676 132.626 156.395 133.237 156.077 133.836C155.759 134.434 155.403 135 155.008 135.535C154.932 135.637 154.887 135.758 154.874 135.898C154.874 136.038 154.919 136.165 155.008 136.28C155.326 136.713 155.676 137.063 156.058 137.33C156.134 137.394 156.211 137.419 156.287 137.406C156.376 137.381 156.434 137.324 156.459 137.235C156.485 137.184 156.504 137.133 156.516 137.082C156.542 137.031 156.567 136.974 156.593 136.91L156.86 136.032L156.975 135.631C157.038 135.376 157.185 135.306 157.414 135.421C157.745 135.586 158.076 135.707 158.407 135.783C158.547 135.834 158.649 135.917 158.712 136.032C158.776 136.133 158.795 136.254 158.77 136.394C158.668 136.84 158.528 137.343 158.349 137.903C158.171 138.45 157.968 138.921 157.738 139.316C157.548 139.634 157.287 139.831 156.956 139.908C156.612 139.959 156.243 139.902 155.848 139.736C155.377 139.52 154.944 139.214 154.55 138.819C154.41 138.705 154.282 138.578 154.168 138.438C154.053 138.31 153.939 138.177 153.824 138.037C153.659 137.833 153.48 137.731 153.289 137.731C153.137 137.731 152.977 137.801 152.812 137.941C152.634 138.094 152.449 138.247 152.258 138.399C152.067 138.539 151.876 138.679 151.685 138.819C151.456 138.972 151.214 139.119 150.96 139.259C150.718 139.411 150.47 139.558 150.215 139.698C150.126 139.749 150.024 139.774 149.91 139.774C149.693 139.774 149.515 139.679 149.375 139.488ZM152.984 128.68H153.843C154.047 128.68 154.072 128.616 153.919 128.489L153.709 128.279L153.519 128.126C153.366 128.025 153.359 127.916 153.499 127.802L153.557 127.764C153.697 127.624 153.665 127.554 153.461 127.554H152.946C152.755 127.554 152.659 127.649 152.659 127.84L152.678 128.126V128.394C152.704 128.585 152.806 128.68 152.984 128.68ZM145.785 138.228C145.772 138.087 145.753 137.935 145.728 137.769C145.702 137.68 145.683 137.597 145.671 137.521C145.671 137.445 145.658 137.375 145.632 137.311C145.569 137.056 145.671 136.929 145.938 136.929H146.339C146.543 136.929 146.683 136.897 146.759 136.834C146.848 136.757 146.893 136.617 146.893 136.414V133.416C146.893 133.225 146.829 133.072 146.702 132.957C146.587 132.83 146.434 132.766 146.243 132.766H145.537C145.346 132.766 145.187 132.709 145.059 132.595C144.945 132.467 144.888 132.308 144.888 132.117V131.793C144.888 131.602 144.945 131.449 145.059 131.334C145.187 131.207 145.346 131.143 145.537 131.143H149.948C150.139 131.143 150.291 131.207 150.406 131.334C150.533 131.449 150.597 131.602 150.597 131.793V132.117C150.597 132.308 150.533 132.467 150.406 132.595C150.291 132.709 150.139 132.766 149.948 132.766H149.337C149.146 132.766 148.987 132.83 148.859 132.957C148.745 133.072 148.688 133.225 148.688 133.416V137.063C148.688 137.687 148.516 138.113 148.172 138.342C147.841 138.571 147.389 138.686 146.816 138.686H146.282C146.142 138.686 146.027 138.641 145.938 138.552C145.861 138.476 145.811 138.368 145.785 138.228ZM149.948 136.203C149.922 136.127 149.89 136.051 149.852 135.974C149.814 135.898 149.776 135.809 149.738 135.707L149.222 134.638C149.171 134.561 149.127 134.485 149.088 134.409C149.05 134.332 149.012 134.262 148.974 134.199C148.808 133.931 148.866 133.727 149.146 133.587L149.68 133.339C149.82 133.276 149.954 133.263 150.081 133.301C150.221 133.327 150.33 133.403 150.406 133.53C150.61 133.836 150.794 134.148 150.96 134.466C151.138 134.784 151.31 135.109 151.475 135.44C151.577 135.694 151.501 135.872 151.246 135.974C151.183 136 151.119 136.032 151.055 136.07C150.992 136.095 150.928 136.121 150.864 136.146C150.712 136.223 150.578 136.299 150.463 136.375C150.4 136.426 150.323 136.452 150.234 136.452C150.094 136.452 149.999 136.369 149.948 136.203Z" fill="#333333"/>
<path d="M138.533 126.981H133.091L133.034 129.673C133.212 129.609 133.435 129.565 133.702 129.539C133.982 129.514 134.243 129.501 134.485 129.501C135.147 129.501 135.752 129.609 136.299 129.826C136.859 130.03 137.337 130.329 137.731 130.723C138.126 131.118 138.431 131.589 138.648 132.136C138.877 132.684 138.991 133.301 138.991 133.989C138.991 134.714 138.864 135.37 138.61 135.955C138.368 136.528 138.024 137.018 137.578 137.426C137.146 137.82 136.63 138.126 136.032 138.342C135.433 138.559 134.791 138.667 134.103 138.667C133.021 138.667 132.098 138.412 131.334 137.903C130.583 137.394 130.049 136.617 129.73 135.573L132.136 134.924C132.289 135.408 132.55 135.79 132.919 136.07C133.288 136.35 133.766 136.49 134.351 136.49C134.695 136.49 135.007 136.433 135.287 136.318C135.58 136.204 135.828 136.044 136.032 135.841C136.248 135.624 136.414 135.376 136.528 135.096C136.643 134.816 136.7 134.51 136.7 134.179C136.7 133.708 136.611 133.307 136.433 132.976C136.267 132.646 136.038 132.378 135.745 132.174C135.453 131.958 135.115 131.805 134.733 131.716C134.351 131.614 133.95 131.563 133.53 131.563C133.034 131.563 132.537 131.621 132.041 131.735C131.557 131.85 131.112 132.009 130.704 132.213L130.838 124.918H138.533V126.981Z" fill="#333333"/>
<path d="M125.934 124.918L122.688 129.921L122.726 129.959C122.866 129.883 123.051 129.826 123.28 129.788C123.522 129.749 123.757 129.73 123.987 129.73C124.585 129.73 125.132 129.845 125.629 130.074C126.125 130.303 126.552 130.615 126.908 131.01C127.277 131.404 127.557 131.863 127.748 132.385C127.952 132.906 128.054 133.46 128.054 134.046C128.054 134.746 127.933 135.382 127.691 135.955C127.449 136.528 127.112 137.018 126.679 137.426C126.259 137.82 125.75 138.126 125.151 138.342C124.566 138.559 123.929 138.667 123.242 138.667C122.529 138.667 121.88 138.565 121.294 138.361C120.709 138.145 120.199 137.839 119.767 137.445C119.346 137.05 119.016 136.566 118.774 135.993C118.545 135.421 118.43 134.778 118.43 134.065C118.43 133.352 118.545 132.709 118.774 132.136C119.016 131.551 119.321 130.959 119.69 130.36L123.146 124.918H125.934ZM120.836 134.027C120.836 134.37 120.9 134.695 121.027 135.001C121.154 135.293 121.326 135.554 121.542 135.783C121.772 136 122.033 136.172 122.325 136.299C122.631 136.426 122.955 136.49 123.299 136.49C123.643 136.49 123.961 136.426 124.254 136.299C124.559 136.172 124.82 136 125.037 135.783C125.266 135.554 125.444 135.293 125.571 135.001C125.699 134.695 125.762 134.37 125.762 134.027C125.762 133.683 125.699 133.365 125.571 133.072C125.444 132.766 125.266 132.505 125.037 132.289C124.82 132.06 124.559 131.882 124.254 131.754C123.961 131.627 123.643 131.563 123.299 131.563C122.955 131.563 122.631 131.627 122.325 131.754C122.033 131.882 121.772 132.06 121.542 132.289C121.326 132.505 121.154 132.766 121.027 133.072C120.9 133.365 120.836 133.683 120.836 134.027Z" fill="#333333"/>
<path d="M263.07 116.135C261.53 116.135 260.403 115.842 259.69 115.256C258.965 114.684 258.602 113.977 258.602 113.137C258.602 112.73 258.678 112.367 258.831 112.049C258.984 111.73 259.187 111.463 259.442 111.247C259.709 111.017 260.015 110.846 260.359 110.731C260.702 110.604 261.065 110.54 261.447 110.54C262.223 110.54 262.885 110.744 263.433 111.151C263.98 111.558 264.381 112.125 264.636 112.851C264.75 113.169 264.922 113.328 265.151 113.328C265.304 113.328 265.463 113.239 265.629 113.061C265.807 112.87 265.934 112.717 266.011 112.602C266.303 112.157 266.45 111.622 266.45 110.998C266.45 110.553 266.367 110.158 266.202 109.814C266.036 109.458 265.813 109.159 265.533 108.917C265.253 108.675 264.929 108.497 264.559 108.382C264.19 108.255 263.796 108.191 263.375 108.191C262.624 108.191 261.924 108.28 261.275 108.459C260.639 108.637 260.028 108.974 259.442 109.471L258.544 110.254C258.443 110.343 258.341 110.432 258.239 110.521C258.137 110.597 258.035 110.674 257.933 110.75C257.806 110.852 257.679 110.903 257.552 110.903C257.373 110.903 257.214 110.826 257.074 110.674L256.463 110.024C256.298 109.846 256.228 109.668 256.253 109.49C256.279 109.299 256.393 109.133 256.597 108.993C257.131 108.662 257.673 108.274 258.22 107.829C258.767 107.383 259.302 106.906 259.824 106.396C260.359 105.887 260.861 105.372 261.332 104.85C261.816 104.315 262.255 103.793 262.65 103.284C262.828 103.068 262.879 102.908 262.803 102.807C262.739 102.705 262.574 102.686 262.306 102.749C261.861 102.838 261.409 102.921 260.95 102.998C260.492 103.074 260.034 103.144 259.576 103.208C259.397 103.233 259.232 103.252 259.079 103.265C258.926 103.278 258.78 103.297 258.64 103.322C258.462 103.335 258.309 103.297 258.182 103.208C258.067 103.106 257.991 102.972 257.953 102.807L257.762 101.814C257.698 101.406 257.876 101.203 258.296 101.203C258.398 101.203 258.5 101.203 258.602 101.203C258.704 101.19 258.818 101.177 258.945 101.164C259.786 101.139 260.613 101.075 261.428 100.974C262.255 100.859 263.076 100.713 263.891 100.534C264.133 100.496 264.349 100.445 264.54 100.382C264.782 100.292 264.999 100.318 265.189 100.458L266.125 101.069C266.265 101.171 266.354 101.298 266.392 101.451C266.443 101.604 266.424 101.756 266.335 101.909C265.839 102.749 265.272 103.551 264.636 104.315C263.999 105.079 263.337 105.811 262.65 106.511C262.51 106.651 262.542 106.696 262.745 106.645C262.809 106.619 262.866 106.6 262.917 106.587C262.981 106.575 263.045 106.556 263.108 106.53C263.35 106.479 263.611 106.454 263.891 106.454C264.604 106.454 265.26 106.556 265.858 106.759C266.469 106.963 266.991 107.262 267.424 107.657C267.869 108.039 268.219 108.51 268.474 109.07C268.728 109.63 268.856 110.273 268.856 110.998C268.856 111.826 268.697 112.558 268.378 113.194C268.06 113.831 267.634 114.372 267.099 114.817C266.564 115.25 265.947 115.575 265.247 115.791C264.559 116.02 263.834 116.135 263.07 116.135ZM262.822 113.977C262.745 113.544 262.599 113.175 262.383 112.87C262.128 112.577 261.816 112.43 261.447 112.43C261.256 112.43 261.084 112.481 260.931 112.583C260.791 112.672 260.721 112.825 260.721 113.041C260.721 113.245 260.791 113.411 260.931 113.538C261.071 113.665 261.237 113.761 261.428 113.824C261.619 113.888 261.816 113.933 262.02 113.958C262.236 113.983 262.414 114.003 262.554 114.015H262.631L262.65 114.034H262.764C262.803 114.034 262.822 114.015 262.822 113.977Z" fill="#333333"/>
<path d="M244.108 115.333C244.07 115.244 244.026 115.161 243.975 115.085C243.936 114.995 243.892 114.9 243.841 114.798C243.777 114.696 243.72 114.601 243.669 114.512C243.618 114.423 243.561 114.34 243.497 114.264C243.268 113.933 243.344 113.748 243.726 113.71C244.376 113.646 244.999 113.519 245.598 113.328C246.196 113.137 246.724 112.863 247.183 112.507C247.641 112.15 248.004 111.711 248.271 111.189C248.551 110.667 248.691 110.037 248.691 109.299C248.691 108.573 248.494 107.937 248.099 107.389C247.704 106.829 247.176 106.409 246.514 106.129C246.349 106.065 246.196 106.065 246.056 106.129C245.916 106.193 245.808 106.301 245.731 106.454C245.477 106.988 245.203 107.51 244.91 108.019C244.617 108.516 244.312 109 243.994 109.471C243.892 109.636 243.854 109.802 243.879 109.967C243.905 110.133 244 110.266 244.166 110.368C244.178 110.368 244.185 110.375 244.185 110.387L244.223 110.406L244.242 110.425C244.522 110.591 244.554 110.807 244.337 111.075C244.274 111.138 244.21 111.208 244.146 111.285C244.096 111.348 244.038 111.418 243.975 111.495C243.886 111.622 243.803 111.743 243.726 111.858C243.663 111.959 243.599 112.061 243.535 112.163C243.434 112.341 243.287 112.379 243.096 112.278L242.523 111.915C242.332 111.788 242.161 111.807 242.008 111.972C241.308 112.71 240.595 113.296 239.869 113.729C239.169 114.149 238.507 114.346 237.883 114.321C237.501 114.308 237.177 114.225 236.91 114.073C236.642 113.92 236.426 113.716 236.26 113.462C236.108 113.207 235.993 112.921 235.917 112.602C235.853 112.284 235.821 111.953 235.821 111.609C235.821 110.718 235.993 109.872 236.337 109.07C236.693 108.268 237.158 107.529 237.731 106.855C237.832 106.753 237.89 106.632 237.902 106.492C237.915 106.352 237.89 106.218 237.826 106.091C237.571 105.582 237.33 105.073 237.1 104.563C236.871 104.041 236.668 103.513 236.489 102.978C236.426 102.8 236.426 102.641 236.489 102.501C236.566 102.348 236.687 102.24 236.852 102.176L237.559 101.909C237.661 101.858 237.762 101.833 237.864 101.833C238.17 101.833 238.373 102.017 238.475 102.387C238.577 102.756 238.698 103.125 238.838 103.494C238.978 103.863 239.137 104.22 239.315 104.563C239.456 104.818 239.64 104.945 239.869 104.945C239.997 104.945 240.124 104.907 240.251 104.831C240.837 104.5 241.454 104.245 242.103 104.067C242.753 103.876 243.421 103.78 244.108 103.78H244.318C244.471 103.78 244.567 103.717 244.605 103.589C244.745 103.157 244.878 102.724 245.006 102.291C245.133 101.858 245.235 101.419 245.311 100.973C245.349 100.757 245.445 100.598 245.598 100.496C245.75 100.394 245.935 100.369 246.151 100.42L247.106 100.668C247.284 100.719 247.418 100.814 247.507 100.954C247.596 101.094 247.622 101.254 247.584 101.432C247.507 101.775 247.418 102.119 247.316 102.463C247.214 102.807 247.106 103.144 246.992 103.475C246.915 103.679 246.915 103.863 246.992 104.029C247.068 104.181 247.208 104.296 247.412 104.372C247.946 104.589 248.43 104.856 248.863 105.174C249.308 105.493 249.684 105.862 249.989 106.282C250.308 106.702 250.556 107.167 250.734 107.676C250.912 108.172 251.002 108.713 251.002 109.299C251.002 110.254 250.842 111.1 250.524 111.838C250.206 112.564 249.773 113.194 249.226 113.729C248.678 114.264 248.029 114.703 247.278 115.046C246.54 115.377 245.738 115.619 244.872 115.772C244.694 115.81 244.535 115.785 244.395 115.696C244.267 115.607 244.172 115.486 244.108 115.333ZM242.504 107.905C242.657 107.663 242.797 107.421 242.924 107.179C243.064 106.937 243.204 106.689 243.344 106.435C243.459 106.218 243.472 106.053 243.383 105.938C243.306 105.811 243.147 105.773 242.905 105.824C242.6 105.887 242.307 105.983 242.027 106.11C241.747 106.225 241.467 106.358 241.187 106.511C241.021 106.613 240.926 106.747 240.9 106.912C240.875 107.065 240.919 107.218 241.034 107.37C241.059 107.396 241.079 107.421 241.091 107.447C241.104 107.472 241.123 107.498 241.149 107.523L241.397 107.829C241.422 107.854 241.441 107.879 241.454 107.905C241.467 107.93 241.486 107.956 241.511 107.981C241.664 108.16 241.83 108.249 242.008 108.249C242.212 108.249 242.377 108.134 242.504 107.905ZM240.366 110.769C240.48 110.642 240.538 110.502 240.538 110.349C240.538 110.196 240.48 110.05 240.366 109.91C240.213 109.732 240.06 109.541 239.907 109.337L239.506 108.821C239.392 108.656 239.258 108.573 239.105 108.573C238.953 108.573 238.832 108.656 238.743 108.821C238.475 109.203 238.259 109.643 238.093 110.139C237.941 110.623 237.864 111.1 237.864 111.571C237.864 111.953 237.998 112.144 238.265 112.144C238.418 112.144 238.596 112.093 238.8 111.991C239.004 111.877 239.207 111.749 239.411 111.609C239.615 111.457 239.799 111.304 239.965 111.151C240.143 110.998 240.277 110.871 240.366 110.769Z" fill="#333333"/>
<path d="M217.547 116.077V108.707C217.547 108.516 217.604 108.363 217.719 108.249C217.846 108.121 218.005 108.058 218.196 108.058H221.92C222.111 108.058 222.264 108 222.378 107.886C222.505 107.758 222.569 107.599 222.569 107.408V100.21C222.569 100.019 222.626 99.8659 222.741 99.7514C222.868 99.6241 223.027 99.5604 223.218 99.5604H224.44C224.631 99.5604 224.784 99.6241 224.899 99.7514C225.026 99.8659 225.09 100.019 225.09 100.21V102.196C225.09 102.386 225.147 102.546 225.261 102.673C225.389 102.787 225.548 102.845 225.739 102.845H231.906C232.097 102.845 232.25 102.908 232.365 103.036C232.492 103.15 232.556 103.303 232.556 103.494V104.372C232.556 104.563 232.492 104.722 232.365 104.85C232.25 104.964 232.097 105.022 231.906 105.022H225.739C225.548 105.022 225.389 105.085 225.261 105.212C225.147 105.327 225.09 105.48 225.09 105.671V107.408C225.09 107.599 225.147 107.758 225.261 107.886C225.389 108 225.548 108.058 225.739 108.058H230.417C230.608 108.058 230.761 108.121 230.875 108.249C231.003 108.363 231.066 108.516 231.066 108.707V116.077C231.066 116.268 231.003 116.421 230.875 116.536C230.761 116.663 230.608 116.727 230.417 116.727H218.196C218.005 116.727 217.846 116.663 217.719 116.536C217.604 116.421 217.547 116.268 217.547 116.077ZM220.66 114.626H227.954C228.145 114.626 228.298 114.569 228.412 114.454C228.539 114.327 228.603 114.168 228.603 113.977V110.807C228.603 110.616 228.539 110.464 228.412 110.349C228.298 110.222 228.145 110.158 227.954 110.158H220.66C220.469 110.158 220.31 110.222 220.182 110.349C220.068 110.464 220.01 110.616 220.01 110.807V113.977C220.01 114.168 220.068 114.327 220.182 114.454C220.31 114.569 220.469 114.626 220.66 114.626Z" fill="#333333"/>
<path d="M198.491 115.008C198.427 114.372 198.376 113.748 198.338 113.137C198.313 112.513 198.294 111.883 198.281 111.246C198.268 110.355 198.268 109.432 198.281 108.478C198.306 107.358 198.351 106.237 198.414 105.117C198.478 103.984 198.612 102.87 198.815 101.775C198.854 101.597 198.943 101.464 199.083 101.374C199.223 101.285 199.382 101.26 199.56 101.298L200.477 101.47C200.693 101.521 200.846 101.623 200.935 101.775C201.024 101.915 201.05 102.094 201.011 102.31C200.897 102.781 200.801 103.278 200.725 103.799C200.661 104.321 200.61 104.85 200.572 105.384C200.534 105.906 200.509 106.435 200.496 106.969C200.483 107.491 200.47 108 200.458 108.497C200.432 109.413 200.432 110.304 200.458 111.17C200.47 111.743 200.496 112.309 200.534 112.87C200.585 113.417 200.642 113.977 200.706 114.55C200.744 114.754 200.712 114.932 200.61 115.085C200.521 115.225 200.375 115.314 200.171 115.352L199.236 115.524C199.045 115.562 198.879 115.536 198.739 115.447C198.599 115.346 198.516 115.199 198.491 115.008ZM203.799 104.735L203.742 103.742C203.729 103.5 203.786 103.316 203.914 103.188C204.054 103.061 204.245 103.01 204.487 103.036C204.639 103.048 204.799 103.061 204.964 103.074C205.129 103.074 205.301 103.074 205.48 103.074C205.836 103.087 206.192 103.093 206.549 103.093C206.918 103.08 207.294 103.061 207.675 103.036C208.427 103.01 209.152 102.953 209.852 102.864C210.005 102.851 210.151 102.838 210.291 102.826C210.431 102.8 210.572 102.775 210.712 102.749C210.966 102.698 211.17 102.737 211.323 102.864C211.475 102.978 211.545 103.169 211.533 103.437L211.494 104.353C211.482 104.506 211.424 104.64 211.323 104.754C211.233 104.856 211.113 104.92 210.96 104.945C210.069 105.085 209.171 105.187 208.267 105.251C207.364 105.302 206.46 105.327 205.556 105.327C205.136 105.34 204.754 105.34 204.41 105.327C204.232 105.327 204.086 105.276 203.971 105.174C203.869 105.06 203.812 104.913 203.799 104.735ZM206.702 114.626C204.499 114.563 203.252 113.843 202.959 112.469C202.883 112.15 202.857 111.768 202.883 111.323C202.908 111.056 202.946 110.782 202.997 110.502C203.048 110.324 203.144 110.196 203.284 110.12C203.424 110.044 203.583 110.031 203.761 110.082L204.849 110.349C205.04 110.387 205.117 110.521 205.079 110.75C205.053 110.814 205.04 110.871 205.04 110.922C205.04 110.973 205.04 111.024 205.04 111.075C205.028 111.266 205.047 111.437 205.098 111.59C205.276 112.048 205.951 112.297 207.122 112.335C207.414 112.348 207.714 112.348 208.019 112.335C208.325 112.309 208.643 112.284 208.974 112.259C209.534 112.208 210.075 112.138 210.597 112.048C211.132 111.959 211.666 111.851 212.201 111.724C212.43 111.66 212.532 111.749 212.506 111.991L212.468 112.354C212.443 112.507 212.424 112.66 212.411 112.812C212.411 112.965 212.405 113.118 212.392 113.271V113.672C212.366 113.926 212.239 114.085 212.01 114.149C211.437 114.289 210.852 114.391 210.253 114.454C209.655 114.518 209.063 114.563 208.477 114.588C208.146 114.614 207.828 114.633 207.523 114.645C207.23 114.645 206.956 114.639 206.702 114.626Z" fill="#333333"/>
<path d="M179.09 114.225V102.31C179.09 102.119 179.148 101.966 179.262 101.852C179.39 101.725 179.549 101.661 179.74 101.661H192.61C192.801 101.661 192.953 101.725 193.068 101.852C193.195 101.966 193.259 102.119 193.259 102.31V114.225C193.259 114.416 193.195 114.575 193.068 114.703C192.953 114.817 192.801 114.875 192.61 114.875H179.74C179.549 114.875 179.39 114.817 179.262 114.703C179.148 114.575 179.09 114.416 179.09 114.225ZM182.203 112.679H190.146C190.337 112.679 190.49 112.621 190.605 112.507C190.732 112.379 190.796 112.22 190.796 112.029V104.506C190.796 104.315 190.732 104.162 190.605 104.048C190.49 103.92 190.337 103.857 190.146 103.857H182.203C182.012 103.857 181.853 103.92 181.726 104.048C181.611 104.162 181.554 104.315 181.554 104.506V112.029C181.554 112.22 181.611 112.379 181.726 112.507C181.853 112.621 182.012 112.679 182.203 112.679Z" fill="#333333"/>
<path d="M159.537 116.288C159.346 115.931 159.105 115.6 158.812 115.295C158.544 115.002 158.583 114.766 158.926 114.588C159.919 114.066 160.836 113.468 161.676 112.793C162.516 112.106 163.248 111.348 163.872 110.521C164.496 109.681 164.979 108.764 165.323 107.771C165.68 106.778 165.858 105.703 165.858 104.544V100.515C165.858 100.324 165.915 100.171 166.03 100.057C166.157 99.9296 166.316 99.866 166.507 99.866H167.576C167.767 99.866 167.92 99.9296 168.035 100.057C168.162 100.171 168.226 100.324 168.226 100.515V103.895C168.226 105.041 168.404 106.142 168.76 107.198C169.129 108.242 169.632 109.216 170.269 110.12C170.918 111.011 171.675 111.819 172.541 112.545C173.407 113.258 174.336 113.856 175.329 114.34C175.698 114.544 175.755 114.805 175.501 115.123C175.437 115.212 175.373 115.301 175.31 115.39C175.259 115.466 175.202 115.556 175.138 115.657C175.074 115.759 175.011 115.855 174.947 115.944C174.883 116.033 174.826 116.122 174.775 116.211C174.635 116.44 174.45 116.555 174.221 116.555C174.094 116.555 173.89 116.472 173.61 116.307C173.343 116.154 173.063 115.969 172.77 115.753C172.477 115.549 172.204 115.346 171.949 115.142C171.694 114.938 171.51 114.792 171.395 114.703C170.695 114.092 170.052 113.43 169.467 112.717C168.881 112.004 168.366 111.24 167.92 110.425C167.678 109.967 167.436 109.738 167.194 109.738C166.965 109.738 166.73 109.974 166.488 110.445C166.195 111.056 165.82 111.654 165.361 112.239C164.916 112.812 164.419 113.36 163.872 113.882C163.337 114.404 162.771 114.887 162.173 115.333C161.574 115.778 160.982 116.173 160.397 116.517C160.295 116.568 160.187 116.593 160.072 116.593C159.843 116.593 159.665 116.491 159.537 116.288Z" fill="#333333"/>
<path d="M140.175 115.81V115.046C140.175 114.855 140.233 114.703 140.347 114.588C140.474 114.461 140.634 114.397 140.824 114.397H146.152C146.343 114.397 146.496 114.34 146.61 114.225C146.738 114.098 146.801 113.939 146.801 113.748V112.965C146.801 112.774 146.738 112.621 146.61 112.507C146.496 112.379 146.343 112.316 146.152 112.316H142.868C142.677 112.316 142.518 112.258 142.39 112.144C142.276 112.017 142.218 111.857 142.218 111.667V110.884C142.218 110.693 142.276 110.54 142.39 110.425C142.518 110.298 142.677 110.234 142.868 110.234H146.152C146.343 110.234 146.496 110.177 146.61 110.063C146.738 109.935 146.801 109.776 146.801 109.585V109.089C146.801 108.898 146.738 108.745 146.61 108.63C146.496 108.503 146.343 108.44 146.152 108.44H142.925C142.734 108.44 142.581 108.382 142.467 108.268C142.352 108.153 142.295 108 142.295 107.809C142.295 107.555 142.212 107.427 142.047 107.427C141.957 107.427 141.862 107.459 141.76 107.523L141.168 107.867C141.066 107.93 140.965 107.994 140.863 108.058C140.761 108.109 140.659 108.166 140.557 108.229C140.468 108.28 140.373 108.306 140.271 108.306C140.054 108.306 139.876 108.204 139.736 108C139.685 107.937 139.628 107.867 139.564 107.79C139.513 107.701 139.456 107.612 139.392 107.523C139.329 107.447 139.265 107.37 139.201 107.294C139.138 107.205 139.074 107.128 139.01 107.065C138.769 106.772 138.813 106.549 139.144 106.396C139.844 106.078 140.557 105.683 141.283 105.212C142.008 104.741 142.709 104.22 143.383 103.647C144.058 103.061 144.682 102.444 145.254 101.795C145.84 101.133 146.33 100.471 146.725 99.8086C146.89 99.554 147.113 99.4458 147.393 99.484L148.806 99.6941C148.997 99.7068 149.156 99.8023 149.283 99.9805C149.691 100.592 150.181 101.196 150.754 101.795C151.327 102.38 151.944 102.934 152.606 103.456C153.281 103.978 153.974 104.455 154.687 104.888C155.4 105.321 156.1 105.683 156.788 105.976C157.144 106.142 157.195 106.371 156.941 106.664C156.877 106.727 156.813 106.804 156.75 106.893C156.699 106.969 156.641 107.052 156.578 107.141C156.514 107.243 156.45 107.338 156.387 107.427C156.336 107.517 156.279 107.612 156.215 107.714C156.088 107.943 155.903 108.058 155.661 108.058C155.547 108.058 155.438 108.032 155.337 107.981C155.247 107.93 155.158 107.886 155.069 107.848C154.98 107.797 154.885 107.739 154.783 107.676C154.681 107.625 154.579 107.574 154.477 107.523C154.388 107.472 154.293 107.415 154.191 107.351C154.064 107.287 153.968 107.256 153.904 107.256C153.713 107.256 153.618 107.396 153.618 107.676V107.79C153.618 107.981 153.554 108.14 153.427 108.268C153.313 108.382 153.16 108.44 152.969 108.44H149.856C149.665 108.44 149.506 108.503 149.379 108.63C149.264 108.745 149.207 108.898 149.207 109.089V109.585C149.207 109.776 149.264 109.935 149.379 110.063C149.506 110.177 149.665 110.234 149.856 110.234H153.083C153.274 110.234 153.427 110.298 153.542 110.425C153.669 110.54 153.733 110.693 153.733 110.884V111.667C153.733 111.857 153.669 112.017 153.542 112.144C153.427 112.258 153.274 112.316 153.083 112.316H149.856C149.665 112.316 149.506 112.379 149.379 112.507C149.264 112.621 149.207 112.774 149.207 112.965V113.748C149.207 113.939 149.264 114.098 149.379 114.225C149.506 114.34 149.665 114.397 149.856 114.397H155.184C155.375 114.397 155.528 114.461 155.642 114.588C155.769 114.703 155.833 114.855 155.833 115.046V115.81C155.833 116.001 155.769 116.154 155.642 116.268C155.528 116.396 155.375 116.459 155.184 116.459H140.824C140.634 116.459 140.474 116.396 140.347 116.268C140.233 116.154 140.175 116.001 140.175 115.81ZM145.159 106.32H150.945C151.441 106.32 151.715 106.231 151.766 106.053C151.829 105.874 151.67 105.626 151.288 105.308C150.779 104.913 150.289 104.487 149.818 104.029C149.36 103.57 148.933 103.093 148.539 102.596C148.373 102.38 148.189 102.272 147.985 102.272C147.781 102.272 147.59 102.38 147.412 102.596C147.03 103.08 146.617 103.551 146.171 104.01C145.725 104.455 145.267 104.882 144.796 105.289C144.414 105.62 144.255 105.874 144.319 106.053C144.382 106.231 144.663 106.32 145.159 106.32Z" fill="#333333"/>
<path d="M218.605 162.963L208.217 178.972L208.34 179.094C208.788 178.85 209.378 178.667 210.112 178.544C210.886 178.422 211.639 178.361 212.372 178.361C214.287 178.361 216.039 178.728 217.627 179.461C219.216 180.194 220.581 181.192 221.721 182.455C222.903 183.718 223.799 185.184 224.41 186.854C225.062 188.525 225.388 190.297 225.388 192.17C225.388 194.411 225.001 196.448 224.227 198.281C223.453 200.114 222.373 201.682 220.988 202.986C219.644 204.249 218.014 205.226 216.1 205.919C214.226 206.611 212.189 206.958 209.989 206.958C207.708 206.958 205.631 206.632 203.757 205.98C201.883 205.287 200.254 204.31 198.869 203.047C197.524 201.784 196.465 200.236 195.691 198.403C194.958 196.57 194.591 194.513 194.591 192.232C194.591 189.95 194.958 187.893 195.691 186.06C196.465 184.186 197.443 182.292 198.624 180.378L209.684 162.963H218.605ZM202.29 192.109C202.29 193.209 202.494 194.248 202.901 195.226C203.309 196.163 203.859 196.998 204.551 197.731C205.284 198.423 206.12 198.973 207.056 199.381C208.034 199.788 209.073 199.992 210.173 199.992C211.273 199.992 212.291 199.788 213.228 199.381C214.206 198.973 215.041 198.423 215.733 197.731C216.466 196.998 217.037 196.163 217.444 195.226C217.851 194.248 218.055 193.209 218.055 192.109C218.055 191.01 217.851 189.991 217.444 189.054C217.037 188.077 216.466 187.241 215.733 186.549C215.041 185.816 214.206 185.245 213.228 184.838C212.291 184.431 211.273 184.227 210.173 184.227C209.073 184.227 208.034 184.431 207.056 184.838C206.12 185.245 205.284 185.816 204.551 186.549C203.859 187.241 203.309 188.077 202.901 189.054C202.494 189.991 202.29 191.01 202.29 192.109Z" fill="#1A8C33"/>
<path d="M159.348 198.464L176.151 182.211C176.64 181.722 177.149 181.213 177.679 180.683C178.208 180.113 178.677 179.522 179.084 178.911C179.532 178.3 179.899 177.669 180.184 177.017C180.469 176.324 180.612 175.611 180.612 174.878C180.612 173.982 180.428 173.188 180.062 172.495C179.736 171.803 179.288 171.212 178.717 170.723C178.147 170.234 177.475 169.868 176.701 169.623C175.968 169.338 175.173 169.196 174.318 169.196C172.485 169.196 170.978 169.725 169.796 170.784C168.615 171.843 167.902 173.269 167.658 175.061L159.959 174.45C160.122 172.454 160.59 170.703 161.364 169.196C162.179 167.648 163.218 166.364 164.48 165.346C165.743 164.328 167.21 163.554 168.88 163.024C170.55 162.495 172.363 162.23 174.318 162.23C176.273 162.23 178.086 162.495 179.756 163.024C181.467 163.513 182.954 164.267 184.217 165.285C185.48 166.263 186.478 167.525 187.211 169.073C187.944 170.621 188.311 172.434 188.311 174.512C188.311 177.241 187.679 179.603 186.417 181.6C185.194 183.555 183.606 185.429 181.65 187.221L168.269 199.625H188.311V206.224H159.348V198.464Z" fill="#1A8C33"/>
<path d="M246.939 200.908C246.939 200.114 247.082 199.381 247.367 198.709C247.672 198.016 248.08 197.415 248.589 196.906C249.118 196.376 249.719 195.969 250.391 195.684C251.084 195.378 251.827 195.226 252.622 195.226C253.416 195.226 254.149 195.378 254.821 195.684C255.514 195.969 256.115 196.376 256.624 196.906C257.154 197.415 257.561 198.016 257.846 198.709C258.152 199.381 258.304 200.114 258.304 200.908C258.304 201.703 258.152 202.446 257.846 203.139C257.561 203.811 257.154 204.412 256.624 204.941C256.115 205.45 255.514 205.858 254.821 206.163C254.149 206.448 253.416 206.591 252.622 206.591C251.827 206.591 251.084 206.448 250.391 206.163C249.719 205.858 249.118 205.45 248.589 204.941C248.08 204.412 247.672 203.811 247.367 203.139C247.082 202.446 246.939 201.703 246.939 200.908ZM255.371 200.908C255.371 200.134 255.107 199.483 254.577 198.953C254.047 198.423 253.396 198.159 252.622 198.159C251.848 198.159 251.196 198.423 250.666 198.953C250.137 199.483 249.872 200.134 249.872 200.908C249.872 201.682 250.137 202.334 250.666 202.864C251.196 203.393 251.848 203.658 252.622 203.658C253.396 203.658 254.047 203.393 254.577 202.864C255.107 202.334 255.371 201.682 255.371 200.908ZM232.427 189.91C232.427 189.115 232.57 188.382 232.855 187.71C233.16 187.017 233.568 186.417 234.077 185.907C234.606 185.378 235.207 184.97 235.879 184.685C236.572 184.38 237.315 184.227 238.11 184.227C238.904 184.227 239.637 184.38 240.309 184.685C241.002 184.97 241.603 185.378 242.112 185.907C242.642 186.417 243.049 187.017 243.334 187.71C243.64 188.382 243.792 189.115 243.792 189.91C243.792 190.704 243.64 191.447 243.334 192.14C243.049 192.812 242.642 193.413 242.112 193.942C241.603 194.452 241.002 194.859 240.309 195.165C239.637 195.45 238.904 195.592 238.11 195.592C237.315 195.592 236.572 195.45 235.879 195.165C235.207 194.859 234.606 194.452 234.077 193.942C233.568 193.413 233.16 192.812 232.855 192.14C232.57 191.447 232.427 190.704 232.427 189.91ZM240.859 189.91C240.859 189.136 240.595 188.484 240.065 187.954C239.535 187.425 238.884 187.16 238.11 187.16C237.336 187.16 236.684 187.425 236.154 187.954C235.625 188.484 235.36 189.136 235.36 189.91C235.36 190.684 235.625 191.335 236.154 191.865C236.684 192.395 237.336 192.659 238.11 192.659C238.884 192.659 239.535 192.395 240.065 191.865C240.595 191.335 240.859 190.684 240.859 189.91ZM250.483 183.616L253.019 184.777L240.309 207.202L237.774 206.041L250.483 183.616Z" fill="#1A8C33"/>
<path fill-rule="evenodd" clip-rule="evenodd" d="M7.63794 196.677C3.41962 196.677 0 200.097 0 204.315V247.278C0 251.497 3.41962 254.916 7.63793 254.916H119.24C123.459 254.916 126.878 251.497 126.878 247.278V227.122L139.635 216.206C140.964 215.068 140.19 212.89 138.44 212.846L126.878 212.561V204.315C126.878 200.097 123.459 196.677 119.24 196.677H7.63794Z" fill="white"/>
<path fill-rule="evenodd" clip-rule="evenodd" d="M124.014 225.803L135.881 215.648L124.014 215.356V204.315C124.014 201.678 121.877 199.541 119.24 199.541H7.63794C5.00149 199.541 2.86423 201.678 2.86423 204.315V247.278C2.86423 249.915 5.00149 252.052 7.63793 252.052H119.24C121.877 252.052 124.014 249.915 124.014 247.278V225.803ZM0 204.315C0 200.097 3.41962 196.677 7.63794 196.677H119.24C123.459 196.677 126.878 200.097 126.878 204.315V212.561L138.44 212.846C140.19 212.89 140.964 215.068 139.635 216.206L126.878 227.122V247.278C126.878 251.497 123.459 254.916 119.24 254.916H7.63793C3.41962 254.916 0 251.497 0 247.278V204.315Z" fill="#1A8C70"/>
<path d="M86.5163 221.685V220.824C86.5163 220.614 86.5793 220.446 86.7053 220.32C86.8454 220.18 87.0204 220.11 87.2304 220.11H90.5911C90.8012 220.11 90.9692 220.047 91.0952 219.921C91.2353 219.781 91.3053 219.605 91.3053 219.395V217.148C91.3053 216.938 91.3683 216.77 91.4943 216.644C91.6344 216.504 91.8094 216.434 92.0194 216.434H93.2797C93.4897 216.434 93.6578 216.504 93.7838 216.644C93.9238 216.77 93.9938 216.938 93.9938 217.148V219.395C93.9938 219.605 94.0569 219.781 94.1829 219.921C94.3229 220.047 94.4979 220.11 94.708 220.11H98.3207C98.5308 220.11 98.6988 220.18 98.8248 220.32C98.9649 220.446 99.0349 220.614 99.0349 220.824V221.685C99.0349 221.895 98.9649 222.07 98.8248 222.21C98.6988 222.336 98.5308 222.399 98.3207 222.399H87.2304C87.0204 222.399 86.8454 222.336 86.7053 222.21C86.5793 222.07 86.5163 221.895 86.5163 221.685ZM82.7355 234.771V225.655C82.7355 225.501 82.7075 225.417 82.6515 225.403C82.5955 225.375 82.5185 225.417 82.4205 225.529L82.0844 225.928C82.0284 225.998 81.9724 226.061 81.9163 226.117C81.8743 226.173 81.8253 226.229 81.7693 226.285C81.6853 226.397 81.5733 226.453 81.4332 226.453C81.3072 226.453 81.1532 226.376 80.9712 226.222C80.8031 226.068 80.6771 225.949 80.5931 225.865C80.5091 225.795 80.425 225.739 80.341 225.697C80.257 225.641 80.173 225.585 80.089 225.529C79.7669 225.319 79.7389 225.081 80.005 224.815C80.453 224.31 80.8871 223.75 81.3072 223.134C81.7413 222.504 82.1404 221.853 82.5045 221.181C82.8825 220.509 83.2186 219.823 83.5127 219.122C83.8207 218.422 84.0798 217.743 84.2898 217.085C84.3599 216.861 84.4719 216.7 84.6259 216.602C84.7939 216.504 84.99 216.49 85.214 216.56L86.1592 216.812C86.3693 216.868 86.5163 216.98 86.6003 217.148C86.6983 217.302 86.7123 217.484 86.6423 217.694C86.4883 218.268 86.2923 218.828 86.0542 219.374C85.8162 219.921 85.5711 220.46 85.3191 220.992C85.263 221.062 85.235 221.167 85.235 221.307V234.771C85.235 234.981 85.165 235.149 85.025 235.275C84.899 235.415 84.7309 235.485 84.5209 235.485H83.4497C83.2396 235.485 83.0646 235.415 82.9246 235.275C82.7985 235.149 82.7355 234.981 82.7355 234.771ZM86.0542 234.035V233.132C86.0542 232.922 86.1172 232.754 86.2432 232.628C86.3833 232.488 86.5583 232.418 86.7683 232.418H91.9144C92.0684 232.418 92.2085 232.376 92.3345 232.292C92.4605 232.194 92.5445 232.068 92.5866 231.914C92.9086 230.976 93.1957 230.024 93.4477 229.057C93.6998 228.091 93.9238 227.125 94.1199 226.159C94.3159 225.333 94.4629 224.549 94.561 223.806C94.589 223.582 94.68 223.414 94.834 223.302C94.988 223.19 95.1771 223.155 95.4011 223.197L96.5984 223.386C96.8084 223.428 96.9695 223.526 97.0815 223.68C97.1935 223.834 97.2285 224.016 97.1865 224.226C97.1305 224.45 97.0815 224.682 97.0395 224.92C96.9975 225.144 96.9414 225.382 96.8714 225.634C96.6754 226.432 96.4793 227.23 96.2833 228.028C96.0873 228.812 95.8772 229.604 95.6532 230.402C95.5272 230.78 95.4221 231.137 95.3381 231.473C95.2401 231.753 95.2541 231.984 95.3801 232.166C95.5061 232.334 95.7232 232.418 96.0313 232.418H98.8668C99.0769 232.418 99.2449 232.488 99.3709 232.628C99.511 232.754 99.581 232.922 99.581 233.132V234.035C99.581 234.246 99.511 234.414 99.3709 234.54C99.2449 234.68 99.0769 234.75 98.8668 234.75H86.7683C86.5583 234.75 86.3833 234.68 86.2432 234.54C86.1172 234.414 86.0542 234.246 86.0542 234.035ZM89.2679 230.654C89.1138 229.702 88.8898 228.728 88.5957 227.734C88.3157 226.74 87.9866 225.795 87.6085 224.899C87.5245 224.675 87.5175 224.471 87.5875 224.289C87.6715 224.107 87.8326 223.981 88.0706 223.911L89.1208 223.575C89.3029 223.519 89.4709 223.526 89.6249 223.596C89.793 223.666 89.912 223.799 89.982 223.995C90.3741 224.948 90.7102 225.921 90.9902 226.915C91.2843 227.895 91.5503 228.889 91.7884 229.898C91.8304 230.094 91.8024 230.262 91.7044 230.402C91.6063 230.542 91.4593 230.64 91.2633 230.696C91.1513 230.724 91.0392 230.752 90.9272 230.78C90.8292 230.808 90.7242 230.836 90.6121 230.864C90.5001 230.906 90.3951 230.948 90.2971 230.99C90.1991 231.018 90.101 231.046 90.003 231.074C89.5969 231.186 89.3519 231.046 89.2679 230.654Z" fill="#1A8C70"/>
<path d="M72.018 220.891L68.9705 223.709L67.3665 221.807L72.2701 217.729H74.7677V233.951H72.018V220.891Z" fill="#1A8C70"/>
<path d="M48.2755 235.38L48.0864 235.086L47.5193 234.351C47.4633 234.281 47.4143 234.218 47.3723 234.162C47.3303 234.12 47.2813 234.078 47.2252 234.036C47.0572 233.839 47.0922 233.699 47.3303 233.615C47.8484 233.447 48.3385 233.244 48.8006 233.006C49.2767 232.754 49.6967 232.46 50.0608 232.124C50.4389 231.774 50.761 231.382 51.027 230.948C51.2931 230.5 51.4891 230.003 51.6151 229.457C51.6712 229.177 51.6572 228.973 51.5731 228.847C51.5031 228.707 51.3841 228.637 51.2161 228.637C51.034 228.637 50.824 228.714 50.5859 228.868C50.0118 229.205 49.4307 229.527 48.8426 229.835C48.2545 230.129 47.6523 230.395 47.0362 230.633C46.8682 230.703 46.7071 230.703 46.5531 230.633C46.4131 230.563 46.301 230.451 46.217 230.297C46.175 230.227 46.133 230.15 46.091 230.066C46.049 229.968 46 229.87 45.944 229.772C45.846 229.576 45.7339 229.394 45.6079 229.226C45.3839 228.903 45.4609 228.686 45.839 228.574C46.6791 228.336 47.5193 228 48.3595 227.566C49.1996 227.132 49.9698 226.642 50.6699 226.096C51.076 225.788 51.2371 225.529 51.153 225.319C51.069 225.095 50.768 224.983 50.2499 224.983H48.5905C48.3805 224.983 48.2054 224.92 48.0654 224.794C47.9394 224.654 47.8764 224.479 47.8764 224.269V217.61C47.8764 217.4 47.9394 217.232 48.0654 217.106C48.2054 216.966 48.3805 216.896 48.5905 216.896H62.1593C62.3694 216.896 62.5374 216.966 62.6634 217.106C62.8035 217.232 62.8735 217.4 62.8735 217.61V224.269C62.8735 224.479 62.8035 224.654 62.6634 224.794C62.5374 224.92 62.3694 224.983 62.1593 224.983H59.9119C59.5058 224.983 59.2677 225.067 59.1977 225.235C59.1417 225.403 59.2747 225.606 59.5968 225.844C60.437 226.432 61.2771 226.922 62.1173 227.314C62.9715 227.706 63.8887 228.042 64.8689 228.322C65.261 228.434 65.338 228.658 65.0999 228.994C64.9739 229.191 64.8549 229.387 64.7428 229.583C64.6308 229.779 64.5188 229.975 64.4068 230.171C64.3228 230.353 64.1967 230.479 64.0287 230.549C63.8747 230.619 63.6996 230.619 63.5036 230.549C63.0135 230.339 62.5304 230.122 62.0543 229.898C61.5782 229.674 61.1021 229.436 60.626 229.184C60.444 229.072 60.2549 229.015 60.0589 229.015C59.6948 229.015 59.5128 229.282 59.5128 229.814V234.687C59.5128 234.897 59.4428 235.065 59.3027 235.191C59.1767 235.331 59.0087 235.401 58.7986 235.401H57.7274C57.5174 235.401 57.3423 235.331 57.2023 235.191C57.0763 235.065 57.0133 234.897 57.0133 234.687V227.986C57.0133 227.832 57.0623 227.713 57.1603 227.629C57.2583 227.531 57.3843 227.482 57.5384 227.482C57.8604 227.482 57.8954 227.37 57.6434 227.146C57.3213 226.866 57.0063 226.572 56.6982 226.264C56.3901 225.956 56.1101 225.627 55.858 225.277C55.718 225.081 55.5289 224.983 55.2909 224.983C55.0669 224.983 54.8778 225.081 54.7238 225.277C54.2477 225.893 53.7156 226.46 53.1275 226.978C52.9314 227.132 52.8544 227.265 52.8964 227.377C52.9384 227.475 53.0784 227.538 53.3165 227.566L53.4845 227.587C53.9186 227.629 54.1357 227.867 54.1357 228.301C54.0516 230.08 53.5475 231.564 52.6234 232.754C51.7132 233.945 50.4459 234.876 48.8216 235.548C48.5975 235.646 48.4155 235.59 48.2755 235.38ZM51.132 220.152H53.4425C53.6386 220.152 53.7996 220.089 53.9256 219.963C54.0516 219.837 54.1147 219.669 54.1147 219.459C54.1147 219.262 54.0516 219.101 53.9256 218.975C53.7996 218.849 53.6386 218.786 53.4425 218.786H51.132C50.922 218.786 50.754 218.849 50.6279 218.975C50.5019 219.101 50.4389 219.262 50.4389 219.459C50.4389 219.669 50.5019 219.837 50.6279 219.963C50.754 220.089 50.922 220.152 51.132 220.152ZM57.3283 220.152H59.6388C59.8348 220.152 59.9959 220.089 60.1219 219.963C60.2479 219.837 60.3109 219.669 60.3109 219.459C60.3109 219.262 60.2479 219.101 60.1219 218.975C59.9959 218.849 59.8348 218.786 59.6388 218.786H57.3283C57.1183 218.786 56.9502 218.849 56.8242 218.975C56.6982 219.101 56.6352 219.262 56.6352 219.459C56.6352 219.669 56.6982 219.837 56.8242 219.963C56.9502 220.089 57.1183 220.152 57.3283 220.152ZM51.132 223.092H53.4425C53.6386 223.092 53.7996 223.029 53.9256 222.903C54.0516 222.777 54.1147 222.609 54.1147 222.399C54.1147 222.203 54.0516 222.042 53.9256 221.916C53.7996 221.79 53.6386 221.727 53.4425 221.727H51.132C50.922 221.727 50.754 221.79 50.6279 221.916C50.5019 222.042 50.4389 222.203 50.4389 222.399C50.4389 222.609 50.5019 222.777 50.6279 222.903C50.754 223.029 50.922 223.092 51.132 223.092ZM57.3283 223.092H59.6388C59.8348 223.092 59.9959 223.029 60.1219 222.903C60.2479 222.777 60.3109 222.609 60.3109 222.399C60.3109 222.203 60.2479 222.042 60.1219 221.916C59.9959 221.79 59.8348 221.727 59.6388 221.727H57.3283C57.1183 221.727 56.9502 221.79 56.8242 221.916C56.6982 222.042 56.6352 222.203 56.6352 222.399C56.6352 222.609 56.6982 222.777 56.8242 222.903C56.9502 223.029 57.1183 223.092 57.3283 223.092Z" fill="#1A8C70"/>
<path d="M27.9432 233.952V224.815C27.9432 224.605 27.8732 224.437 27.7332 224.311C27.6072 224.171 27.4391 224.101 27.2291 224.101H25.4857C25.2757 224.101 25.1006 224.038 24.9606 223.911C24.8346 223.771 24.7716 223.596 24.7716 223.386V222.462C24.7716 222.252 24.8346 222.084 24.9606 221.958C25.1006 221.818 25.2757 221.748 25.4857 221.748H27.2291C27.4391 221.748 27.6072 221.685 27.7332 221.559C27.8732 221.419 27.9432 221.244 27.9432 221.034V218.009C27.9432 217.799 28.0062 217.631 28.1323 217.505C28.2723 217.365 28.4473 217.295 28.6574 217.295H29.7916C30.0017 217.295 30.1697 217.365 30.2957 217.505C30.4357 217.631 30.5058 217.799 30.5058 218.009V221.034C30.5058 221.244 30.5688 221.419 30.6948 221.559C30.8348 221.685 31.0099 221.748 31.2199 221.748H32.4172C32.6272 221.748 32.7952 221.685 32.9213 221.559C33.0613 221.419 33.1313 221.244 33.1313 221.034V217.484C33.1313 217.274 33.1943 217.106 33.3203 216.98C33.4604 216.84 33.6354 216.77 33.8454 216.77H34.8537C35.0637 216.77 35.2317 216.84 35.3578 216.98C35.4978 217.106 35.5678 217.274 35.5678 217.484V221.034C35.5678 221.244 35.6308 221.419 35.7568 221.559C35.8969 221.685 36.0719 221.748 36.2819 221.748H37.5632C37.7733 221.748 37.9413 221.685 38.0673 221.559C38.2073 221.419 38.2774 221.244 38.2774 221.034V218.009C38.2774 217.799 38.3404 217.631 38.4664 217.505C38.6064 217.365 38.7815 217.295 38.9915 217.295H39.9997C40.2098 217.295 40.3778 217.365 40.5038 217.505C40.6438 217.631 40.7139 217.799 40.7139 218.009V221.034C40.7139 221.244 40.7769 221.419 40.9029 221.559C41.0429 221.685 41.218 221.748 41.428 221.748H43.2764C43.4864 221.748 43.6545 221.818 43.7805 221.958C43.9205 222.084 43.9905 222.252 43.9905 222.462V223.386C43.9905 223.596 43.9205 223.771 43.7805 223.911C43.6545 224.038 43.4864 224.101 43.2764 224.101H41.428C41.218 224.101 41.0429 224.171 40.9029 224.311C40.7769 224.437 40.7139 224.605 40.7139 224.815V229.457C40.7139 229.667 40.6438 229.842 40.5038 229.982C40.3778 230.108 40.2098 230.171 39.9997 230.171H33.8454C33.6354 230.171 33.4604 230.108 33.3203 229.982C33.1943 229.842 33.1313 229.667 33.1313 229.457V224.815C33.1313 224.605 33.0613 224.437 32.9213 224.311C32.7952 224.171 32.6272 224.101 32.4172 224.101H31.2199C31.0099 224.101 30.8348 224.171 30.6948 224.311C30.5688 224.437 30.5058 224.605 30.5058 224.815V231.578C30.5058 231.788 30.5688 231.963 30.6948 232.103C30.8348 232.229 31.0099 232.292 31.2199 232.292H42.1842C42.3942 232.292 42.5622 232.362 42.6883 232.502C42.8283 232.628 42.8983 232.796 42.8983 233.006V233.952C42.8983 234.162 42.8283 234.33 42.6883 234.456C42.5622 234.596 42.3942 234.666 42.1842 234.666H28.6574C28.4473 234.666 28.2723 234.596 28.1323 234.456C28.0062 234.33 27.9432 234.162 27.9432 233.952ZM36.2819 227.881H37.5632C37.7733 227.881 37.9413 227.818 38.0673 227.692C38.2073 227.552 38.2774 227.377 38.2774 227.167V224.815C38.2774 224.605 38.2073 224.437 38.0673 224.311C37.9413 224.171 37.7733 224.101 37.5632 224.101H36.2819C36.0719 224.101 35.8969 224.171 35.7568 224.311C35.6308 224.437 35.5678 224.605 35.5678 224.815V227.167C35.5678 227.377 35.6308 227.552 35.7568 227.692C35.8969 227.818 36.0719 227.881 36.2819 227.881Z" fill="#1A8C70"/>
</svg>
